<svg width="14" height="17" viewBox="0 0 14 17" fill="none" xmlns="http://www.w3.org/2000/svg">
<path d="M12.5714 1.39634H13.4286C13.5893 1.39634 13.7143 1.27134 13.7143 1.11063V0.539202C13.7143 0.378488 13.5893 0.253487 13.4286 0.253487H0.285714C0.125 0.253487 0 0.378488 0 0.539202V1.11063C0 1.27134 0.125 1.39634 0.285714 1.39634H1.14286C1.14286 4.69992 2.72321 7.09277 4.47321 8.25349C2.72321 9.4142 1.14286 11.8071 1.14286 15.1106H0.285714C0.125 15.1106 0 15.2356 0 15.3963V15.9678C0 16.1285 0.125 16.2535 0.285714 16.2535H13.4286C13.5893 16.2535 13.7143 16.1285 13.7143 15.9678V15.3963C13.7143 15.2356 13.5893 15.1106 13.4286 15.1106H12.5714C12.5714 11.8071 10.9911 9.4142 9.24107 8.25349C10.9911 7.09277 12.5714 4.69992 12.5714 1.39634ZM11.4286 1.39634C11.4286 2.69992 11.1339 3.8517 10.6696 4.82492H3.04464C2.58036 3.8517 2.28571 2.69992 2.28571 1.39634H11.4286ZM10.9196 12.2535H2.79464C3.45536 10.5303 4.64286 9.30706 5.83036 8.82492H7.88393C9.07143 9.30706 10.2589 10.5303 10.9196 12.2535Z" fill="white"/>
</svg>
