<svg width="18" height="14" viewBox="0 0 18 14" fill="none" xmlns="http://www.w3.org/2000/svg">
<path d="M9.48214 5.61063L10.6518 6.15527L12.3929 5.63742V4.42313C12.3929 2.36063 10.6518 0.708844 8.57143 0.708844C6.5 0.708844 4.75 2.3517 4.75 4.39634V9.93206C4.75 10.441 4.33929 10.8428 3.83929 10.8428C3.33929 10.8428 2.92857 10.441 2.92857 9.93206V7.59277H0C0 9.94099 0 9.96777 0 9.96777C0 12.0838 1.71429 13.7981 3.83036 13.7981C5.92857 13.7981 7.66071 12.1106 7.66071 10.0213V4.55706C7.66071 4.05706 8.07143 3.64634 8.57143 3.64634C9.07143 3.64634 9.48214 4.05706 9.48214 4.55706V5.61063ZM14.2143 7.59277V10.0481C14.2143 10.5481 13.8036 10.9499 13.3036 10.9499C12.8036 10.9499 12.3929 10.5481 12.3929 10.0481V7.63742L10.6518 8.15527L9.48214 7.61063V10.0035C9.48214 12.1017 11.2054 13.7981 13.3125 13.7981C15.4286 13.7981 17.1429 12.0838 17.1429 9.96777C17.1429 9.96777 17.1429 9.94099 17.1429 7.59277H14.2143Z" fill="white"/>
</svg>
