<svg aria-hidden="true" style="position: absolute; width: 0; height: 0; overflow: hidden;" version="1.1" xmlns="http://www.w3.org/2000/svg" xmlns:xlink="http://www.w3.org/1999/xlink">
<defs>
<symbol id="logo" viewBox="0 0 35 32">
<path fill="#02bc6b" style="fill: var(--color1, #02bc6b)" d="M2.71 29.802c-1.49 0-2.71-1.219-2.71-2.71v-9.473h6.821v-0.011h4.099c1.057-0.027 1.951-0.948 1.951-2.032 0-1.111-0.921-2.032-2.032-2.032l-10.839 0.002v-2.711c0-1.49 1.219-2.71 2.71-2.71h8.129c2.059 0 3.821 0.732 5.257 2.195 1.463 1.436 2.195 3.197 2.195 5.257 0 2.032-0.705 3.794-2.141 5.23s-3.17 2.195-5.203 2.222h-5.528v4.065c0 1.49-1.219 2.71-2.71 2.71z"></path>
<path fill="#02897a" style="fill: var(--color2, #02897a)" d="M21.706 4.98c2.994 2.908 4.502 6.529 4.502 10.646 0 4.048-1.445 7.666-4.393 10.583l-4.185-3.937c1.833-1.814 2.733-3.998 2.733-6.645 0-2.667-0.927-4.848-2.804-6.671l4.146-3.975z"></path>
<path fill="#035b81" style="fill: var(--color3, #035b81)" d="M28.113 0c4.312 4.305 6.482 9.643 6.482 15.77 0 6.031-2.082 11.366-6.323 15.68l-4.039-3.946c3.159-3.214 4.707-7.112 4.707-11.734 0-4.669-1.6-8.563-4.828-11.786l4.002-3.984z"></path>
<path fill="#028e37" style="fill: var(--color4, #028e37)" d="M0 23.051h5.419v4.042c0 1.49-1.219 2.71-2.71 2.71s-2.71-1.219-2.71-2.71v-4.042z"></path>
</symbol>
<symbol id="menu" viewBox="0 0 29 32">
<path fill="none" stroke="#173a56" style="stroke: var(--color5, #173a56)" stroke-linejoin="round" stroke-linecap="round" stroke-miterlimit="4" stroke-width="3.0968" d="M3.613 16h21.677"></path>
<path fill="none" stroke="#173a56" style="stroke: var(--color5, #173a56)" stroke-linejoin="round" stroke-linecap="round" stroke-miterlimit="4" stroke-width="3.0968" d="M3.613 8h21.677"></path>
<path fill="none" stroke="#173a56" style="stroke: var(--color5, #173a56)" stroke-linejoin="round" stroke-linecap="round" stroke-miterlimit="4" stroke-width="3.0968" d="M3.613 24h21.677"></path>
</symbol>
<symbol id="hero" viewBox="0 0 35 32">
<path fill="#f5f5f5" style="fill: var(--color1, #f5f5f5)" d="M5.077 29.288c6.769 3.512 17.744 3.512 24.513 0s6.768-9.206 0-12.718c-6.769-3.512-17.744-3.512-24.513 0s-6.769 9.206 0 12.718z"></path>
<path fill="#e6e6e6" style="fill: var(--color2, #e6e6e6)" d="M29.683 20.632c1.319 0 2.389-0.506 2.389-1.131s-1.070-1.131-2.389-1.131c-1.319 0-2.389 0.506-2.389 1.131s1.070 1.131 2.389 1.131z"></path>
<path fill="#e6e6e6" style="fill: var(--color2, #e6e6e6)" d="M5.035 27.246c1.21 0 2.19-0.464 2.19-1.037s-0.981-1.037-2.19-1.037c-1.21 0-2.19 0.464-2.19 1.037s0.981 1.037 2.19 1.037z"></path>
<path fill="#e6e6e6" style="fill: var(--color2, #e6e6e6)" d="M21.296 29.239c1.259 0 2.279-0.483 2.279-1.079s-1.020-1.079-2.279-1.079c-1.259 0-2.279 0.483-2.279 1.079s1.020 1.079 2.279 1.079z"></path>
<path fill="#e6e6e6" style="fill: var(--color2, #e6e6e6)" d="M9.984 24.075c1.259 0 2.279-0.483 2.279-1.079s-1.020-1.079-2.279-1.079c-1.259 0-2.279 0.483-2.279 1.079s1.020 1.079 2.279 1.079z"></path>
<path fill="#02897a" style="fill: var(--color3, #02897a)" d="M23.396 16.862c0.056-0.665 1.591-3.161 2.060-3.547s1.298-1.364 0.941-1.919-1.407-0.308-2.392 1.423c-0.764 1.342-1.002 4.311-1.002 4.311l0.393-0.267z"></path>
<path fill="#fff" style="fill: var(--color4, #fff)" d="M23.186 16.799h-0.006c-0.005-0.001-0.010-0.003-0.015-0.005s-0.008-0.006-0.012-0.011-0.005-0.009-0.006-0.014c-0.001-0.005-0.001-0.010-0-0.016 0.434-2.786 1.356-4.524 2.818-5.313 0.009-0.005 0.020-0.006 0.031-0.003 0.005 0.002 0.010 0.004 0.014 0.007s0.008 0.007 0.010 0.012c0.003 0.005 0.004 0.010 0.005 0.015s0 0.010-0.001 0.016c-0.002 0.005-0.004 0.010-0.007 0.014s-0.007 0.008-0.012 0.010c-1.439 0.777-2.347 2.496-2.778 5.256-0.002 0.009-0.007 0.018-0.014 0.024s-0.016 0.009-0.026 0.009v0z"></path>
<path fill="#37474f" style="fill: var(--color5, #37474f)" d="M23.55 13.635c0 0 1.232-2.115 2.252-3.084 0.566-0.537 0.913-0.883 0.882-1.289-0.023-0.308-0.28-0.473-0.835-0.337-1.104 0.27-1.697 1.381-2.078 2.625-0.271 0.876-0.222 2.084-0.222 2.084z"></path>
<path fill="#00ffe3" style="fill: var(--color6, #00ffe3)" opacity="0.2" d="M23.55 13.635c0 0 1.232-2.115 2.252-3.084 0.566-0.537 0.913-0.883 0.882-1.289-0.023-0.308-0.28-0.473-0.835-0.337-1.104 0.27-1.697 1.381-2.078 2.625-0.271 0.876-0.222 2.084-0.222 2.084z"></path>
<path fill="#fff" style="fill: var(--color4, #fff)" d="M23.693 13.287h-0.006c-0.011-0.002-0.020-0.008-0.027-0.016s-0.009-0.020-0.007-0.030c0.439-2.749 2.106-3.784 2.607-4.036 0.010-0.005 0.021-0.006 0.031-0.002s0.019 0.010 0.023 0.020c0.002 0.005 0.004 0.010 0.004 0.015s-0 0.011-0.002 0.016c-0.002 0.005-0.004 0.010-0.008 0.014s-0.008 0.007-0.013 0.009c-0.492 0.248-2.13 1.265-2.563 3.977-0.002 0.009-0.007 0.018-0.014 0.024s-0.017 0.009-0.026 0.009v0z"></path>
<path fill="#11b5e4" style="fill: var(--color7, #11b5e4)" d="M30.451 7.392l-0.267-0.497 0.214-0.615v-0.376l-0.656 0.376v0.376l0.282 0.486c0.004 0.008 0.011 0.014 0.019 0.017l0.407 0.233z"></path>
<path fill="#000" style="fill: var(--color8, #000)" opacity="0.1" d="M30.451 7.392l-0.267-0.497 0.214-0.615v-0.376l-0.656 0.376v0.376l0.282 0.486c0.004 0.008 0.011 0.014 0.019 0.017l0.407 0.233z"></path>
<path fill="#11b5e4" style="fill: var(--color7, #11b5e4)" d="M28.929 5.056l1.806-1.043c0.061-0.030 0.128-0.046 0.197-0.046s0.136 0.016 0.197 0.046l0.162 0.092c0.057 0.037 0.105 0.087 0.14 0.146s0.054 0.125 0.058 0.193v1.454c-0.004 0.068-0.024 0.134-0.058 0.193s-0.082 0.109-0.139 0.146l-1.808 1.043c-0.061 0.030-0.128 0.046-0.197 0.046s-0.136-0.016-0.197-0.046l-0.162-0.092c-0.057-0.037-0.105-0.087-0.139-0.146s-0.054-0.125-0.057-0.193v-1.456c0.004-0.068 0.024-0.133 0.059-0.192s0.082-0.108 0.139-0.145v0z"></path>
<path fill="#fff" style="fill: var(--color4, #fff)" opacity="0.3" d="M28.929 5.056l1.806-1.043c0.061-0.030 0.128-0.046 0.197-0.046s0.136 0.016 0.197 0.046l0.162 0.092c0.057 0.037 0.105 0.087 0.14 0.146s0.054 0.125 0.058 0.193v1.454c-0.004 0.068-0.024 0.134-0.058 0.193s-0.082 0.109-0.139 0.146l-1.808 1.043c-0.061 0.030-0.128 0.046-0.197 0.046s-0.136-0.016-0.197-0.046l-0.162-0.092c-0.057-0.037-0.105-0.087-0.139-0.146s-0.054-0.125-0.057-0.193v-1.456c0.004-0.068 0.024-0.133 0.059-0.192s0.082-0.108 0.139-0.145v0z"></path>
<path fill="#11b5e4" style="fill: var(--color7, #11b5e4)" d="M29.483 7.278c-0.109 0.062-0.197 0.012-0.197-0.113v-1.454c0.004-0.068 0.024-0.134 0.058-0.193s0.082-0.109 0.139-0.146l1.808-1.043c0.109-0.063 0.197-0.012 0.197 0.113v1.454c-0.004 0.068-0.024 0.134-0.058 0.193s-0.082 0.109-0.139 0.146z"></path>
<path fill="#11b5e4" style="fill: var(--color7, #11b5e4)" d="M28.733 6.847c0.003 0.068 0.023 0.134 0.057 0.193s0.082 0.109 0.139 0.146l0.162 0.092c0.055 0.028 0.116 0.043 0.178 0.046s0.124-0.008 0.181-0.031c-0.092 0.035-0.162-0.017-0.162-0.128v-1.454c0.003-0.068 0.023-0.134 0.058-0.193l-0.554-0.321c-0.035 0.058-0.055 0.125-0.057 0.193l-0.002 1.457z"></path>
<path fill="#000" style="fill: var(--color8, #000)" opacity="0.1" d="M28.733 6.847c0.003 0.068 0.023 0.134 0.057 0.193s0.082 0.109 0.139 0.146l0.162 0.092c0.055 0.028 0.116 0.043 0.178 0.046s0.124-0.008 0.181-0.031c-0.092 0.035-0.162-0.017-0.162-0.128v-1.454c0.003-0.068 0.023-0.134 0.058-0.193l-0.554-0.321c-0.035 0.058-0.055 0.125-0.057 0.193l-0.002 1.457z"></path>
<path fill="#11b5e4" style="fill: var(--color7, #11b5e4)" d="M30.154 6.892l0.282 0.485c0.004 0.007 0.010 0.012 0.017 0.016s0.015 0.005 0.023 0.004c0.008-0.001 0.016-0.004 0.022-0.009s0.011-0.011 0.014-0.019l0.298-0.855v-0.376l-0.657 0.376v0.376z"></path>
<path fill="#fff" style="fill: var(--color4, #fff)" d="M30.388 6.395l-0.202-0.053c-0.192-0.051-0.422-0.16-0.422-0.407 0.010-0.1 0.043-0.197 0.097-0.282s0.128-0.156 0.215-0.208c0.029-0.020 0.062-0.033 0.097-0.036s0.070 0.003 0.102 0.018c0.032 0.015 0.059 0.038 0.078 0.067s0.031 0.063 0.033 0.098c0.020-0.16 0.151-0.412 0.31-0.504 0.173-0.099 0.313-0.040 0.313 0.132 0 0.246-0.229 0.619-0.421 0.891l-0.201 0.284z"></path>
<path fill="#ff7800" style="fill: var(--color9, #ff7800)" d="M3.679 11.21l1.808-1.039c0.061-0.031 0.128-0.047 0.197-0.047s0.136 0.016 0.197 0.047l0.162 0.092c0.057 0.037 0.105 0.087 0.139 0.146s0.054 0.125 0.058 0.193v1.454c-0.004 0.068-0.023 0.134-0.058 0.193s-0.082 0.109-0.139 0.146l-1.806 1.039c-0.061 0.031-0.129 0.047-0.197 0.047s-0.136-0.016-0.197-0.047l-0.162-0.091c-0.058-0.037-0.106-0.088-0.141-0.147s-0.054-0.126-0.058-0.195v-1.451c0.004-0.068 0.023-0.134 0.058-0.193s0.082-0.109 0.14-0.146v0z"></path>
<path fill="#fff" style="fill: var(--color4, #fff)" opacity="0.3" d="M3.679 11.21l1.808-1.039c0.061-0.031 0.128-0.047 0.197-0.047s0.136 0.016 0.197 0.047l0.162 0.092c0.057 0.037 0.105 0.087 0.139 0.146s0.054 0.125 0.058 0.193v1.454c-0.004 0.068-0.023 0.134-0.058 0.193s-0.082 0.109-0.139 0.146l-1.806 1.039c-0.061 0.031-0.129 0.047-0.197 0.047s-0.136-0.016-0.197-0.047l-0.162-0.091c-0.058-0.037-0.106-0.088-0.141-0.147s-0.054-0.126-0.058-0.195v-1.451c0.004-0.068 0.023-0.134 0.058-0.193s0.082-0.109 0.14-0.146v0z"></path>
<path fill="#ff7800" style="fill: var(--color9, #ff7800)" d="M5.2 13.547l-0.267-0.498 0.215-0.615v-0.376l-0.657 0.38v0.376l0.283 0.481c0.004 0.008 0.011 0.013 0.019 0.017v0l0.407 0.235z"></path>
<path fill="#000" style="fill: var(--color8, #000)" opacity="0.1" d="M5.2 13.547l-0.267-0.498 0.215-0.615v-0.376l-0.657 0.38v0.376l0.283 0.481c0.004 0.008 0.011 0.013 0.019 0.017v0l0.407 0.235z"></path>
<path fill="#ff7800" style="fill: var(--color9, #ff7800)" d="M4.237 13.433c-0.109 0.063-0.197 0.012-0.197-0.113v-1.454c0.004-0.068 0.024-0.134 0.058-0.192s0.082-0.108 0.139-0.145l1.809-1.043c0.108-0.062 0.196-0.011 0.196 0.113v1.454c-0.004 0.068-0.023 0.134-0.058 0.193s-0.082 0.109-0.139 0.146z"></path>
<path fill="#ff7800" style="fill: var(--color9, #ff7800)" d="M3.482 12.999c0.004 0.068 0.024 0.134 0.058 0.193s0.082 0.109 0.139 0.146l0.162 0.091c0.056 0.028 0.116 0.043 0.178 0.046s0.124-0.008 0.182-0.030c-0.093 0.035-0.162-0.018-0.162-0.129v-1.451c0.002-0.068 0.022-0.134 0.057-0.193l-0.553-0.317c-0.036 0.058-0.056 0.124-0.058 0.193l-0.003 1.451z"></path>
<path fill="#000" style="fill: var(--color8, #000)" opacity="0.1" d="M3.482 12.999c0.004 0.068 0.024 0.134 0.058 0.193s0.082 0.109 0.139 0.146l0.162 0.091c0.056 0.028 0.116 0.043 0.178 0.046s0.124-0.008 0.182-0.030c-0.093 0.035-0.162-0.018-0.162-0.129v-1.451c0.002-0.068 0.022-0.134 0.057-0.193l-0.553-0.317c-0.036 0.058-0.056 0.124-0.058 0.193l-0.003 1.451z"></path>
<path fill="#ff7800" style="fill: var(--color9, #ff7800)" d="M4.904 13.047l0.282 0.481c0.004 0.007 0.010 0.012 0.017 0.016s0.015 0.005 0.023 0.004c0.008-0.001 0.016-0.004 0.022-0.009s0.011-0.011 0.014-0.019l0.298-0.855v-0.376l-0.656 0.376v0.38z"></path>
<path fill="#fff" style="fill: var(--color4, #fff)" d="M4.455 12.179c-0.054 0.035-0.1 0.082-0.132 0.138s-0.050 0.119-0.053 0.183c0 0.117 0.081 0.16 0.185 0.106 0.054-0.035 0.099-0.083 0.131-0.138s0.051-0.118 0.054-0.183c0.001-0.117-0.080-0.168-0.185-0.106z"></path>
<path fill="#fff" style="fill: var(--color4, #fff)" d="M5.137 11.786c-0.054 0.035-0.1 0.082-0.132 0.138s-0.051 0.118-0.054 0.183c0 0.117 0.081 0.165 0.186 0.106 0.054-0.035 0.099-0.083 0.131-0.138s0.051-0.118 0.054-0.182c0-0.117-0.083-0.165-0.185-0.106z"></path>
<path fill="#fff" style="fill: var(--color4, #fff)" d="M5.819 11.395c-0.054 0.035-0.099 0.083-0.131 0.138s-0.051 0.118-0.054 0.182c0 0.117 0.081 0.161 0.185 0.106 0.054-0.035 0.1-0.082 0.132-0.138s0.050-0.119 0.053-0.183c0-0.118-0.082-0.165-0.185-0.106z"></path>
<path fill="#37474f" style="fill: var(--color5, #37474f)" d="M22.851 0.677l-7.854 4.501c-0.102 0.066-0.187 0.155-0.247 0.259s-0.096 0.222-0.103 0.342v17.266c0 0.221 0.157 0.311 0.35 0.201l7.854-4.501c0.102-0.066 0.186-0.155 0.247-0.259s0.096-0.222 0.103-0.342v-17.266c0-0.221-0.157-0.311-0.35-0.201z"></path>
<path fill="#455a64" style="fill: var(--color10, #455a64)" d="M14.997 5.179l7.854-4.501c0.173-0.099 0.316-0.037 0.344 0.136-0.016-0.109-0.055-0.213-0.114-0.305s-0.138-0.172-0.23-0.232l-0.285-0.16c-0.108-0.055-0.228-0.083-0.35-0.083s-0.241 0.028-0.35 0.083l-7.854 4.499c-0.103 0.064-0.188 0.153-0.247 0.259l0.985 0.562c0.059-0.105 0.144-0.193 0.247-0.257v0z"></path>
<path fill="#263238" style="fill: var(--color11, #263238)" d="M13.662 22.482c0.006 0.121 0.042 0.238 0.102 0.343s0.146 0.193 0.248 0.259l0.285 0.16c0.099 0.049 0.207 0.077 0.317 0.082s0.22-0.014 0.323-0.054c-0.162 0.062-0.29-0.030-0.29-0.229v-17.266c0.004-0.121 0.039-0.239 0.103-0.343l-0.985-0.562c-0.063 0.104-0.098 0.222-0.103 0.343v17.266z"></path>
<path fill="#fafafa" style="fill: var(--color12, #fafafa)" d="M15.185 7.329l7.478-4.286c0.116-0.067 0.21-0.013 0.21 0.12v13.072c-0.004 0.072-0.025 0.143-0.062 0.205s-0.087 0.116-0.148 0.156l-7.478 4.285c-0.116 0.067-0.21 0.013-0.21-0.12v-13.071c0.004-0.072 0.025-0.143 0.061-0.206s0.088-0.116 0.149-0.156z"></path>
<path fill="#263238" style="fill: var(--color11, #263238)" d="M18.845 3.598c-0.036 0.023-0.065 0.055-0.087 0.091s-0.034 0.078-0.036 0.12c0 0.080 0.055 0.11 0.123 0.071 0.036-0.023 0.066-0.054 0.087-0.091s0.034-0.078 0.036-0.121c0-0.078-0.055-0.109-0.123-0.071z"></path>
<path fill="#263238" style="fill: var(--color11, #263238)" d="M17.682 4.84c-0.071 0.047-0.13 0.11-0.172 0.183s-0.066 0.156-0.070 0.24c0 0.156 0.11 0.219 0.242 0.141 0.072-0.046 0.131-0.109 0.174-0.183s0.068-0.156 0.072-0.241c0-0.156-0.111-0.219-0.246-0.141z"></path>
<path fill="#263238" style="fill: var(--color11, #263238)" d="M18.284 4.787c0 0.104 0.081 0.144 0.175 0.088l1.616-0.928c0.050-0.031 0.092-0.074 0.122-0.124s0.048-0.107 0.052-0.165c0-0.103-0.081-0.143-0.174-0.087l-1.616 0.928c-0.050 0.031-0.092 0.073-0.122 0.123s-0.049 0.106-0.053 0.165z"></path>
<path fill="#37474f" style="fill: var(--color5, #37474f)" d="M14.207 7.846c0.057 0.037 0.105 0.087 0.14 0.146s0.054 0.125 0.058 0.193c0 0.124-0.088 0.175-0.197 0.113-0.057-0.037-0.105-0.088-0.139-0.146s-0.054-0.125-0.057-0.193c0.002-0.124 0.088-0.174 0.196-0.112z"></path>
<path fill="#37474f" style="fill: var(--color5, #37474f)" d="M14.207 9.352c0.057 0.037 0.105 0.087 0.139 0.146s0.054 0.125 0.058 0.193c0 0.125-0.088 0.176-0.197 0.113-0.056-0.037-0.103-0.086-0.137-0.145s-0.054-0.123-0.058-0.19c0-0.128 0.086-0.179 0.195-0.117z"></path>
<path fill="#455a64" style="fill: var(--color10, #455a64)" d="M14.146 7.875c0.057 0.037 0.105 0.087 0.139 0.146s0.054 0.125 0.058 0.193c0 0.125-0.088 0.176-0.197 0.113-0.057-0.037-0.105-0.087-0.139-0.146s-0.054-0.125-0.058-0.193c0-0.124 0.089-0.175 0.197-0.113z"></path>
<path fill="#455a64" style="fill: var(--color10, #455a64)" d="M14.146 9.382c0.057 0.037 0.105 0.087 0.139 0.146s0.054 0.125 0.058 0.193c0 0.125-0.088 0.176-0.197 0.113-0.057-0.037-0.105-0.087-0.139-0.146s-0.054-0.125-0.058-0.193c0-0.125 0.089-0.176 0.197-0.113z"></path>
<path fill="#263238" style="fill: var(--color11, #263238)" d="M18.924 19.316c-0.141 0.092-0.259 0.215-0.343 0.36s-0.133 0.308-0.142 0.475c0 0.308 0.217 0.433 0.485 0.279 0.141-0.092 0.259-0.215 0.343-0.36s0.133-0.308 0.142-0.476c0.001-0.308-0.216-0.433-0.485-0.278z"></path>
<path fill="#fff" style="fill: var(--color4, #fff)" d="M16.735 20.695c-0.069 0-0.076-0.080-0.076-0.109v-13.071c0.004-0.065 0.023-0.129 0.056-0.185s0.079-0.105 0.133-0.141l7.478-4.286c0.022-0.013 0.048-0.021 0.074-0.022 0.069 0 0.076 0.075 0.076 0.108v13.072c-0.004 0.065-0.023 0.128-0.056 0.185s-0.079 0.105-0.133 0.141l-7.478 4.286c-0.022 0.014-0.047 0.022-0.074 0.023v0z"></path>
<path fill="#37474f" style="fill: var(--color5, #37474f)" d="M24.401 2.921c0.031 0 0.036 0.043 0.036 0.068v13.072c-0.004 0.058-0.022 0.115-0.051 0.165s-0.070 0.094-0.119 0.126l-7.478 4.286c-0.016 0.010-0.034 0.016-0.053 0.018-0.031 0-0.035-0.043-0.035-0.069v-13.071c0.004-0.058 0.021-0.115 0.051-0.165s0.070-0.094 0.119-0.126l7.478-4.286c0.016-0.010 0.034-0.017 0.053-0.018v0zM24.401 2.841c-0.033 0.001-0.065 0.011-0.094 0.028l-7.478 4.286c-0.061 0.040-0.112 0.093-0.149 0.156s-0.058 0.133-0.061 0.206v13.071c0 0.095 0.048 0.149 0.116 0.149 0.033-0.001 0.066-0.011 0.094-0.029l7.478-4.285c0.061-0.040 0.112-0.093 0.149-0.156s0.058-0.133 0.061-0.206v-13.072c0-0.094-0.048-0.148-0.116-0.148v0z"></path>
<path fill="#37474f" style="fill: var(--color5, #37474f)" d="M24.515 2.989c0-0.133-0.094-0.187-0.21-0.12l-7.478 4.286c-0.061 0.039-0.112 0.093-0.149 0.156s-0.058 0.133-0.061 0.206v1.071l7.898-4.526v-1.071z"></path>
<path fill="#000" style="fill: var(--color8, #000)" opacity="0.1" d="M24.515 2.989c0-0.133-0.094-0.187-0.21-0.12l-7.478 4.286c-0.061 0.039-0.112 0.093-0.149 0.156s-0.058 0.133-0.061 0.206v1.071l7.898-4.526v-1.071z"></path>
<path fill="#fff" style="fill: var(--color4, #fff)" d="M17.443 7.401c-0.013-0.005-0.028-0.007-0.042-0.005s-0.028 0.007-0.039 0.015c-0.042 0.027-0.076 0.064-0.101 0.107s-0.040 0.091-0.043 0.14c-0.002 0.014-0 0.029 0.005 0.042s0.015 0.025 0.026 0.033c0.013 0.005 0.028 0.007 0.042 0.005s0.028-0.008 0.039-0.016c0.041-0.027 0.076-0.064 0.101-0.107s0.039-0.091 0.043-0.14c0.002-0.014 0-0.029-0.005-0.042s-0.014-0.025-0.026-0.034z"></path>
<path fill="#fff" style="fill: var(--color4, #fff)" d="M17.614 7.128l-0.018 0.010v-0.036c0-0.051-0.035-0.071-0.081-0.046l-0.339 0.194c-0.023 0.015-0.043 0.035-0.057 0.059s-0.022 0.051-0.024 0.078v0.037l-0.019 0.010c-0.031 0.020-0.057 0.047-0.075 0.079s-0.029 0.067-0.031 0.104v0.327c0 0.067 0.048 0.096 0.107 0.062l0.536-0.307c0.031-0.020 0.057-0.047 0.075-0.079s0.029-0.068 0.031-0.105v-0.328c0.002-0.066-0.046-0.093-0.105-0.059zM17.362 7.776c-0.026 0.016-0.056 0.025-0.086 0.026-0.020 0-0.039-0.005-0.056-0.014-0.021-0.014-0.038-0.033-0.049-0.056s-0.016-0.048-0.014-0.073c0.003-0.060 0.020-0.119 0.050-0.171s0.073-0.096 0.124-0.128c0.020-0.015 0.045-0.024 0.070-0.026s0.051 0.003 0.073 0.014c0.021 0.014 0.038 0.033 0.049 0.056s0.015 0.048 0.013 0.073c-0.003 0.060-0.020 0.119-0.050 0.171s-0.073 0.096-0.123 0.129v0zM17.604 7.34c-0.027 0.015-0.049 0-0.049-0.029 0.001-0.017 0.006-0.034 0.014-0.048s0.020-0.027 0.035-0.037c0.027-0.016 0.050 0 0.050 0.028-0.001 0.017-0.005 0.034-0.013 0.048s-0.020 0.028-0.034 0.037h-0.003z"></path>
<path fill="#fff" style="fill: var(--color4, #fff)" d="M24.085 3.319l-0.523 0.299c-0.030 0.020-0.056 0.046-0.074 0.077s-0.029 0.066-0.031 0.102v0.321c0 0.065 0.047 0.092 0.104 0.059l0.311-0.178 0.122 0.121c0.003 0.003 0.006 0.004 0.010 0.005s0.008 0 0.011-0.001 0.007-0.004 0.009-0.007c0.002-0.003 0.003-0.007 0.003-0.011v-0.197l0.056-0.032c0.031-0.019 0.056-0.046 0.075-0.077s0.029-0.066 0.032-0.102v-0.321c0-0.065-0.049-0.091-0.107-0.059z"></path>
<path fill="#37474f" style="fill: var(--color5, #37474f)" d="M17.626 8.395c0.273-0.154 0.494-0.029 0.494 0.281-0.010 0.169-0.060 0.334-0.146 0.481s-0.205 0.271-0.349 0.363c-0.274 0.16-0.495 0.031-0.495-0.281 0.009-0.17 0.059-0.335 0.145-0.481s0.206-0.271 0.35-0.363v0z"></path>
<path fill="#37474f" style="fill: var(--color5, #37474f)" d="M18.61 8.017l1.641-0.94c0.097-0.055 0.175-0.016 0.175 0.087-0.004 0.058-0.022 0.115-0.053 0.165s-0.072 0.093-0.122 0.124l-1.641 0.94c-0.096 0.055-0.175 0.016-0.175-0.087 0.004-0.058 0.022-0.115 0.053-0.165s0.072-0.093 0.122-0.124z"></path>
<path fill="#fff" style="fill: var(--color4, #fff)" opacity="0.48999999999999994" d="M18.61 8.017l1.641-0.94c0.097-0.055 0.175-0.016 0.175 0.087-0.004 0.058-0.022 0.115-0.053 0.165s-0.072 0.093-0.122 0.124l-1.641 0.94c-0.096 0.055-0.175 0.016-0.175-0.087 0.004-0.058 0.022-0.115 0.053-0.165s0.072-0.093 0.122-0.124z"></path>
<path fill="#37474f" style="fill: var(--color5, #37474f)" d="M18.555 8.684l1.125-0.642c0.066-0.038 0.12-0.011 0.12 0.060-0.003 0.040-0.015 0.079-0.036 0.113s-0.049 0.064-0.084 0.085l-1.125 0.642c-0.066 0.038-0.12 0.010-0.12-0.061 0.003-0.040 0.015-0.079 0.036-0.113s0.049-0.063 0.084-0.085z"></path>
<path fill="#fff" style="fill: var(--color4, #fff)" opacity="0.48999999999999994" d="M18.555 8.684l1.125-0.642c0.066-0.038 0.12-0.011 0.12 0.060-0.003 0.040-0.015 0.079-0.036 0.113s-0.049 0.064-0.084 0.085l-1.125 0.642c-0.066 0.038-0.12 0.010-0.12-0.061 0.003-0.040 0.015-0.079 0.036-0.113s0.049-0.063 0.084-0.085z"></path>
<path fill="#37474f" style="fill: var(--color5, #37474f)" d="M17.626 16.832c0.273-0.154 0.494-0.028 0.494 0.281-0.010 0.169-0.060 0.334-0.146 0.481s-0.205 0.271-0.349 0.363c-0.274 0.16-0.495 0.031-0.495-0.281 0.009-0.17 0.059-0.335 0.145-0.481s0.206-0.271 0.35-0.363z"></path>
<path fill="#37474f" style="fill: var(--color5, #37474f)" d="M18.61 16.454l1.641-0.941c0.097-0.055 0.175-0.016 0.175 0.088-0.004 0.058-0.022 0.115-0.053 0.165s-0.072 0.092-0.122 0.124l-1.641 0.941c-0.096 0.055-0.175 0.016-0.175-0.088 0.004-0.058 0.022-0.115 0.053-0.165s0.072-0.092 0.122-0.123z"></path>
<path fill="#fff" style="fill: var(--color4, #fff)" opacity="0.48999999999999994" d="M18.61 16.454l1.641-0.941c0.097-0.055 0.175-0.016 0.175 0.088-0.004 0.058-0.022 0.115-0.053 0.165s-0.072 0.092-0.122 0.124l-1.641 0.941c-0.096 0.055-0.175 0.016-0.175-0.088 0.004-0.058 0.022-0.115 0.053-0.165s0.072-0.092 0.122-0.123z"></path>
<path fill="#37474f" style="fill: var(--color5, #37474f)" d="M18.555 17.12l1.125-0.642c0.066-0.038 0.12-0.011 0.12 0.060-0.003 0.040-0.015 0.079-0.036 0.113s-0.049 0.064-0.084 0.085l-1.125 0.642c-0.066 0.038-0.12 0.010-0.12-0.060 0.003-0.040 0.015-0.079 0.036-0.113s0.050-0.064 0.084-0.085v0z"></path>
<path fill="#fff" style="fill: var(--color4, #fff)" opacity="0.48999999999999994" d="M18.555 17.12l1.125-0.642c0.066-0.038 0.12-0.011 0.12 0.060-0.003 0.040-0.015 0.079-0.036 0.113s-0.049 0.064-0.084 0.085l-1.125 0.642c-0.066 0.038-0.12 0.010-0.12-0.060 0.003-0.040 0.015-0.079 0.036-0.113s0.050-0.064 0.084-0.085v0z"></path>
<path fill="#f5f5f5" style="fill: var(--color1, #f5f5f5)" d="M17.472 9.987l6.214-3.563c0.097-0.055 0.175-0.010 0.175 0.1v6.163c-0.003 0.060-0.021 0.119-0.051 0.172s-0.073 0.097-0.124 0.13l-6.214 3.583c-0.097 0.055-0.174 0.010-0.174-0.1v-6.185c0.003-0.060 0.020-0.119 0.051-0.171s0.073-0.097 0.124-0.13v0z"></path>
<path fill="#37474f" style="fill: var(--color5, #37474f)" d="M19.753 11.399c-0.016-0.023-0.038-0.041-0.063-0.053s-0.054-0.016-0.082-0.013c-0.028 0.003-0.055 0.014-0.077 0.031s-0.039 0.040-0.049 0.066l-2.181 4.115v0.928c0 0.111 0.081 0.156 0.175 0.1l6.214-3.565c0.051-0.033 0.093-0.078 0.124-0.13s0.048-0.111 0.051-0.172v-2.054l-1.18-2.082c-0.065-0.116-0.157-0.109-0.204 0.015l-1.571 4.136-1.154-1.323z"></path>
<path fill="#00564c" style="fill: var(--color13, #00564c)" opacity="0.09" d="M19.753 11.399c-0.016-0.023-0.038-0.041-0.063-0.053s-0.054-0.016-0.082-0.013c-0.028 0.003-0.055 0.014-0.077 0.031s-0.039 0.040-0.049 0.066l-2.181 4.115v0.928c0 0.111 0.081 0.156 0.175 0.1l6.214-3.565c0.051-0.033 0.093-0.078 0.124-0.13s0.048-0.111 0.051-0.172v-2.054l-1.18-2.082c-0.065-0.116-0.157-0.109-0.204 0.015l-1.571 4.136-1.154-1.323z"></path>
<path fill="#37474f" style="fill: var(--color5, #37474f)" d="M17.953 11.655c0.548-0.312 0.993-1.073 0.993-1.699 0-0.321-0.116-0.541-0.301-0.642l-1.172 0.672c-0.051 0.033-0.093 0.077-0.124 0.13s-0.048 0.111-0.051 0.171v1.456c0.174 0.078 0.403 0.054 0.655-0.088z"></path>
<path fill="#fff" style="fill: var(--color4, #fff)" opacity="0.36" d="M17.953 11.655c0.548-0.312 0.993-1.073 0.993-1.699 0-0.321-0.116-0.541-0.301-0.642l-1.172 0.672c-0.051 0.033-0.093 0.077-0.124 0.13s-0.048 0.111-0.051 0.171v1.456c0.174 0.078 0.403 0.054 0.655-0.088z"></path>
<path fill="#37474f" style="fill: var(--color5, #37474f)" d="M17.472 18.456l6.214-3.563c0.097-0.055 0.175-0.016 0.175 0.088-0.004 0.058-0.023 0.115-0.053 0.165s-0.072 0.092-0.122 0.123l-6.214 3.563c-0.097 0.055-0.174 0.016-0.174-0.088 0.004-0.058 0.022-0.115 0.052-0.165s0.072-0.092 0.122-0.123v0z"></path>
<path fill="#fff" style="fill: var(--color4, #fff)" opacity="0.36" d="M17.472 18.456l6.214-3.563c0.097-0.055 0.175-0.016 0.175 0.088-0.004 0.058-0.023 0.115-0.053 0.165s-0.072 0.092-0.122 0.123l-6.214 3.563c-0.097 0.055-0.174 0.016-0.174-0.088 0.004-0.058 0.022-0.115 0.052-0.165s0.072-0.092 0.122-0.123v0z"></path>
<path fill="#37474f" style="fill: var(--color5, #37474f)" d="M17.472 19.208l6.214-3.561c0.097-0.055 0.175-0.016 0.175 0.088-0.004 0.058-0.023 0.115-0.053 0.165s-0.072 0.092-0.122 0.123l-6.214 3.563c-0.097 0.055-0.174 0.016-0.174-0.088 0.004-0.059 0.022-0.116 0.052-0.166s0.072-0.093 0.123-0.124v0z"></path>
<path fill="#fff" style="fill: var(--color4, #fff)" opacity="0.36" d="M17.472 19.208l6.214-3.561c0.097-0.055 0.175-0.016 0.175 0.088-0.004 0.058-0.023 0.115-0.053 0.165s-0.072 0.092-0.122 0.123l-6.214 3.563c-0.097 0.055-0.174 0.016-0.174-0.088 0.004-0.059 0.022-0.116 0.052-0.166s0.072-0.093 0.123-0.124v0z"></path>
<path fill="#fafafa" style="fill: var(--color12, #fafafa)" d="M18.43 6.633l4.433-2.54c0.136-0.080 0.242-0.014 0.242 0.14-0.004 0.084-0.028 0.166-0.070 0.239s-0.101 0.135-0.172 0.181l-4.432 2.532c-0.136 0.080-0.242 0.016-0.242-0.136 0.005-0.083 0.029-0.165 0.071-0.237s0.1-0.134 0.171-0.18v0z"></path>
<path fill="#f28f8f" style="fill: var(--color14, #f28f8f)" d="M31.455 11.449l0.314 0.572-0.489 0.416-0.448-0.705 0.623-0.283z"></path>
<path fill="#e0e0e0" style="fill: var(--color15, #e0e0e0)" d="M30.275 10.174c0.312 0 0.655 0.116 0.773 0.359l0.485 0.998c0 0-0.276 0.401-0.712 0.372l-0.545-1.729z"></path>
<path fill="#37474f" style="fill: var(--color5, #37474f)" d="M31.43 12.11c0.091-0.168 0.114-0.177 0.168-0.213s0.387-0.086 0.525-0.098c0.162-0.014 0.221 0.016 0.175 0.155-0.124 0.35-0.277 0.69-0.456 1.016-0.044 0.057-0.052 0.11-0.235 0.128-0.17 0.016-0.385 0.026-0.448 0.029s-0.15 0.020-0.095-0.165c0.072-0.209 0.156-0.413 0.25-0.612 0.070-0.153 0.114-0.24 0.114-0.24z"></path>
<path fill="#263238" style="fill: var(--color11, #263238)" d="M27.79 17.787c-0.081-0.040-0.127 0.058-0.197 0.136-0.060 0.058-0.108 0.128-0.138 0.205-0.017 0.092 0.068 0.241 0.162 0.321s0.202 0.139 0.236 0.315c0.009 0.081 0.040 0.158 0.091 0.222s0.119 0.112 0.196 0.139c0.202 0.087 0.473 0.059 0.566 0 0.108-0.070 0.009-0.147-0.143-0.363-0.199-0.282-0.354-0.481-0.354-0.749l-0.418-0.227z"></path>
<path fill="#ffa8a7" style="fill: var(--color16, #ffa8a7)" d="M27.949 17.555l-0.162 0.241c-0.035 0.049-0.049 0.11-0.038 0.169s0.044 0.112 0.093 0.147l0.005 0.004c0.050 0.029 0.108 0.040 0.165 0.032s0.109-0.037 0.148-0.080l0.255-0.276-0.466-0.236z"></path>
<path fill="#37474f" style="fill: var(--color5, #37474f)" d="M30.95 12.914c0.010 0.303-0.076 1.529-0.287 2.070s-0.333 0.879-0.399 0.992c-0.066 0.113-1.978 1.96-1.978 1.96s-0.323-0.023-0.376-0.335c0 0 0.783-1.322 0.953-1.594s0.771-0.687 0.771-0.687l-0.055-2.372 1.371-0.035z"></path>
<path fill="#ffa8a7" style="fill: var(--color16, #ffa8a7)" d="M28.118 12.619c0-0.052 0.162-0.652 0.242-0.928l0.592 0.202-0.139 0.437-0.521 0.535c-0.055-0.011-0.104-0.042-0.137-0.088s-0.046-0.102-0.038-0.157v0z"></path>
<path fill="#ffa8a7" style="fill: var(--color16, #ffa8a7)" d="M30.529 19.369l0.404-0.091-0.134-0.584-0.404 0.091 0.134 0.584z"></path>
<path fill="#37474f" style="fill: var(--color5, #37474f)" d="M30.95 12.914h-1.939c-0.042 0.281-0.067 0.565-0.073 0.849-0.015 0.834 0.767 2.35 0.767 2.35-0.038 0.337-0.021 0.678 0.050 1.010 0.171 0.664 0.638 1.79 0.638 1.79s0.293 0.041 0.438-0.127c0 0-0.259-2.284-0.328-2.869-0.075-0.634-0.269-1.79-0.269-1.79 0.128-0.127 0.244-0.265 0.347-0.412 0.18-0.238 0.306-0.512 0.368-0.802z"></path>
<path fill="#11b5e4" style="fill: var(--color7, #11b5e4)" d="M29.635 10.191c-0.372 0.089-0.878 0.205-1.024 0.604s-0.357 1.108-0.357 1.108c0.081 0.14 0.529 0.257 0.685 0.176l0.073-0.241v1.074c0.291 0.314 1.304 0.46 1.939 0v-2.006c0-0.321-0.179-0.706-0.675-0.734l-0.641 0.019z"></path>
<path fill="#e0e0e0" style="fill: var(--color15, #e0e0e0)" d="M29.012 11.841l0.187-0.583-0.187 0.844v-0.261z"></path>
<path fill="#263238" style="fill: var(--color11, #263238)" d="M29.495 8.552c-0.033-0.004-0.067 0-0.099 0.011s-0.060 0.029-0.084 0.053c-0.081 0.080-0.062 0.227 0 0.566l0.242 0.027-0.060-0.658z"></path>
<path fill="#263238" style="fill: var(--color11, #263238)" d="M30.91 8.454c0.051 0.001 0.101-0.009 0.149-0.028 0.074-0.043 0.094 0.042 0.052 0.115-0.027 0.052-0.067 0.097-0.116 0.13s-0.106 0.052-0.165 0.057c0-0.010-0.069-0.189-0.069-0.189l0.149-0.084z"></path>
<path fill="#ffa8a7" style="fill: var(--color16, #ffa8a7)" d="M29.609 9.21c-0.036 0.022-0.087-0.047-0.132-0.093-0.017-0.020-0.040-0.035-0.064-0.044s-0.052-0.012-0.078-0.007-0.051 0.015-0.072 0.031c-0.021 0.016-0.037 0.038-0.047 0.062-0.074 0.154 0.094 0.359 0.192 0.427 0.027 0.024 0.061 0.038 0.098 0.041s0.072-0.005 0.104-0.024l0.026 0.59c0.044 0.094 0.11 0.177 0.193 0.24s0.181 0.104 0.284 0.121c0.349 0.046 0.277-0.241 0.162-0.379v-0.214c0.087 0.018 0.177 0.023 0.266 0.013 0.045-0.012 0.154-0.142 0.224-0.288 0.149-0.292 0.182-0.63 0.093-0.945-0.125-0.528-0.696-0.544-1.037-0.331s-0.211 0.802-0.211 0.802z"></path>
<path fill="#263238" style="fill: var(--color11, #263238)" d="M29.609 9.27c-0.018 0-0.086-0.113-0.132-0.153-0.062-0.056 0.018-0.562 0.018-0.562-0.017-0.054-0.021-0.112-0.010-0.168s0.035-0.108 0.071-0.153c0.123-0.128 0.36-0.107 0.534-0.112 0.214 0.001 0.425-0.041 0.622-0.124 0.247-0.107 0.266-0.119 0.296-0.011 0.024 0.089 0.027 0.182 0.009 0.272s-0.057 0.175-0.114 0.248l-0.081 0.13c0 0-0.075 0.063-0.305 0.091s-0.623-0.095-0.672-0.102c-0.067-0.009-0.081 0.055-0.117 0.231-0.031 0.152-0.056 0.413-0.118 0.414z"></path>
<path fill="#263238" style="fill: var(--color11, #263238)" d="M29.496 8.592l-0.218-0.116c0.007-0.014 0.017-0.027 0.029-0.037s0.026-0.018 0.041-0.023c0.015-0.005 0.031-0.007 0.047-0.006s0.031 0.005 0.046 0.012c0.030 0.016 0.053 0.042 0.063 0.074s0.008 0.067-0.007 0.097v0z"></path>
<path fill="#f28f8f" style="fill: var(--color14, #f28f8f)" d="M30.274 9.96c-0.149-0.028-0.294-0.070-0.436-0.124-0.066-0.035-0.12-0.088-0.156-0.153 0.017 0.066 0.047 0.127 0.089 0.181 0.081 0.105 0.503 0.182 0.503 0.182v-0.085z"></path>
<path fill="#263238" style="fill: var(--color11, #263238)" d="M30.285 9.199c0 0.017-0.006 0.034-0.019 0.046s-0.029 0.020-0.046 0.020c-0.009-0-0.017-0.002-0.025-0.006s-0.015-0.009-0.021-0.015c-0.006-0.006-0.011-0.014-0.014-0.022s-0.005-0.017-0.004-0.025c-0-0.017 0.006-0.034 0.019-0.046s0.029-0.020 0.046-0.020c0.009 0 0.017 0.002 0.025 0.006s0.015 0.009 0.021 0.015c0.006 0.006 0.011 0.014 0.014 0.022s0.005 0.017 0.004 0.025v0z"></path>
<path fill="#263238" style="fill: var(--color11, #263238)" d="M30.216 8.955l-0.138 0.080c-0.005-0.009-0.009-0.020-0.010-0.030s-0-0.021 0.003-0.032c0.003-0.010 0.008-0.020 0.015-0.028s0.015-0.015 0.025-0.020c0.018-0.009 0.039-0.011 0.059-0.006s0.036 0.018 0.047 0.036z"></path>
<path fill="#f28f8f" style="fill: var(--color14, #f28f8f)" d="M30.245 9.629l0.148 0.055c-0.007 0.019-0.022 0.035-0.040 0.044s-0.040 0.010-0.060 0.004c-0.010-0.004-0.019-0.009-0.027-0.016s-0.014-0.016-0.019-0.025c-0.004-0.010-0.007-0.020-0.007-0.031s0.001-0.021 0.005-0.031v0z"></path>
<path fill="#263238" style="fill: var(--color11, #263238)" d="M30.862 9.009l-0.126-0.096c0.013-0.016 0.031-0.027 0.052-0.030s0.041 0.002 0.058 0.013c0.009 0.006 0.016 0.014 0.021 0.023s0.009 0.019 0.011 0.030 0.001 0.021-0.002 0.032c-0.003 0.010-0.007 0.020-0.014 0.028v0z"></path>
<path fill="#263238" style="fill: var(--color11, #263238)" d="M30.823 9.18c0 0.017-0.006 0.034-0.019 0.046s-0.029 0.020-0.046 0.020c-0.009-0-0.017-0.002-0.025-0.006s-0.015-0.009-0.021-0.015c-0.006-0.006-0.011-0.014-0.014-0.022s-0.005-0.017-0.004-0.025c-0-0.017 0.006-0.034 0.019-0.046s0.029-0.020 0.046-0.020c0.018 0.001 0.034 0.008 0.046 0.021s0.019 0.029 0.018 0.047v0z"></path>
<path fill="#f28f8f" style="fill: var(--color14, #f28f8f)" d="M30.518 9.172l-0.061 0.382 0.212-0.025-0.152-0.357z"></path>
<path fill="#263238" style="fill: var(--color11, #263238)" d="M30.887 19.083l-0.013-0.058c0.042 0.008 0.224 0.307 0.404 0.437 0.197 0.142 0.368 0.226 0.456 0.29 0.118 0.086-0.052 0.262-0.343 0.278-0.144 0.007-0.404-0.036-0.485-0.112s-0.139-0.202-0.204-0.257c-0.065-0.055-0.193-0.103-0.237-0.172-0.024-0.069-0.032-0.143-0.025-0.216 0-0.075 0.006-0.16 0.032-0.156l0.010 0.043c0.075 0.038 0.158 0.056 0.242 0.054 0.070-0.003 0.197-0.018 0.163-0.131z"></path>
<path fill="#263238" style="fill: var(--color11, #263238)" d="M30.453 15.529c0 0-0.172-1.214-0.218-1.402 0.138-0.075 0.267-0.166 0.383-0.272-0.080 0.114-0.168 0.222-0.262 0.325l0.097 1.349z"></path>
<path fill="#263238" style="fill: var(--color11, #263238)" d="M29.415 15.487c0 0 0.207 0.511 0.291 0.624 0 0-0.021 0.39-0.019 0.469l-0.108 0.094c-0.003-0.176 0.013-0.353 0.048-0.526-0.095-0.212-0.166-0.434-0.212-0.661z"></path>
<path fill="#ffa8a7" style="fill: var(--color16, #ffa8a7)" d="M28.816 12.329c0 0 1.63 0.173 1.821 0.115s0.448-0.247 0.583-0.327c0.135-0.080 0.238-0.085 0.238-0.052s-0.118 0.212-0.145 0.286c-0.027 0.075 0.127 0.075 0.33 0.028s0.284-0.16 0.336-0.095c0.053 0.066-0.112 0.401-0.448 0.527s-0.586 0.042-0.864 0.054c-0.278 0.012-1.99 0.12-2.375 0-0.010-0.061-0.003-0.124 0.020-0.182s0.063-0.108 0.113-0.145c0.116-0.093 0.249-0.164 0.391-0.209v0z"></path>
<path fill="#ffa8a7" style="fill: var(--color16, #ffa8a7)" d="M19.782 20.060c0.004-0.052 0.103-0.614 0.171-0.928l0.665 0.202-0.107 0.441-0.553 0.531c-0.056-0.010-0.105-0.042-0.138-0.087s-0.047-0.102-0.039-0.158v0z"></path>
<path fill="#263238" style="fill: var(--color11, #263238)" d="M21.239 15.305h0.323c0.238 0 0.467 0.094 0.636 0.262s0.263 0.395 0.263 0.632v2.276h-2.122v-2.276c0-0.237 0.095-0.464 0.263-0.631s0.397-0.262 0.636-0.262z"></path>
<path fill="#f28f8f" style="fill: var(--color14, #f28f8f)" d="M22.998 18.88l0.314 0.572-0.49 0.416-0.448-0.705 0.623-0.282z"></path>
<path fill="#455a64" style="fill: var(--color10, #455a64)" d="M21.819 17.604c0.312 0 0.655 0.116 0.773 0.359l0.485 0.998c0 0-0.276 0.401-0.712 0.373l-0.545-1.73z"></path>
<path fill="#263238" style="fill: var(--color11, #263238)" d="M22.071 27.503c0.107 0.143 0.228 0.275 0.36 0.395 0.021 0.017 0.038 0.039 0.049 0.063 0.014 0.042 0.032 0.142-0.155 0.183-0.095 0.020-0.193 0.021-0.287 0s-0.184-0.061-0.261-0.118c-0.137-0.109-0.12-0.301-0.246-0.427-0.094-0.092-0.221-0.128-0.291-0.241-0.049-0.080-0.023-0.176 0.022-0.294s0.076-0.225 0.119-0.21l-0.015 0.059c0.044 0.094 0.323 0.153 0.46 0.108 0.073 0.164 0.155 0.325 0.246 0.481z"></path>
<path fill="#ffa8a7" style="fill: var(--color16, #ffa8a7)" d="M22.181 27.641c-0.038-0.044-0.075-0.089-0.11-0.138-0.072-0.118-0.136-0.241-0.192-0.367-0.036-0.075-0.043-0.161-0.018-0.241l0.092-0.309-0.485-0.111-0.105 0.433c-0.023 0.099 0.049 0.197 0.181 0.339s0.284 0.457 0.404 0.546c0.12 0.089 0.219 0.098 0.28 0.067s0.077-0.059-0.048-0.221z"></path>
<path fill="#263238" style="fill: var(--color11, #263238)" d="M20.767 27.775v-0.068c0.027 0.080 0.152 0.422 0.341 0.594 0.151 0.136 0.356 0.294 0.408 0.445s-0.285 0.211-0.426 0.186c-0.188-0.031-0.36-0.123-0.49-0.261-0.081-0.099-0.132-0.216-0.191-0.294s-0.191-0.16-0.221-0.254c-0.010-0.084-0.001-0.169 0.027-0.249 0.023-0.080 0.046-0.176 0.075-0.169v0.056c0.069 0.053 0.155 0.082 0.242 0.080 0.066 0 0.235-0.015 0.234-0.068z"></path>
<path fill="#ffa8a7" style="fill: var(--color16, #ffa8a7)" d="M21.244 28.42l-0.137-0.12c-0.127-0.133-0.225-0.29-0.291-0.461-0.033-0.079-0.050-0.164-0.050-0.25v-0.27h-0.477v0.452c0.023 0.099 0.242 0.36 0.366 0.531 0.101 0.147 0.256 0.249 0.431 0.286 0.182 0.024 0.276-0.032 0.157-0.167z"></path>
<path fill="#37474f" style="fill: var(--color5, #37474f)" d="M20.385 20.413c-0.369 0.802 0.014 3.628 0.014 3.628-0.011 0.131-0.162 0.387-0.216 0.963-0.066 0.677 0.103 2.377 0.103 2.377 0.073 0.043 0.155 0.067 0.24 0.070s0.169-0.014 0.245-0.051c0 0 0.455-2.56 0.54-3.234l0.273-2.16 0.404 2.108c-0.108 0.165-0.197 0.342-0.267 0.526-0.096 0.298-0.291 1.994-0.291 1.994 0.066 0.060 0.144 0.104 0.23 0.128s0.175 0.030 0.263 0.015c0 0 0.933-2.327 0.975-2.802 0.025-0.285-0.393-3.677-0.393-3.677l-2.12 0.114z"></path>
<path fill="#263238" style="fill: var(--color11, #263238)" d="M21.58 22.002l0.065-0.464c0 0 0.508-0.104 0.738-0.321-0.159 0.185-0.367 0.322-0.6 0.396l-0.068 0.448 0.081 1.037-0.216-1.097z"></path>
<path fill="#f03e3d" style="fill: var(--color17, #f03e3d)" d="M21.041 17.626c-0.136 0.033-0.263 0.096-0.371 0.184s-0.195 0.199-0.255 0.325c-0.087 0.192-0.095 0.409-0.023 0.607l0.326 0.949c0 0-0.154 0.372-0.334 0.722 0.83 0.46 1.865 0.218 2.114-0.117 0.010-0.071-0.004-0.392 0.016-0.757 0.021-0.389 0.075-0.829 0.014-1.069-0.115-0.447-0.329-0.866-0.755-0.866l-0.732 0.022z"></path>
<path fill="#455a64" style="fill: var(--color10, #455a64)" d="M20.914 17.626c-0.283 0.039-0.698 0.096-0.842 0.764s-0.187 0.912-0.187 0.912c0.092 0.090 0.202 0.16 0.323 0.206s0.249 0.066 0.379 0.061l0.146-0.514 0.181-1.429z"></path>
<path fill="#263238" style="fill: var(--color11, #263238)" d="M21.075 18.189c-0.049 0-0.097-0.010-0.142-0.028s-0.086-0.046-0.121-0.080-0.062-0.075-0.081-0.12c-0.019-0.045-0.028-0.093-0.028-0.141v-1.074h0.372v1.444z"></path>
<path fill="#ffa8a7" style="fill: var(--color16, #ffa8a7)" d="M22.114 15.732c0.112 0.066 0.25 0.346 0.237 0.932-0.011 0.497-0.174 0.621-0.255 0.656s-0.238 0.014-0.391-0.012v0.298c0 0 0.211 0.241 0.198 0.381s-0.305 0.169-0.503 0.035c-0.128-0.092-0.237-0.206-0.323-0.337v-0.722c-0.016 0.020-0.036 0.036-0.058 0.048s-0.047 0.019-0.072 0.022c-0.025 0.002-0.051-0-0.075-0.008s-0.047-0.020-0.066-0.036c-0.169-0.111-0.175-0.387-0.077-0.481s0.309-0.067 0.349 0.069c0.2-0.009 0.394-0.067 0.566-0.169 0.127-0.068 0.236-0.164 0.318-0.282s0.135-0.253 0.154-0.395v0z"></path>
<path fill="#263238" style="fill: var(--color11, #263238)" d="M21.791 16.54c0 0.012-0.003 0.024-0.010 0.035s-0.016 0.018-0.028 0.023c-0.011 0.005-0.024 0.006-0.036 0.004s-0.023-0.008-0.032-0.016-0.015-0.019-0.018-0.031c-0.003-0.012-0.002-0.024 0.002-0.036s0.012-0.022 0.022-0.029 0.022-0.012 0.034-0.012c0.009-0 0.017 0.001 0.025 0.004s0.015 0.007 0.021 0.013 0.011 0.013 0.015 0.020c0.003 0.008 0.005 0.016 0.006 0.024v0z"></path>
<path fill="#f28f8f" style="fill: var(--color14, #f28f8f)" d="M21.808 16.961l0.146 0.047c-0.003 0.010-0.007 0.019-0.013 0.027s-0.014 0.015-0.023 0.020c-0.009 0.005-0.019 0.008-0.029 0.009s-0.020-0-0.030-0.003c-0.020-0.007-0.036-0.021-0.045-0.039s-0.011-0.040-0.006-0.059v0z"></path>
<path fill="#263238" style="fill: var(--color11, #263238)" d="M22.308 16.347l-0.127-0.087c0.005-0.009 0.012-0.016 0.021-0.022s0.018-0.010 0.028-0.012c0.010-0.002 0.020-0.002 0.030 0s0.019 0.006 0.028 0.012c0.017 0.012 0.029 0.030 0.032 0.050s-0 0.041-0.012 0.059v0z"></path>
<path fill="#263238" style="fill: var(--color11, #263238)" d="M22.278 16.494c0.001 0.017-0.005 0.034-0.016 0.046s-0.027 0.021-0.044 0.022c-0.017 0-0.033-0.006-0.046-0.018s-0.020-0.027-0.021-0.044c-0-0.008 0.001-0.016 0.004-0.024s0.007-0.015 0.013-0.021c0.006-0.006 0.012-0.011 0.020-0.015s0.016-0.006 0.024-0.006 0.017 0.001 0.024 0.003c0.008 0.003 0.015 0.007 0.021 0.012s0.011 0.012 0.015 0.020c0.004 0.007 0.006 0.015 0.006 0.024v0z"></path>
<path fill="#f28f8f" style="fill: var(--color14, #f28f8f)" d="M21.981 16.458l0.011 0.376 0.2-0.062-0.21-0.315z"></path>
<path fill="#f28f8f" style="fill: var(--color14, #f28f8f)" d="M21.704 17.308c-0.162-0.021-0.493-0.116-0.545-0.246 0.021 0.066 0.061 0.124 0.116 0.166 0.099 0.084 0.428 0.18 0.428 0.18v-0.1z"></path>
<path fill="#37474f" style="fill: var(--color5, #37474f)" d="M22.973 19.54c0.091-0.169 0.114-0.176 0.169-0.213s0.387-0.087 0.525-0.099c0.162-0.014 0.221 0.016 0.175 0.156-0.126 0.35-0.279 0.689-0.459 1.015-0.044 0.058-0.052 0.111-0.235 0.128s-0.385 0.026-0.448 0.030c-0.063 0.004-0.15 0.019-0.094-0.165 0.072-0.208 0.155-0.413 0.25-0.612 0.074-0.152 0.117-0.24 0.117-0.24z"></path>
<path fill="#ffa8a7" style="fill: var(--color16, #ffa8a7)" d="M20.512 19.778c0 0 1.478 0.155 1.669 0.096s0.448-0.249 0.587-0.327c0.138-0.079 0.237-0.085 0.237-0.053s-0.118 0.213-0.145 0.286c-0.027 0.074 0.128 0.075 0.33 0.028s0.284-0.16 0.337-0.095c0.053 0.066-0.112 0.401-0.448 0.527s-0.586 0.043-0.864 0.054c-0.278 0.011-1.87 0.135-2.255 0.014-0.010-0.061-0.003-0.124 0.020-0.182s0.063-0.108 0.113-0.145c0.125-0.095 0.267-0.165 0.419-0.205z"></path>
<path fill="#37474f" style="fill: var(--color5, #37474f)" d="M20.618 19.401c0.063-0.17 0.117-0.344 0.162-0.521 0 0-0.027 0.387-0.137 0.595l-0.025-0.075z"></path>
<path fill="#f28f8f" style="fill: var(--color14, #f28f8f)" d="M8.662 14.629l-0.263 0.563 0.489 0.416 0.423-0.709-0.649-0.27z"></path>
<path fill="#37474f" style="fill: var(--color5, #37474f)" d="M9.868 13.341c-0.312 0-0.655 0.116-0.773 0.359s-0.485 0.999-0.485 0.999 0.275 0.401 0.713 0.372l0.545-1.73z"></path>
<path fill="#ffa8a7" style="fill: var(--color16, #ffa8a7)" d="M11.22 22.278h-0.431v0.623h0.431v-0.623z"></path>
<path fill="#ffa8a7" style="fill: var(--color16, #ffa8a7)" d="M9.703 21.507l-0.431 0.015 0.022 0.623 0.431-0.015-0.022-0.623z"></path>
<path fill="#37474f" style="fill: var(--color5, #37474f)" d="M11.191 16.191c0 0.409 0.053 3.054 0.053 3.054 0.010 0.117 0.121 0.335 0.097 0.786-0.032 0.614-0.086 2.319-0.086 2.319s-0.202 0.199-0.485 0c0 0-0.391-2.317-0.468-2.925-0.068-0.53-0.182-1.972-0.182-1.972l-0.4 1.697c0 0 0.070 0.401 0.086 0.68s-0.074 1.909-0.074 1.909c-0.070 0.043-0.15 0.068-0.232 0.071s-0.164-0.015-0.237-0.053c0 0-0.346-2.377-0.39-2.631s0.303-2.934 0.303-2.934h2.013z"></path>
<path fill="#02897a" style="fill: var(--color3, #02897a)" d="M10.542 13.36h0.006c0.185 0.046 0.349 0.153 0.466 0.302s0.181 0.334 0.18 0.523v2.006c-0.302 0.327-1.356 0.481-2.020 0v-2.086c0-0.333 0.187-0.734 0.701-0.764l0.666 0.018z"></path>
<path fill="#263238" style="fill: var(--color11, #263238)" d="M10.688 11.653c0.035-0.004 0.070 0 0.103 0.012s0.063 0.030 0.087 0.055c0.081 0.080 0.065 0.237 0 0.589l-0.252 0.029 0.062-0.684z"></path>
<path fill="#263238" style="fill: var(--color11, #263238)" d="M9.216 11.555c-0.054 0-0.108-0.010-0.158-0.031-0.081-0.044-0.098 0.043-0.056 0.119 0.028 0.054 0.070 0.101 0.121 0.135s0.111 0.054 0.172 0.059c0-0.010 0.072-0.195 0.072-0.195l-0.152-0.086z"></path>
<path fill="#ffa8a7" style="fill: var(--color16, #ffa8a7)" d="M10.569 12.338c0.038 0.022 0.091-0.049 0.137-0.097 0.018-0.021 0.041-0.037 0.067-0.046s0.054-0.012 0.081-0.008c0.027 0.004 0.053 0.016 0.075 0.033s0.039 0.040 0.049 0.065c0.081 0.161-0.098 0.374-0.2 0.444-0.029 0.025-0.064 0.040-0.102 0.043s-0.075-0.005-0.108-0.025l-0.027 0.613c-0.045 0.098-0.114 0.184-0.201 0.249s-0.188 0.108-0.296 0.125c-0.363 0.049-0.288-0.248-0.169-0.394v-0.223c-0.090 0.020-0.183 0.024-0.275 0.014-0.048-0.013-0.162-0.149-0.233-0.3-0.081-0.17-0.217-0.472-0.096-0.983 0.13-0.55 0.727-0.566 1.078-0.345s0.22 0.834 0.22 0.834z"></path>
<path fill="#263238" style="fill: var(--color11, #263238)" d="M10.569 12.4c0.019 0 0.090-0.117 0.137-0.161 0.065-0.059-0.019-0.587-0.019-0.587s0.065-0.2-0.062-0.333c-0.128-0.133-0.376-0.111-0.557-0.117-0.222 0.001-0.442-0.043-0.646-0.129-0.257-0.111-0.276-0.123-0.308-0.012-0.025 0.092-0.028 0.189-0.009 0.283s0.059 0.182 0.118 0.258l0.128 0.047c0 0 0.069 0.061 0.309 0.090 0.221 0.016 0.444 0.012 0.664-0.012 0.069-0.010 0.081 0.057 0.122 0.241 0.032 0.161 0.060 0.432 0.123 0.433z"></path>
<path fill="#263238" style="fill: var(--color11, #263238)" d="M10.687 11.695l0.227-0.121c-0.007-0.015-0.017-0.029-0.030-0.040s-0.027-0.020-0.043-0.025c-0.016-0.005-0.033-0.007-0.050-0.006s-0.033 0.006-0.048 0.014c-0.030 0.017-0.053 0.045-0.063 0.078s-0.008 0.069 0.008 0.1v0z"></path>
<path fill="#f28f8f" style="fill: var(--color14, #f28f8f)" d="M9.877 13.117c0.155-0.029 0.307-0.072 0.453-0.129 0.069-0.036 0.125-0.092 0.162-0.16-0.018 0.068-0.049 0.132-0.092 0.188-0.086 0.109-0.524 0.189-0.524 0.189l0.001-0.088z"></path>
<path fill="#263238" style="fill: var(--color11, #263238)" d="M9.958 12.254c0 0.013 0.005 0.026 0.012 0.037s0.018 0.019 0.031 0.024c0.012 0.005 0.026 0.006 0.039 0.003s0.025-0.010 0.034-0.019 0.016-0.022 0.018-0.035c0.002-0.013 0.001-0.027-0.004-0.039s-0.014-0.023-0.025-0.030c-0.011-0.007-0.024-0.011-0.038-0.011-0.018 0-0.035 0.008-0.048 0.021s-0.019 0.030-0.019 0.048z"></path>
<path fill="#263238" style="fill: var(--color11, #263238)" d="M10.029 12.002l0.145 0.080c0.010-0.020 0.012-0.042 0.006-0.064s-0.021-0.039-0.040-0.050c-0.009-0.005-0.020-0.008-0.031-0.009s-0.022-0-0.032 0.003-0.020 0.008-0.028 0.015c-0.008 0.007-0.015 0.015-0.020 0.025z"></path>
<path fill="#f28f8f" style="fill: var(--color14, #f28f8f)" d="M9.963 12.707l-0.153 0.058c0.003 0.010 0.009 0.020 0.016 0.028s0.016 0.015 0.025 0.020c0.010 0.005 0.020 0.007 0.031 0.008s0.022-0.001 0.032-0.005c0.021-0.008 0.038-0.024 0.047-0.044s0.010-0.043 0.002-0.064v0z"></path>
<path fill="#263238" style="fill: var(--color11, #263238)" d="M9.358 12.058l0.13-0.101c-0.006-0.009-0.014-0.016-0.023-0.022s-0.019-0.009-0.030-0.011c-0.011-0.002-0.022-0.001-0.032 0.002s-0.020 0.007-0.029 0.014c-0.017 0.014-0.029 0.034-0.032 0.056s0.003 0.044 0.016 0.062v0z"></path>
<path fill="#263238" style="fill: var(--color11, #263238)" d="M9.398 12.236c-0 0.018 0.007 0.035 0.019 0.048s0.030 0.020 0.048 0.021c0.018-0 0.036-0.008 0.048-0.021s0.020-0.031 0.020-0.049c0.001-0.009 0-0.019-0.003-0.028s-0.008-0.017-0.014-0.024c-0.006-0.007-0.014-0.013-0.023-0.017s-0.018-0.006-0.028-0.006-0.019 0.002-0.028 0.006c-0.009 0.004-0.017 0.009-0.023 0.017s-0.011 0.015-0.014 0.024c-0.003 0.009-0.004 0.019-0.003 0.028v0.001z"></path>
<path fill="#f28f8f" style="fill: var(--color14, #f28f8f)" d="M9.742 12.172l-0.023 0.402-0.211-0.071 0.233-0.331z"></path>
<path fill="#263238" style="fill: var(--color11, #263238)" d="M10.789 22.69v-0.062c-0.041 0.018-0.137 0.381-0.308 0.536-0.136 0.123-0.323 0.266-0.369 0.401s0.258 0.221 0.385 0.199c0.148-0.026 0.404-0.129 0.468-0.225s0.094-0.237 0.146-0.307c0.052-0.071 0.173-0.148 0.201-0.229 0.008-0.076-0-0.152-0.025-0.225-0.020-0.075-0.041-0.16-0.067-0.152 0 0.009 0 0.046 0 0.046-0.061 0.048-0.138 0.074-0.216 0.072-0.062 0.005-0.216-0.007-0.216-0.055z"></path>
<path fill="#263238" style="fill: var(--color11, #263238)" d="M9.29 22.012c-0.023 0-0.041 0.032-0.090 0.085-0.074 0.074-0.159 0.136-0.254 0.181-0.162 0.080-0.475 0.204-0.617 0.267-0.088 0.040-0.081 0.146 0.007 0.207s0.313 0.104 0.579 0.045c0.145-0.032 0.334-0.165 0.452-0.16s0.343 0.006 0.431-0.055c0.088-0.060 0.053-0.189 0.028-0.3s-0.066-0.305-0.107-0.297v0.038c-0.052 0.080-0.316 0.11-0.43 0.053v-0.064z"></path>
<path fill="#37474f" style="fill: var(--color5, #37474f)" d="M8.713 15.277c-0.091-0.169-0.114-0.177-0.169-0.213s-0.387-0.087-0.525-0.098c-0.162-0.014-0.221 0.016-0.175 0.155 0.125 0.35 0.277 0.69 0.456 1.016 0.044 0.057 0.053 0.11 0.235 0.128s0.385 0.026 0.448 0.030 0.15 0.019 0.094-0.165c-0.072-0.208-0.155-0.413-0.25-0.612-0.066-0.152-0.114-0.239-0.114-0.239z"></path>
<path fill="#ffa8a7" style="fill: var(--color16, #ffa8a7)" d="M12.025 15.786c-0.004-0.053-0.162-0.652-0.242-0.928l-0.591 0.202 0.139 0.436 0.52 0.535c0.055-0.011 0.104-0.042 0.136-0.088s0.046-0.102 0.038-0.157v0z"></path>
<path fill="#ffa8a7" style="fill: var(--color16, #ffa8a7)" d="M11.327 15.496c0 0-1.63 0.173-1.822 0.115s-0.448-0.249-0.587-0.327c-0.138-0.079-0.238-0.085-0.238-0.052s0.118 0.212 0.145 0.286c0.027 0.074-0.128 0.075-0.33 0.028s-0.284-0.161-0.337-0.095c-0.053 0.066 0.112 0.401 0.448 0.527s0.586 0.042 0.864 0.054c0.278 0.011 1.99 0.12 2.375 0 0.010-0.061 0.003-0.124-0.020-0.182s-0.063-0.107-0.113-0.144c-0.115-0.092-0.246-0.163-0.387-0.209v0z"></path>
<path fill="#455a64" style="fill: var(--color10, #455a64)" d="M10.679 13.405c0.256 0.084 0.764 0.127 0.928 0.677s0.246 0.908 0.246 0.908c-0.097 0.128-0.485 0.277-0.662 0.221l-0.512-1.806z"></path>
<path fill="#37474f" style="fill: var(--color5, #37474f)" d="M11.191 15.212l-0.175-0.618 0.175 0.87v-0.252z"></path>
<path fill="#37474f" style="fill: var(--color5, #37474f)" d="M7.513 16.51c-0.008 0.010-0.077 0.124-0.077 0.124l-0.316 0.449-0.308 0.458c-0.010 0.014-0.024 0.024-0.040 0.030s-0.034 0.006-0.050 0.001l-0.021-0.007c-0.107-0.039-0.267-0.106-0.479-0.203-0.17-0.080-0.162-0.104-0.162-0.132-0.002-0.023-0.002-0.046 0-0.069v0c0.035-0.066 0.142-0.23 0.287-0.438 0.257-0.371 0.381-0.535 0.457-0.642 0.011-0.016 0.027-0.027 0.046-0.032s0.038-0.003 0.055 0.005c0.138 0.046 0.418 0.165 0.566 0.225h0.006c0.079 0.043 0.036 0.228 0.035 0.231z"></path>
<path fill="#37474f" style="fill: var(--color5, #37474f)" d="M7.521 16.495l-0.081 0.138-0.309 0.458-0.323 0.447c-0.010 0.014-0.024 0.024-0.040 0.030s-0.034 0.006-0.050 0.001l-0.021-0.007c-0.107-0.039-0.267-0.106-0.479-0.203-0.17-0.080-0.162-0.104-0.162-0.132-0.002-0.023-0.002-0.046 0-0.069v0c0.162 0.071 0.673 0.311 0.69 0.303 0.040-0.019 0.387-0.571 0.571-0.853 0.092-0.14 0.133-0.2 0.162-0.248 0.005-0.006 0.009-0.012 0.011-0.020s0.003-0.015 0.002-0.023c-0.001-0.008-0.004-0.015-0.008-0.021s-0.010-0.012-0.016-0.016h-0.006c0.018 0.010 0.034 0.023 0.046 0.040s0.020 0.036 0.023 0.056c0.009 0.019 0.013 0.040 0.011 0.061s-0.009 0.041-0.021 0.059v0z"></path>
<path fill="#000" style="fill: var(--color8, #000)" opacity="0.1" d="M7.521 16.495l-0.081 0.138-0.309 0.458-0.323 0.447c-0.010 0.014-0.024 0.024-0.040 0.030s-0.034 0.006-0.050 0.001l-0.021-0.007c-0.107-0.039-0.267-0.106-0.479-0.203-0.17-0.080-0.162-0.104-0.162-0.132-0.002-0.023-0.002-0.046 0-0.069v0c0.162 0.071 0.673 0.311 0.69 0.303 0.040-0.019 0.387-0.571 0.571-0.853 0.092-0.14 0.133-0.2 0.162-0.248 0.005-0.006 0.009-0.012 0.011-0.020s0.003-0.015 0.002-0.023c-0.001-0.008-0.004-0.015-0.008-0.021s-0.010-0.012-0.016-0.016h-0.006c0.018 0.010 0.034 0.023 0.046 0.040s0.020 0.036 0.023 0.056c0.009 0.019 0.013 0.040 0.011 0.061s-0.009 0.041-0.021 0.059v0z"></path>
<path fill="#fafafa" style="fill: var(--color12, #fafafa)" d="M6.81 16.186l0.567 0.236-0.604 0.892-0.564-0.258 0.601-0.871z"></path>
<path fill="#ffa8a7" style="fill: var(--color16, #ffa8a7)" d="M6.651 19.295c0.155-0.044 0.389-0.617 0.566-1.267s0.269-0.794 0.275-0.998c0.006-0.205-0.009-0.473-0.009-0.473l-0.307 0.445c-0.013-0.086-0.041-0.169-0.081-0.246-0.040-0.080-0.114-0.144-0.175-0.096-0.032 0.026 0.053 0.136 0.035 0.381-0.002 0.098 0.008 0.196 0.029 0.291l-0.57 1.372 0.238 0.59z"></path>
<path fill="#f28f8f" style="fill: var(--color14, #f28f8f)" d="M4.355 16.45c-0.18-0.050-0.333 0.045-0.418 0.33-0.149 0.536-0.257 1.083-0.323 1.635-0.024 0.198-0.052 0.439 0.139 0.457 0.145 0.014 0.566-0.066 0.639-0.138 0.099-0.095 0.081-0.477 0.081-0.477h-0.218c0 0 0.047-0.301 0.061-0.392 0.048-0.307 0.12-0.695 0.12-0.695l-0.081-0.721z"></path>
<path fill="#ffa8a7" style="fill: var(--color16, #ffa8a7)" d="M5.413 16.168l-0.074 0.643-0.638 0.074 0.092-0.853 0.62 0.136z"></path>
<path fill="#263238" style="fill: var(--color11, #263238)" d="M4.047 15.23c0.053-0.594 0.376-0.838 0.627-0.897 0.506-0.118 1.005 0.051 1.212 0.401 0.047 0.11 0.072 0.228 0.072 0.348s-0.024 0.238-0.072 0.347c-0.11 0.249-1.836-0.201-1.836-0.201z"></path>
<path fill="#ffa8a7" style="fill: var(--color16, #ffa8a7)" d="M5.917 15.549c0 0 0.091 0.245 0.067 0.263-0.038 0.014-0.078 0.021-0.119 0.021l0.052-0.284z"></path>
<path fill="#ffa8a7" style="fill: var(--color16, #ffa8a7)" d="M5.645 14.776c0.12 0.103 0.323 0.289 0.269 0.802-0.060 0.531-0.189 0.675-0.276 0.726-0.058 0.035-0.316-0.026-0.435-0.095-0.149-0.087-0.478-0.313-0.578-0.617-0.119-0.358-0.059-0.785 0.201-0.896 0.132-0.057 0.277-0.079 0.42-0.065s0.281 0.064 0.4 0.145z"></path>
<path fill="#263238" style="fill: var(--color11, #263238)" d="M5.793 14.79c0.003 0.142-0.027 0.283-0.087 0.412s-0.148 0.243-0.258 0.334c0 0-0.075-0.193-0.242-0.149s-0.162 0.263-0.042 0.382c0.031 0.034 0.071 0.058 0.116 0.070s0.092 0.011 0.136-0.002c-0.024 0.152-0.095 0.292-0.204 0.401-0.174 0.040-0.356 0.030-0.524-0.028s-0.317-0.162-0.429-0.301c-0.369-0.441-0.26-1.14 0.317-1.346 0.204-0.081 0.427-0.103 0.643-0.063s0.416 0.141 0.576 0.291v0z"></path>
<path fill="#263238" style="fill: var(--color11, #263238)" d="M4.624 25.838l0.276 0.38c-0.125 0.056-0.262 0.084-0.4 0.080-0.246 0.010-0.314-0.071-0.323-0.090-0.042-0.089 0.023-0.249 0.041-0.386l0.406 0.015z"></path>
<path fill="#263238" style="fill: var(--color11, #263238)" d="M4.883 26.034c0 0 0.334-0.022 0.566-0.051s0.414 0.080 0.359 0.177c-0.054 0.097-0.182 0.173-0.38 0.241-0.169 0.057-0.372 0.098-0.549 0.15s-0.297 0.116-0.4 0.080c-0.115-0.039-0.162-0.085-0.154-0.168 0.025-0.118 0.056-0.234 0.093-0.349l0.465-0.081z"></path>
<path fill="#f28f8f" style="fill: var(--color14, #f28f8f)" d="M4.177 25.454c0 0 0.041 0.345 0.044 0.42s0.339 0.098 0.404-0.038l0.011-0.422-0.459 0.040z"></path>
<path fill="#ffa8a7" style="fill: var(--color16, #ffa8a7)" d="M4.515 25.667l-0.117 0.524c0 0-0.012 0.063 0.263 0.104s0.705-0.143 0.779-0.18c0.074-0.037 0.081-0.112-0.188-0.097s-0.365 0.016-0.365 0.016l0.088-0.233-0.46-0.135z"></path>
<path fill="#455a64" style="fill: var(--color10, #455a64)" d="M4.177 18.652c-0.23 0.355-0.448 0.668-0.495 1.068-0.099 0.844 0.225 1.808 0.293 2.433-0.131 0.178-0.206 0.389-0.217 0.609 0 0.258 0.419 2.692 0.419 2.692s0.305 0.092 0.458-0.040l0.288-4.477-0.152-0.545-0.595-1.74z"></path>
<path fill="#37474f" style="fill: var(--color5, #37474f)" d="M4.923 20.937l-0.152-0.545c-0.286-0.074-0.562-0.182-0.822-0.321 0 0 0.156 0.281 0.601 0.435l0.232 0.7 0.020 1.605 0.12-1.874z"></path>
<path fill="#455a64" style="fill: var(--color10, #455a64)" d="M4.177 18.652c-0.123 0.199-0.418 0.541-0.355 0.868 0.076 0.401 0.291 0.676 0.949 0.871l0.617 2.22c0 0-0.323 0.299-0.419 0.583s-0.454 2.471-0.454 2.471 0.11 0.178 0.457 0.135c0 0 1.212-2.743 1.293-2.92 0.103-0.181 0.14-0.392 0.103-0.596-0.039-0.287-0.451-3.434-0.451-3.434l-1.74-0.199z"></path>
<path fill="#ffb900" style="fill: var(--color18, #ffb900)" d="M4.064 16.649c0.025-0.066 0.071-0.12 0.132-0.156s0.132-0.049 0.201-0.038c0.431 0.116 1.1 0.27 1.227 0.307 0 0-0.057 0.824 0.439 1.114-0.023 0.184-0.149 0.976-0.149 0.976s-0.596 0.287-1.087 0.146c-0.49-0.141-0.655-0.345-0.655-0.345l0.242-0.397c-0.053-0.129-0.255-0.568-0.386-0.976-0.045-0.21-0.033-0.427 0.036-0.631z"></path>
<path fill="#e0e0e0" style="fill: var(--color15, #e0e0e0)" d="M4.355 18.099c0.204 0.122 0.418 0.227 0.639 0.314-0.201-0.005-0.398-0.060-0.572-0.16l-0.067-0.153z"></path>
<path fill="#e0e0e0" style="fill: var(--color15, #e0e0e0)" d="M6.053 17.814c-0.176-0.080-0.321-0.215-0.413-0.385 0.015 0.13 0.060 0.256 0.131 0.366s0.168 0.203 0.281 0.27v-0.25z"></path>
<path fill="#ffa8a7" style="fill: var(--color16, #ffa8a7)" d="M5.629 16.761c0.271 0.080 0.439 0.106 0.585 0.236 0.192 0.172 0.391 1.143 0.431 1.343 0.070 0.347 0.148 0.709 0.072 0.871-0.055 0.117-0.354 0.205-0.485-0.174-0.027-0.080-0.033-0.117-0.057-0.189-0.124-0.363-0.309-1.056-0.309-1.056s-0.366-0.201-0.237-1.030z"></path>
<path fill="#263238" style="fill: var(--color11, #263238)" d="M4.317 14.562c-0.096 0.055-0.27 0.109-0.378 0.611-0.088 0.421-0.141 0.848-0.157 1.277 0.004 0.156 0.329 0.588 1.014 0.547s0.934-0.44 0.934-0.44c0 0-0.337-0.136-0.31-0.722 0 0-0.119 0.232-0.444 0.116s-0.658-1.389-0.658-1.389z"></path>
</symbol>
<symbol id="cursor" viewBox="0 0 21 32">
<path d="M19.042 18.007l-17.21-17.21c-0.202-0.219-0.471-0.319-0.756-0.319-0.134 0-0.286 0.034-0.403 0.084-0.403 0.168-0.672 0.555-0.672 0.992v25.277c0 0.437 0.269 0.824 0.672 0.992 0.118 0.050 0.269 0.084 0.403 0.084 0.286 0 0.555-0.118 0.756-0.319l5.244-5.244 3.21 7.597c0.235 0.538 0.857 0.807 1.412 0.571l2.975-1.26c0.538-0.235 0.807-0.857 0.571-1.412l-3.378-8h6.42c0.437 0 0.824-0.269 0.992-0.672 0.168-0.387 0.084-0.857-0.235-1.16z"></path>
</symbol>
<symbol id="wave" viewBox="0 0 41 32">
<path d="M21.673 12.824l2.674 1.245 3.98-1.184v-2.776c0-4.714-3.98-8.49-8.735-8.49-4.735 0-8.735 3.755-8.735 8.429v12.653c0 1.163-0.939 2.082-2.082 2.082s-2.082-0.918-2.082-2.082v-5.347h-6.694c0 5.367 0 5.429 0 5.429 0 4.837 3.918 8.755 8.755 8.755 4.796 0 8.755-3.857 8.755-8.633v-12.49c0-1.143 0.939-2.082 2.082-2.082s2.082 0.939 2.082 2.082v2.408zM32.49 17.355v5.612c0 1.143-0.939 2.061-2.082 2.061s-2.082-0.918-2.082-2.061v-5.51l-3.98 1.184-2.674-1.245v5.469c0 4.796 3.939 8.673 8.755 8.673 4.837 0 8.755-3.918 8.755-8.755 0 0 0-0.061 0-5.429h-6.694z"></path>
</symbol>
<symbol id="heart" viewBox="0 0 34 32">
<path d="M17.067 30.103c0.305 0 0.61-0.114 0.838-0.343l11.867-11.429c0.171-0.171 4.362-4 4.362-8.571 0-5.581-3.41-8.914-9.105-8.914-3.333 0-6.457 2.629-7.962 4.114-1.505-1.486-4.629-4.114-7.962-4.114-5.695 0-9.105 3.333-9.105 8.914 0 4.571 4.191 8.4 4.343 8.533l11.886 11.467c0.229 0.229 0.533 0.343 0.838 0.343z"></path>
</symbol>
<symbol id="sand-clock" viewBox="0 0 26 32">
<path d="M23.664 2.628h1.614c0.302 0 0.538-0.235 0.538-0.538v-1.076c0-0.303-0.235-0.538-0.538-0.538h-24.74c-0.303 0-0.538 0.235-0.538 0.538v1.076c0 0.303 0.235 0.538 0.538 0.538h1.613c0 6.218 2.975 10.723 6.269 12.908-3.294 2.185-6.269 6.689-6.269 12.908h-1.613c-0.303 0-0.538 0.235-0.538 0.538v1.076c0 0.302 0.235 0.538 0.538 0.538h24.74c0.302 0 0.538-0.235 0.538-0.538v-1.076c0-0.302-0.235-0.538-0.538-0.538h-1.614c0-6.218-2.975-10.723-6.269-12.908 3.294-2.185 6.269-6.689 6.269-12.908zM21.513 2.628c0 2.454-0.555 4.622-1.429 6.454h-14.353c-0.874-1.832-1.429-4-1.429-6.454h17.21zM20.555 23.065h-15.294c1.244-3.244 3.479-5.546 5.714-6.454h3.866c2.235 0.908 4.471 3.21 5.714 6.454z"></path>
</symbol>
<symbol id="theme" viewBox="0 0 32 32">
<path d="M16 29.333c7.352 0 13.333-5.981 13.333-13.333s-5.981-13.333-13.333-13.333c-7.352 0-13.333 5.981-13.333 13.333s5.981 13.333 13.333 13.333zM16 5.333c5.881 0 10.667 4.785 10.667 10.667s-4.785 10.667-10.667 10.667c-5.881 0-10.667-4.785-10.667-10.667s4.785-10.667 10.667-10.667z"></path>
<path d="M25.333 16c0-5.155-4.18-9.333-9.333-9.333v18.667c5.153 0 9.333-4.179 9.333-9.333z"></path>
</symbol>
<symbol id="management" viewBox="0 0 36 32">
<path fill="#f5f5f5" style="fill: var(--color1, #f5f5f5)" d="M5.31 28.851c7.080 4.070 18.56 4.070 25.64 0s7.080-10.669 0-14.74c-7.080-4.071-18.556-4.070-25.64 0s-7.077 10.67 0 14.74z"></path>
<path fill="#e0e0e0" style="fill: var(--color2, #e0e0e0)" d="M3.336 22.176l-2.301-1.462v-5.432l2.301 1.463v5.431z"></path>
<path fill="#ebebeb" style="fill: var(--color3, #ebebeb)" d="M3.336 16.745l3.288-2.089v5.431l-3.288 2.089v-5.431z"></path>
<path fill="#f5f5f5" style="fill: var(--color1, #f5f5f5)" d="M6.625 14.656l-3.288 2.089-2.301-1.463 3.288-2.089 2.301 1.463z"></path>
<path fill="#e0e0e0" style="fill: var(--color2, #e0e0e0)" d="M3.666 16.953l2.63-1.671 0.061 0.038v2.012l-2.631 1.671-0.061-0.038 0.001-2.012z"></path>
<path fill="#f5f5f5" style="fill: var(--color1, #f5f5f5)" d="M3.726 16.993l2.631-1.672v2.012l-2.631 1.671v-2.011z"></path>
<path fill="#e0e0e0" style="fill: var(--color2, #e0e0e0)" d="M4.757 16.678l0.448-0.284c0.057-0.037 0.104-0.020 0.104 0.038-0.004 0.035-0.016 0.069-0.034 0.099s-0.042 0.054-0.071 0.072l-0.448 0.284c-0.058 0.037-0.105 0.020-0.105-0.037 0.004-0.036 0.016-0.070 0.034-0.099s0.043-0.054 0.071-0.072v0z"></path>
<path fill="#e0e0e0" style="fill: var(--color2, #e0e0e0)" d="M3.605 19.499l2.63-1.671v2.012l0.061 0.038-2.631 1.671-0.060-0.038v-2.012z"></path>
<path fill="#f5f5f5" style="fill: var(--color1, #f5f5f5)" d="M3.665 19.538l2.631-1.671v2.012l-2.631 1.671v-2.012z"></path>
<path fill="#e0e0e0" style="fill: var(--color2, #e0e0e0)" d="M4.696 19.224l0.452-0.283c0.058-0.037 0.105-0.020 0.105 0.037-0.004 0.036-0.016 0.070-0.034 0.099s-0.043 0.054-0.071 0.072l-0.448 0.284c-0.058 0.038-0.105 0.021-0.105-0.037 0.004-0.035 0.015-0.069 0.032-0.099s0.041-0.055 0.069-0.073z"></path>
<path fill="#e0e0e0" style="fill: var(--color2, #e0e0e0)" d="M3.336 16.431l-2.301-1.463v-5.431l2.301 1.462v5.432z"></path>
<path fill="#ebebeb" style="fill: var(--color3, #ebebeb)" d="M3.336 10.999l3.288-2.089v5.432l-3.288 2.089v-5.432z"></path>
<path fill="#f5f5f5" style="fill: var(--color1, #f5f5f5)" d="M6.625 8.91l-3.288 2.089-2.301-1.462 3.288-2.089 2.301 1.462z"></path>
<path fill="#e0e0e0" style="fill: var(--color2, #e0e0e0)" d="M3.665 11.209l2.631-1.671 0.061 0.038v2.012l-2.631 1.671-0.061-0.039v-2.011z"></path>
<path fill="#e0e0e0" style="fill: var(--color2, #e0e0e0)" d="M4.757 10.932l0.447-0.284c0.058-0.036 0.105-0.020 0.105 0.038-0.004 0.036-0.016 0.069-0.034 0.099s-0.043 0.054-0.071 0.072l-0.447 0.284c-0.058 0.037-0.105 0.021-0.105-0.037 0.004-0.036 0.016-0.070 0.034-0.1s0.043-0.055 0.071-0.072v0z"></path>
<path fill="#e0e0e0" style="fill: var(--color2, #e0e0e0)" d="M3.605 13.755l2.63-1.671v2.011l0.061 0.038-2.631 1.671-0.060-0.038v-2.011z"></path>
<path fill="#f5f5f5" style="fill: var(--color1, #f5f5f5)" d="M3.665 13.793l2.631-1.671v2.011l-2.631 1.671v-2.011z"></path>
<path fill="#e0e0e0" style="fill: var(--color2, #e0e0e0)" d="M4.696 13.478l0.452-0.284c0.057-0.036 0.105-0.020 0.105 0.038-0.005 0.035-0.016 0.069-0.035 0.099s-0.042 0.054-0.071 0.072l-0.452 0.282c-0.058 0.036-0.105 0.020-0.105-0.037 0.005-0.035 0.016-0.069 0.035-0.098s0.042-0.054 0.071-0.071v0z"></path>
<path fill="#e0e0e0" style="fill: var(--color2, #e0e0e0)" d="M3.665 11.209l2.631-1.671v2.011l-2.631 1.671v-2.011z"></path>
<path fill="#e0e0e0" style="fill: var(--color2, #e0e0e0)" d="M7.611 10.532l-1.44-0.915v1.773l1.44 0.914v-1.772z"></path>
<path fill="#ebebeb" style="fill: var(--color3, #ebebeb)" d="M4.652 13.507v-2.508l0.564-0.36 0.093 0.151 1.644-1.045v2.298l-2.301 1.463z"></path>
<path fill="#f5f5f5" style="fill: var(--color1, #f5f5f5)" d="M4.652 13.507l0.164-2.194 2.301-1.462-0.164 2.193-2.301 1.463z"></path>
<path fill="#ebebeb" style="fill: var(--color3, #ebebeb)" d="M4.981 12.203l-1.255-0.797v1.773l1.255 0.796v-1.772z"></path>
<path fill="#f5f5f5" style="fill: var(--color1, #f5f5f5)" d="M4.981 12.044l2.631-1.671v2.011l-2.631 1.671v-2.011z"></path>
<path fill="#e0e0e0" style="fill: var(--color2, #e0e0e0)" d="M6.012 11.73l0.447-0.284c0.058-0.037 0.105-0.020 0.105 0.038-0.004 0.035-0.016 0.069-0.034 0.099s-0.043 0.054-0.071 0.072l-0.447 0.284c-0.058 0.036-0.105 0.020-0.105-0.037 0.004-0.036 0.016-0.070 0.034-0.1s0.043-0.055 0.071-0.072z"></path>
<path fill="#e0e0e0" style="fill: var(--color2, #e0e0e0)" d="M4.981 12.044l-0.087-0.055v2.011l0.087 0.055v-2.011z"></path>
<path fill="#ebebeb" style="fill: var(--color3, #ebebeb)" d="M4.893 11.989l2.63-1.672 0.088 0.056-2.631 1.671-0.087-0.055z"></path>
<path fill="#e0e0e0" style="fill: var(--color2, #e0e0e0)" d="M30.526 18.885l-2.302-1.463v-5.431l2.302 1.462v5.432z"></path>
<path fill="#ebebeb" style="fill: var(--color3, #ebebeb)" d="M30.526 13.453l3.288-2.089v5.432l-3.288 2.089v-5.432z"></path>
<path fill="#f5f5f5" style="fill: var(--color1, #f5f5f5)" d="M33.815 11.365l-3.288 2.089-2.302-1.462 3.289-2.090 2.302 1.463z"></path>
<path fill="#e0e0e0" style="fill: var(--color2, #e0e0e0)" d="M30.855 13.663l2.631-1.671 0.061 0.038-0.001 2.011-2.63 1.671-0.061-0.038v-2.011z"></path>
<path fill="#f5f5f5" style="fill: var(--color1, #f5f5f5)" d="M30.916 13.701l2.631-1.671-0.001 2.011-2.63 1.671v-2.011z"></path>
<path fill="#e0e0e0" style="fill: var(--color2, #e0e0e0)" d="M31.947 13.387l0.447-0.284c0.058-0.036 0.105-0.020 0.105 0.037-0.004 0.036-0.016 0.070-0.034 0.1s-0.043 0.055-0.071 0.072l-0.447 0.284c-0.058 0.037-0.105 0.020-0.105-0.037 0.004-0.036 0.016-0.070 0.034-0.1s0.043-0.055 0.071-0.072v0z"></path>
<path fill="#e0e0e0" style="fill: var(--color2, #e0e0e0)" d="M30.794 16.209l2.631-1.672v2.012l0.061 0.038-2.631 1.671-0.061-0.038v-2.011z"></path>
<path fill="#f5f5f5" style="fill: var(--color1, #f5f5f5)" d="M30.855 16.247l2.631-1.671v2.011l-2.631 1.671v-2.011z"></path>
<path fill="#e0e0e0" style="fill: var(--color2, #e0e0e0)" d="M31.886 15.932l0.448-0.284c0.057-0.037 0.104-0.020 0.104 0.037-0.004 0.036-0.016 0.069-0.034 0.099s-0.042 0.055-0.070 0.073l-0.448 0.284c-0.058 0.036-0.105 0.020-0.105-0.038 0.004-0.036 0.016-0.069 0.034-0.099s0.043-0.054 0.071-0.072z"></path>
<path fill="#02897a" style="fill: var(--color4, #02897a)" d="M8.629 24.563c0 0 0.009-1.413-0.801-2.472-0.716-0.938-1.098-1.533-0.872-1.807s0.712-0.34 1.366 0.419c0.655 0.759 0.706 2.861 0.615 3.337l-0.309 0.524z"></path>
<path fill="#000" style="fill: var(--color5, #000)" opacity="0.2" d="M8.629 24.563c0 0 0.009-1.413-0.801-2.472-0.716-0.938-1.098-1.533-0.872-1.807s0.712-0.34 1.366 0.419c0.655 0.759 0.706 2.861 0.615 3.337l-0.309 0.524z"></path>
<path fill="#fff" style="fill: var(--color6, #fff)" d="M8.765 23.044c-0.009 0-0.018-0.003-0.025-0.010s-0.012-0.015-0.014-0.025c-0.283-1.458-1.010-2.264-1.419-2.615-0.008-0.007-0.014-0.018-0.015-0.029s0.002-0.023 0.008-0.033c0.007-0.009 0.016-0.015 0.027-0.017s0.022 0.002 0.030 0.009c0.417 0.356 1.159 1.181 1.448 2.667 0.001 0.006 0.001 0.012 0 0.017s-0.003 0.011-0.006 0.016c-0.003 0.005-0.007 0.009-0.011 0.012s-0.009 0.006-0.014 0.007l-0.009 0.001z"></path>
<path fill="#02897a" style="fill: var(--color4, #02897a)" d="M8.598 25.087l-0.329 0.209c-0.035-0.106-0.094-0.2-0.172-0.273s-0.171-0.123-0.271-0.145c-0.36-0.089-0.734-0.074-0.987-0.418s0.055-0.718 0-0.971-0.091-0.326-0.542-0.579c-0.452-0.253-0.63-0.673-0.29-0.957s0.89-0.076 1.224 0.178c0.296 0.223 0.578 0.282 0.909 0.327s0.87 0.248 0.788 1.094c-0.054 0.524-0.164 1.039-0.329 1.534v0z"></path>
<path fill="#fff" style="fill: var(--color6, #fff)" d="M7.334 23.975c-0.009-0-0.017-0.003-0.024-0.009s-0.012-0.014-0.015-0.023c-0.003-0.011-0.002-0.023 0.003-0.034s0.013-0.018 0.024-0.022c0.029-0.010 0.729-0.254 1.026 0.008 0.007 0.008 0.012 0.018 0.013 0.029s-0.002 0.022-0.009 0.031c-0.006 0.009-0.015 0.015-0.025 0.016s-0.020-0.001-0.029-0.007c-0.262-0.232-0.944 0.005-0.951 0.008l-0.012 0.002z"></path>
<path fill="#fff" style="fill: var(--color6, #fff)" d="M8.635 25.019c-0.010 0-0.019-0.004-0.027-0.011s-0.012-0.017-0.013-0.028c-0.181-1.876-2.234-2.766-2.255-2.775-0.005-0.002-0.010-0.005-0.014-0.009s-0.007-0.009-0.009-0.014c-0.002-0.005-0.003-0.011-0.003-0.017s0.001-0.012 0.003-0.017c0.004-0.011 0.012-0.020 0.021-0.024s0.021-0.005 0.031-0.002c0.022 0.010 2.121 0.918 2.306 2.851 0.001 0.012-0.002 0.023-0.009 0.033s-0.016 0.015-0.027 0.016l-0.005-0.002z"></path>
<path fill="#02897a" style="fill: var(--color4, #02897a)" d="M28.77 23.855c0.009-0.031 0.356-1.998 0-3.393-0.324-1.279-0.746-1.751-1.349-1.855s-0.864 0.373-0.544 1.020c0.32 0.647 1.090 1.505 1.278 2.949 0.081 0.595 0.142 1.112 0.142 1.112l0.472 0.167z"></path>
<path fill="#000" style="fill: var(--color5, #000)" opacity="0.2" d="M28.77 23.855c0.009-0.031 0.356-1.998 0-3.393-0.324-1.279-0.746-1.751-1.349-1.855s-0.864 0.373-0.544 1.020c0.32 0.647 1.090 1.505 1.278 2.949 0.081 0.595 0.142 1.112 0.142 1.112l0.472 0.167z"></path>
<path fill="#fff" style="fill: var(--color6, #fff)" d="M28.567 22.726c-0.005-0-0.011-0.002-0.015-0.004s-0.009-0.006-0.013-0.011-0.006-0.009-0.008-0.015c-0.002-0.006-0.002-0.011-0.002-0.017 0.081-1.593-0.392-3.014-1.239-3.712-0.009-0.007-0.014-0.018-0.016-0.029s0.001-0.024 0.008-0.033c0.007-0.009 0.016-0.015 0.027-0.017s0.021 0.001 0.030 0.008c0.869 0.713 1.356 2.166 1.271 3.788-0.001 0.012-0.005 0.023-0.013 0.030s-0.018 0.012-0.029 0.011z"></path>
<path fill="#02897a" style="fill: var(--color4, #02897a)" d="M29.701 24.88c-0.046-0.366 0.145-0.915 0.599-1.045s0.657-0.417 0.493-0.73c-0.163-0.314-0.125-0.601 0.287-0.731s0.773-0.356 0.536-0.836c-0.172-0.346-0.21-0.571 0.212-1.253 0.351-0.567 0.064-0.899-0.375-0.836s-0.71 0.638-0.984 0.734c-0.274 0.096-0.338-0.417-0.699-0.187s-0.34 0.819-0.351 1.229c-0.011 0.411-0.036 0.503-0.363 0.453s-0.648 0.009-0.64 0.879c0.006 0.746 0.367 1.671 0.367 1.671l0.919 0.652z"></path>
<path fill="#fff" style="fill: var(--color6, #fff)" d="M29.127 24.323h-0.004c-0.011-0.001-0.021-0.007-0.028-0.017s-0.010-0.021-0.009-0.033c0.228-2.244 1.978-4.137 2.435-4.521 0.009-0.007 0.019-0.010 0.030-0.009s0.020 0.008 0.027 0.017 0.009 0.021 0.008 0.033c-0.001 0.012-0.007 0.022-0.016 0.030-0.451 0.379-2.178 2.247-2.403 4.459-0.001 0.011-0.006 0.021-0.013 0.028s-0.017 0.012-0.027 0.012v0z"></path>
<path fill="#fff" style="fill: var(--color6, #fff)" d="M29.926 21.924c-0.008 0-0.016-0.003-0.023-0.008s-0.012-0.012-0.015-0.021c-0.004-0.011-0.003-0.023 0.002-0.034s0.013-0.019 0.023-0.024c0.652-0.267 1.392-0.141 1.424-0.135 0.011 0.002 0.020 0.008 0.026 0.018s0.009 0.021 0.007 0.033c-0.002 0.012-0.008 0.022-0.016 0.029s-0.019 0.010-0.030 0.009c-0.007 0-0.75-0.128-1.383 0.131-0.005 0.002-0.010 0.003-0.015 0.003v0z"></path>
<path fill="#fff" style="fill: var(--color6, #fff)" d="M29.345 23.273c-0.006-0-0.011-0.001-0.017-0.004s-0.010-0.006-0.014-0.011c-0.271-0.348-0.455-0.768-0.533-1.218-0.001-0.006-0.001-0.012 0.001-0.017s0.004-0.011 0.007-0.016c0.003-0.005 0.007-0.009 0.012-0.012s0.010-0.005 0.015-0.006c0.005-0.001 0.011-0.001 0.016 0.001s0.010 0.004 0.014 0.007c0.004 0.004 0.008 0.008 0.011 0.013s0.005 0.011 0.005 0.016c0.077 0.432 0.254 0.836 0.514 1.171 0.005 0.007 0.008 0.015 0.009 0.023s0 0.017-0.003 0.025c-0.003 0.008-0.008 0.014-0.015 0.019s-0.014 0.007-0.022 0.007v0z"></path>
<path fill="#22343d" style="fill: var(--color7, #22343d)" d="M8.598 11.3v13.788l12.824-8.147-0.001-12.534-9.535 6.058-0.329-1.045-2.959 1.88z"></path>
<path fill="#e0e0e0" style="fill: var(--color2, #e0e0e0)" d="M8.598 25.088l0.657-12.534 12.824-8.147-0.657 12.534-12.824 8.147z"></path>
<path fill="#22343d" style="fill: var(--color7, #22343d)" d="M8.598 25.088l0.986-12.325 12.824-8.148-0.986 12.326-12.824 8.147z"></path>
<path fill="#f03e3d" style="fill: var(--color8, #f03e3d)" d="M10.571 12.554v13.788l12.824-8.148v-12.534l-9.536 6.058-0.329-1.045-2.96 1.88z"></path>
<path fill="#e0e0e0" style="fill: var(--color2, #e0e0e0)" d="M10.571 26.342l0.657-12.535 12.824-8.147-0.657 12.534-12.824 8.148z"></path>
<path fill="#f03e3d" style="fill: var(--color8, #f03e3d)" d="M10.571 26.342l0.986-12.326 12.824-8.148-0.986 12.326-12.824 8.148z"></path>
<path fill="#e0e0e0" style="fill: var(--color2, #e0e0e0)" d="M21.419 30.729c-2.302-1.463-4.438-3.053-5.412-4.918l2.963-1.882 2.45 6.8z"></path>
<path fill="#02897a" style="fill: var(--color4, #02897a)" d="M12.873 14.016v13.788l12.824-8.147v-12.534l-9.536 6.058-0.329-1.045-2.96 1.88z"></path>
<path fill="#000" style="fill: var(--color5, #000)" opacity="0.2" d="M12.873 14.016v13.788l12.824-8.147v-12.534l-9.536 6.058-0.329-1.045-2.96 1.88z"></path>
<path fill="#fff" style="fill: var(--color6, #fff)" d="M16.567 18.093c-0.032 0-0.037-0.041-0.037-0.065v-11.758c0.003-0.046 0.015-0.090 0.036-0.13s0.050-0.073 0.084-0.099l9.256-5.879c0.013-0.009 0.027-0.014 0.042-0.014 0.032 0 0.037 0.041 0.037 0.065v11.758c-0.003 0.046-0.015 0.090-0.036 0.13s-0.050 0.074-0.084 0.099l-9.256 5.879c-0.013 0.008-0.027 0.013-0.042 0.013z"></path>
<path fill="#02897a" style="fill: var(--color4, #02897a)" d="M25.943 0.189c0.001 0.007 0.001 0.013 0 0.020v11.758c-0.003 0.038-0.013 0.075-0.030 0.108s-0.041 0.061-0.069 0.083l-9.272 5.887c-0.001-0.007-0.001-0.013 0-0.020v-11.758c0.003-0.038 0.013-0.074 0.030-0.107s0.041-0.061 0.069-0.083l9.256-5.879c0.005-0.004 0.011-0.007 0.017-0.008l-0.001-0.001zM25.949 0.101c-0.022 0.001-0.044 0.008-0.062 0.021l-9.256 5.879c-0.041 0.029-0.075 0.069-0.099 0.115s-0.038 0.098-0.041 0.152v11.758c0 0.069 0.032 0.11 0.081 0.11 0.022-0.001 0.044-0.008 0.062-0.020l9.256-5.879c0.041-0.029 0.075-0.069 0.099-0.115s0.038-0.099 0.041-0.152v-11.758c0-0.069-0.032-0.11-0.081-0.11v0z"></path>
<path fill="#fff" style="fill: var(--color6, #fff)" opacity="0.7" d="M25.943 0.189c0.001 0.007 0.001 0.013 0 0.020v11.758c-0.003 0.038-0.013 0.075-0.030 0.108s-0.041 0.061-0.069 0.083l-9.272 5.887c-0.001-0.007-0.001-0.013 0-0.020v-11.758c0.003-0.038 0.013-0.074 0.030-0.107s0.041-0.061 0.069-0.083l9.256-5.879c0.005-0.004 0.011-0.007 0.017-0.008l-0.001-0.001zM25.949 0.101c-0.022 0.001-0.044 0.008-0.062 0.021l-9.256 5.879c-0.041 0.029-0.075 0.069-0.099 0.115s-0.038 0.098-0.041 0.152v11.758c0 0.069 0.032 0.11 0.081 0.11 0.022-0.001 0.044-0.008 0.062-0.020l9.256-5.879c0.041-0.029 0.075-0.069 0.099-0.115s0.038-0.099 0.041-0.152v-11.758c0-0.069-0.032-0.11-0.081-0.11v0z"></path>
<path fill="#02897a" style="fill: var(--color4, #02897a)" d="M17.476 6.716l3.288-2.089v4.178l-3.288 2.089v-4.178z"></path>
<path fill="#11b5e4" style="fill: var(--color9, #11b5e4)" opacity="0.8" d="M17.476 6.716l3.288-2.089v4.178l-3.288 2.089v-4.178z"></path>
<path fill="#fff" style="fill: var(--color6, #fff)" d="M20.271 5.668v1.256l-0.104 0.063v-0.384c0-0.212-0.156-0.284-0.35-0.161l-1.393 0.886c-0.193 0.123-0.35 0.395-0.35 0.607v0.384l-0.103 0.068v-1.253l2.301-1.465z"></path>
<path fill="#fff" style="fill: var(--color6, #fff)" d="M19.638 8.866c-0.168 0.107-0.305-0.005-0.305-0.252v-2.011l-0.423 0.253v2.027c0 0.246-0.137 0.534-0.305 0.639l-0.306 0.194v0.134l1.644-1.045v-0.133l-0.304 0.194z"></path>
<path fill="#455a64" style="fill: var(--color10, #455a64)" d="M21.419 4.421c0 0.116 0.095 0.149 0.21 0.076l3.199-2.035c0.057-0.035 0.105-0.085 0.142-0.144s0.060-0.127 0.069-0.199c0-0.115-0.095-0.149-0.21-0.075l-3.197 2.031c-0.058 0.035-0.107 0.085-0.144 0.145s-0.061 0.129-0.069 0.201v0z"></path>
<path fill="#455a64" style="fill: var(--color10, #455a64)" d="M21.419 5.668c0 0.116 0.095 0.15 0.21 0.076l3.197-2.031c0.057-0.035 0.105-0.085 0.142-0.144s0.060-0.127 0.069-0.199c0-0.115-0.095-0.149-0.21-0.075l-3.197 2.031c-0.057 0.035-0.105 0.085-0.142 0.144s-0.060 0.127-0.069 0.198z"></path>
<path fill="#455a64" style="fill: var(--color10, #455a64)" d="M21.419 6.924c0 0.116 0.095 0.15 0.21 0.076l3.197-2.031c0.057-0.035 0.105-0.085 0.142-0.144s0.060-0.127 0.069-0.198c0-0.116-0.095-0.15-0.21-0.076l-3.197 2.031c-0.057 0.035-0.105 0.085-0.142 0.144s-0.060 0.127-0.069 0.198v0z"></path>
<path fill="#455a64" style="fill: var(--color10, #455a64)" d="M21.419 8.177c0 0.116 0.095 0.15 0.21 0.076l3.197-2.031c0.057-0.035 0.105-0.085 0.142-0.144s0.060-0.127 0.069-0.198c0-0.116-0.095-0.15-0.21-0.076l-3.197 2.031c-0.057 0.035-0.105 0.085-0.142 0.144s-0.060 0.127-0.069 0.198v0z"></path>
<path fill="#455a64" style="fill: var(--color10, #455a64)" d="M17.476 11.938c0 0.116 0.094 0.15 0.21 0.076l7.142-4.543c0.057-0.035 0.105-0.084 0.142-0.144s0.060-0.127 0.069-0.198c0-0.116-0.095-0.149-0.21-0.076l-7.142 4.543c-0.057 0.035-0.105 0.084-0.142 0.144s-0.060 0.127-0.069 0.198v0z"></path>
<path fill="#455a64" style="fill: var(--color10, #455a64)" d="M17.476 13.192c0 0.116 0.094 0.15 0.21 0.076l7.142-4.538c0.057-0.035 0.105-0.085 0.142-0.144s0.060-0.127 0.069-0.199c0-0.115-0.095-0.149-0.21-0.075l-7.142 4.538c-0.057 0.035-0.105 0.084-0.142 0.144s-0.060 0.127-0.069 0.198v0z"></path>
<path fill="#455a64" style="fill: var(--color10, #455a64)" d="M17.476 14.446c0 0.115 0.094 0.149 0.21 0.075l7.142-4.538c0.057-0.035 0.105-0.085 0.142-0.144s0.060-0.127 0.069-0.199c0-0.115-0.095-0.149-0.21-0.075l-7.142 4.538c-0.057 0.035-0.106 0.085-0.142 0.144s-0.060 0.128-0.068 0.199v0z"></path>
<path fill="#02897a" style="fill: var(--color4, #02897a)" d="M12.873 27.804l2.301-11.071 12.824-8.148-2.301 11.072-12.824 8.147z"></path>
<path fill="#02897a" style="fill: var(--color4, #02897a)" d="M16.010 17.599v8.212l2.96-1.881v-8.211l-2.96 1.88z"></path>
<path fill="#000" style="fill: var(--color5, #000)" opacity="0.2" d="M16.010 17.599v8.212l2.96-1.881v-8.211l-2.96 1.88z"></path>
<path fill="#fff" style="fill: var(--color6, #fff)" d="M21.425 30.676c-0.252-0.207-2.679-2.247-3.912-5.167-1.313-3.104-1.311-6.724-1.311-8.086v-0.043l8.798-5.589c0 1.374 0 5 1.319 8.114 1.205 2.851 3.539 4.865 3.909 5.174l-8.802 5.596z"></path>
<path fill="#02897a" style="fill: var(--color4, #02897a)" d="M24.959 11.872c0 1.432 0.025 4.988 1.323 8.056 1.165 2.753 3.38 4.732 3.873 5.15l-8.727 5.544c-0.341-0.282-2.676-2.289-3.878-5.128-1.311-3.095-1.311-6.708-1.311-8.068v-0.017l8.72-5.537zM25.036 11.717l-8.879 5.641c0 1.282-0.024 5.006 1.315 8.173 1.319 3.108 3.946 5.198 3.946 5.198l8.881-5.642c0 0-2.631-2.090-3.946-5.198-1.341-3.167-1.315-6.891-1.315-8.173l-0.003 0.001z"></path>
<path fill="#fff" style="fill: var(--color6, #fff)" opacity="0.7" d="M24.959 11.872c0 1.432 0.025 4.988 1.323 8.056 1.165 2.753 3.38 4.732 3.873 5.15l-8.727 5.544c-0.341-0.282-2.676-2.289-3.878-5.128-1.311-3.095-1.311-6.708-1.311-8.068v-0.017l8.72-5.537zM25.036 11.717l-8.879 5.641c0 1.282-0.024 5.006 1.315 8.173 1.319 3.108 3.946 5.198 3.946 5.198l8.881-5.642c0 0-2.631-2.090-3.946-5.198-1.341-3.167-1.315-6.891-1.315-8.173l-0.003 0.001z"></path>
<path fill="#455a64" style="fill: var(--color10, #455a64)" d="M24.035 13.609l-2.807 1.782c-0.056 0.034-0.104 0.082-0.14 0.141s-0.058 0.126-0.064 0.196c0.004 0.113 0.102 0.145 0.218 0.071l2.808-1.781c0.055-0.034 0.103-0.082 0.138-0.14s0.058-0.124 0.065-0.194c-0.005-0.117-0.101-0.15-0.218-0.076z"></path>
<path fill="#455a64" style="fill: var(--color10, #455a64)" d="M24.095 14.825l-2.807 1.782c-0.055 0.033-0.103 0.081-0.137 0.139s-0.055 0.125-0.059 0.194c0.009 0.11 0.111 0.139 0.227 0.065l2.808-1.781c0.055-0.033 0.102-0.080 0.136-0.139s0.054-0.125 0.058-0.194c-0.008-0.11-0.108-0.137-0.225-0.066z"></path>
<path fill="#455a64" style="fill: var(--color10, #455a64)" d="M24.207 16.007l-2.808 1.782c-0.116 0.074-0.2 0.221-0.186 0.327s0.12 0.134 0.236 0.060l2.808-1.782c0.116-0.074 0.198-0.22 0.184-0.326s-0.118-0.135-0.234-0.061z"></path>
<path fill="#455a64" style="fill: var(--color10, #455a64)" d="M24.376 17.154l-2.808 1.782c-0.116 0.074-0.196 0.218-0.177 0.322s0.13 0.126 0.243 0.052l2.807-1.782c0.117-0.074 0.194-0.217 0.175-0.321s-0.121-0.127-0.24-0.053z"></path>
<path fill="#455a64" style="fill: var(--color10, #455a64)" d="M24.604 18.262l-2.808 1.782c-0.116 0.074-0.191 0.215-0.162 0.314s0.14 0.121 0.256 0.047l2.808-1.782c0.117-0.074 0.189-0.214 0.162-0.314s-0.14-0.121-0.256-0.047z"></path>
<path fill="#455a64" style="fill: var(--color10, #455a64)" d="M24.9 19.33l-6.844 4.348c-0.116 0.074-0.186 0.211-0.155 0.306s0.152 0.113 0.268 0.039l6.844-4.348c0.117-0.074 0.184-0.21 0.152-0.306s-0.154-0.113-0.266-0.039z"></path>
<path fill="#455a64" style="fill: var(--color10, #455a64)" d="M25.26 20.35l-6.843 4.348c-0.117 0.074-0.181 0.208-0.142 0.299s0.162 0.105 0.28 0.031l6.844-4.348c0.117-0.074 0.179-0.208 0.14-0.298s-0.163-0.104-0.279-0.031z"></path>
<path fill="#455a64" style="fill: var(--color10, #455a64)" d="M25.71 21.322l-6.844 4.348c-0.117 0.074-0.174 0.204-0.128 0.29s0.178 0.095 0.295 0.021l6.839-4.348c0.116-0.073 0.172-0.202 0.125-0.289s-0.174-0.097-0.287-0.023z"></path>
<path fill="#455a64" style="fill: var(--color10, #455a64)" d="M26.234 22.241l-6.843 4.347c-0.117 0.074-0.168 0.201-0.116 0.282s0.191 0.089 0.308 0.014l6.843-4.348c0.117-0.074 0.167-0.199 0.114-0.281s-0.189-0.088-0.306-0.014z"></path>
<path fill="#455a64" style="fill: var(--color10, #455a64)" d="M26.831 23.115l-6.844 4.347c-0.116 0.074-0.162 0.198-0.104 0.275s0.202 0.081 0.318 0.007l6.844-4.35c0.116-0.074 0.162-0.196 0.102-0.273s-0.2-0.083-0.316-0.006z"></path>
<path fill="#455a64" style="fill: var(--color10, #455a64)" d="M27.491 23.947l-6.841 4.347c-0.117 0.074-0.162 0.195-0.094 0.267s0.212 0.074 0.328 0l6.844-4.348c0.117-0.074 0.157-0.193 0.092-0.267s-0.21-0.072-0.329 0.001z"></path>
<path fill="#455a64" style="fill: var(--color10, #455a64)" d="M28.219 24.742l-6.844 4.347c-0.116 0.074-0.154 0.192-0.081 0.263s0.222 0.068 0.338-0.006l6.838-4.348c0.116-0.074 0.152-0.19 0.081-0.261s-0.219-0.069-0.333 0.005z"></path>
<path fill="#02897a" style="fill: var(--color4, #02897a)" d="M20.21 16.040l-3.228 2.049c0.036 1.287 0.169 3.144 0.658 5.013l3.229-2.049c-0.49-1.87-0.623-3.727-0.659-5.013z"></path>
<path fill="#11b5e4" style="fill: var(--color9, #11b5e4)" opacity="0.8" d="M20.21 16.040l-3.228 2.049c0.036 1.287 0.169 3.144 0.658 5.013l3.229-2.049c-0.49-1.87-0.623-3.727-0.659-5.013z"></path>
<path fill="#02897a" style="fill: var(--color4, #02897a)" d="M18.298 17.806c0.004-0.083-0.007-0.166-0.035-0.244s-0.069-0.148-0.123-0.207l-1.159 0.736c0.010 0.34 0.026 0.721 0.054 1.131 0.151 0.019 0.303-0.012 0.438-0.089 0.456-0.23 0.824-0.826 0.824-1.326z"></path>
<path fill="#fff" style="fill: var(--color6, #fff)" opacity="0.6" d="M18.298 17.806c0.004-0.083-0.007-0.166-0.035-0.244s-0.069-0.148-0.123-0.207l-1.159 0.736c0.010 0.34 0.026 0.721 0.054 1.131 0.151 0.019 0.303-0.012 0.438-0.089 0.456-0.23 0.824-0.826 0.824-1.326z"></path>
<path fill="#02897a" style="fill: var(--color4, #02897a)" d="M20.595 19.824c-0.215-0.298-0.653-1.22-0.84-1.622-0.007-0.016-0.019-0.029-0.033-0.038s-0.030-0.012-0.047-0.011c-0.016 0.002-0.031 0.009-0.044 0.020s-0.022 0.026-0.026 0.044c-0.202 0.761-0.32 1.546-0.35 2.338-0.27-0.236-0.501-0.519-0.686-0.839-0.008-0.012-0.019-0.022-0.031-0.028s-0.027-0.007-0.040-0.005-0.026 0.009-0.036 0.020c-0.010 0.010-0.017 0.023-0.021 0.038-0.353 1.496-0.176 2.967-0.176 2.967l2.604-1.655c-0.108-0.413-0.198-0.825-0.274-1.229z"></path>
<path fill="#fff" style="fill: var(--color6, #fff)" opacity="0.6" d="M20.595 19.824c-0.215-0.298-0.653-1.22-0.84-1.622-0.007-0.016-0.019-0.029-0.033-0.038s-0.030-0.012-0.047-0.011c-0.016 0.002-0.031 0.009-0.044 0.020s-0.022 0.026-0.026 0.044c-0.202 0.761-0.32 1.546-0.35 2.338-0.27-0.236-0.501-0.519-0.686-0.839-0.008-0.012-0.019-0.022-0.031-0.028s-0.027-0.007-0.040-0.005-0.026 0.009-0.036 0.020c-0.010 0.010-0.017 0.023-0.021 0.038-0.353 1.496-0.176 2.967-0.176 2.967l2.604-1.655c-0.108-0.413-0.198-0.825-0.274-1.229z"></path>
</symbol>
</defs>
</svg>
