<svg width="338" height="312" viewBox="0 0 338 312" fill="none" xmlns="http://www.w3.org/2000/svg">
<path d="M49.4981 285.556C115.499 319.798 222.501 319.798 288.502 285.556C354.503 251.314 354.495 195.8 288.502 161.558C222.508 127.316 115.499 127.316 49.4981 161.558C-16.5033 195.8 -16.4954 251.314 49.4981 285.556Z" fill="#F5F5F5"/>
<path d="M289.408 201.159C302.272 201.159 312.7 196.224 312.7 190.136C312.7 184.048 302.272 179.113 289.408 179.113C276.544 179.113 266.115 184.048 266.115 190.136C266.115 196.224 276.544 201.159 289.408 201.159Z" fill="#E6E6E6"/>
<path d="M49.0884 265.645C60.8822 265.645 70.443 261.12 70.443 255.538C70.443 249.956 60.8822 245.43 49.0884 245.43C37.2946 245.43 27.7339 249.956 27.7339 255.538C27.7339 261.12 37.2946 265.645 49.0884 265.645Z" fill="#E6E6E6"/>
<path d="M207.637 285.079C219.909 285.079 229.858 280.368 229.858 274.556C229.858 268.745 219.909 264.034 207.637 264.034C195.364 264.034 185.416 268.745 185.416 274.556C185.416 280.368 195.364 285.079 207.637 285.079Z" fill="#E6E6E6"/>
<path d="M97.3428 234.728C109.615 234.728 119.564 230.017 119.564 224.206C119.564 218.395 109.615 213.684 97.3428 213.684C85.0705 213.684 75.1218 218.395 75.1218 224.206C75.1218 230.017 85.0705 234.728 97.3428 234.728Z" fill="#E6E6E6"/>
<path d="M228.109 164.406C228.652 157.92 243.619 133.59 248.195 129.819C252.772 126.048 260.854 116.52 257.372 111.106C253.89 105.692 243.658 108.102 234.048 124.977C226.597 138.065 224.281 167.011 224.281 167.011L228.109 164.406Z" fill="#02897A"/>
<path d="M226.061 163.795H225.998C225.947 163.788 225.898 163.77 225.854 163.743C225.81 163.717 225.772 163.682 225.742 163.64C225.712 163.598 225.69 163.551 225.679 163.501C225.667 163.451 225.666 163.4 225.675 163.349C229.905 136.187 238.893 119.242 253.15 111.544C253.242 111.494 253.35 111.483 253.45 111.512C253.5 111.527 253.547 111.551 253.587 111.583C253.627 111.615 253.661 111.655 253.686 111.7C253.711 111.746 253.726 111.795 253.732 111.847C253.737 111.898 253.732 111.949 253.718 111.999C253.703 112.048 253.679 112.094 253.646 112.134C253.614 112.174 253.574 112.208 253.528 112.232C239.499 119.805 230.645 136.57 226.447 163.474C226.431 163.564 226.383 163.646 226.312 163.704C226.242 163.763 226.153 163.795 226.061 163.795V163.795Z" fill="white"/>
<path d="M229.613 132.941C229.613 132.941 241.626 112.319 251.574 102.876C257.088 97.6423 260.475 94.2704 260.176 90.3119C259.956 87.3078 257.443 85.704 252.039 87.0262C241.271 89.6547 235.498 100.49 231.78 112.624C229.141 121.167 229.613 132.941 229.613 132.941Z" fill="#37474F"/>
<path opacity="0.2" d="M229.613 132.941C229.613 132.941 241.626 112.319 251.574 102.876C257.088 97.6423 260.475 94.2704 260.176 90.3119C259.956 87.3078 257.443 85.704 252.039 87.0262C241.271 89.6547 235.498 100.49 231.78 112.624C229.141 121.167 229.613 132.941 229.613 132.941Z" fill="#00FFE3"/>
<path d="M231.008 129.553H230.953C230.849 129.536 230.755 129.479 230.694 129.394C230.632 129.309 230.606 129.203 230.622 129.099C234.899 102.297 251.157 92.2052 256.041 89.7487C256.134 89.7023 256.242 89.6943 256.34 89.7266C256.439 89.7588 256.521 89.8286 256.569 89.9208C256.593 89.9663 256.608 90.0162 256.612 90.0675C256.616 90.1188 256.61 90.1705 256.594 90.2194C256.578 90.2683 256.552 90.3135 256.518 90.3523C256.484 90.391 256.442 90.4225 256.395 90.4449C251.598 92.8623 235.624 102.782 231.402 129.225C231.387 129.317 231.338 129.401 231.266 129.462C231.194 129.522 231.102 129.554 231.008 129.553V129.553Z" fill="white"/>
<path d="M296.899 72.0681L294.299 67.2177L296.387 61.2252V57.5561L289.991 61.2252V64.8942L292.74 69.6351C292.783 69.7093 292.849 69.7671 292.929 69.7994L296.899 72.0681Z" fill="#11B5E4"/>
<path opacity="0.1" d="M296.899 72.0681L294.299 67.2177L296.387 61.2252V57.5561L289.991 61.2252V64.8942L292.74 69.6351C292.783 69.7093 292.849 69.7671 292.929 69.7994L296.899 72.0681Z" fill="black"/>
<path d="M282.059 49.2947L299.671 39.1246C300.267 38.8274 300.923 38.6726 301.59 38.6726C302.256 38.6726 302.912 38.8274 303.508 39.1246L305.083 40.0242C305.643 40.3845 306.11 40.8715 306.444 41.4454C306.778 42.0193 306.97 42.6636 307.005 43.3256V57.5013C306.968 58.1629 306.775 58.8065 306.441 59.3801C306.107 59.9537 305.642 60.4411 305.083 60.8027L287.454 70.9729C286.859 71.2701 286.202 71.4249 285.536 71.4249C284.87 71.4249 284.213 71.2701 283.618 70.9729L282.043 70.0732C281.484 69.7116 281.02 69.2241 280.687 68.6504C280.355 68.0766 280.163 67.433 280.129 66.7718V52.5805C280.169 51.9211 280.365 51.2803 280.7 50.7097C281.035 50.139 281.501 49.6544 282.059 49.2947V49.2947Z" fill="#11B5E4"/>
<path opacity="0.3" d="M282.059 49.2947L299.671 39.1246C300.267 38.8274 300.923 38.6726 301.59 38.6726C302.256 38.6726 302.912 38.8274 303.508 39.1246L305.083 40.0242C305.643 40.3845 306.11 40.8715 306.444 41.4454C306.778 42.0193 306.97 42.6636 307.005 43.3256V57.5013C306.968 58.1629 306.775 58.8065 306.441 59.3801C306.107 59.9537 305.642 60.4411 305.083 60.8027L287.454 70.9729C286.859 71.2701 286.202 71.4249 285.536 71.4249C284.87 71.4249 284.213 71.2701 283.618 70.9729L282.043 70.0732C281.484 69.7116 281.02 69.2241 280.687 68.6504C280.355 68.0766 280.163 67.433 280.129 66.7718V52.5805C280.169 51.9211 280.365 51.2803 280.7 50.7097C281.035 50.139 281.501 49.6544 282.059 49.2947V49.2947Z" fill="white"/>
<path d="M287.462 70.9572C286.399 71.5596 285.54 71.0746 285.54 69.8542V55.6785C285.577 55.0169 285.77 54.3733 286.104 53.7997C286.438 53.2261 286.903 52.7387 287.462 52.3771L305.091 42.2069C306.154 41.5967 307.013 42.0896 307.013 43.31V57.4857C306.976 58.1472 306.783 58.7909 306.449 59.3645C306.115 59.9381 305.65 60.4254 305.091 60.7871" fill="#11B5E4"/>
<path d="M280.145 66.7562C280.179 67.4173 280.371 68.061 280.703 68.6347C281.036 69.2085 281.5 69.696 282.059 70.0575L283.634 70.9572C284.175 71.2267 284.766 71.3793 285.371 71.4049C285.975 71.4305 286.578 71.3286 287.139 71.1059C286.241 71.4501 285.564 70.9416 285.564 69.8541V55.6785C285.589 55.015 285.785 54.3688 286.131 53.8009L280.727 50.6716C280.384 51.2403 280.191 51.8864 280.168 52.5492L280.145 66.7562Z" fill="#11B5E4"/>
<path opacity="0.1" d="M280.145 66.7562C280.179 67.4173 280.371 68.061 280.703 68.6347C281.036 69.2085 281.5 69.696 282.059 70.0575L283.634 70.9572C284.175 71.2267 284.766 71.3793 285.371 71.4049C285.975 71.4305 286.578 71.3286 287.139 71.1059C286.241 71.4501 285.564 70.9416 285.564 69.8541V55.6785C285.589 55.015 285.785 54.3688 286.131 53.8009L280.727 50.6716C280.384 51.2403 280.191 51.8864 280.168 52.5492L280.145 66.7562Z" fill="black"/>
<path d="M294 67.1943L296.749 71.9274C296.79 71.994 296.849 72.0479 296.919 72.0829C296.989 72.1179 297.067 72.1326 297.145 72.1252C297.224 72.1179 297.298 72.0888 297.36 72.0414C297.423 71.9939 297.47 71.93 297.497 71.857L300.404 63.5253V59.8562L294 63.5253V67.1943Z" fill="#11B5E4"/>
<path d="M296.284 62.3517L294.315 61.8353C292.44 61.3425 290.203 60.2707 290.203 57.869C290.298 56.8904 290.623 55.9478 291.153 55.1173C291.682 54.2869 292.401 53.592 293.252 53.089C293.53 52.891 293.858 52.7709 294.199 52.7413C294.54 52.7117 294.884 52.7737 295.193 52.9208C295.502 53.0678 295.765 53.2946 295.956 53.5774C296.147 53.8602 296.257 54.1887 296.277 54.5285C296.473 52.9638 297.75 50.5073 299.301 49.6155C300.987 48.6532 302.35 49.2243 302.35 50.8985C302.35 53.2924 300.12 56.938 298.246 59.5823L296.284 62.3517Z" fill="white"/>
<path d="M35.871 109.299L53.4997 99.1677C54.0937 98.8669 54.751 98.71 55.4177 98.71C56.0845 98.71 56.7418 98.8669 57.3358 99.1677L58.9112 100.06C59.4683 100.422 59.9317 100.91 60.2642 101.484C60.5967 102.057 60.7889 102.7 60.8253 103.361V117.537C60.7889 118.197 60.5967 118.84 60.2642 119.414C59.9317 119.987 59.4683 120.475 58.9112 120.838L41.3061 130.969C40.7107 131.27 40.0521 131.427 39.3841 131.427C38.7161 131.427 38.0575 131.27 37.4621 130.969L35.8867 130.077C35.3206 129.714 34.8497 129.223 34.5127 128.643C34.1758 128.064 33.9825 127.413 33.949 126.745V112.6C33.9838 111.938 34.1761 111.294 34.5102 110.72C34.8443 110.146 35.3106 109.659 35.871 109.299V109.299Z" fill="#FF7800"/>
<path opacity="0.3" d="M35.871 109.299L53.4997 99.1677C54.0937 98.8669 54.751 98.71 55.4177 98.71C56.0845 98.71 56.7418 98.8669 57.3358 99.1677L58.9112 100.06C59.4683 100.422 59.9317 100.91 60.2642 101.484C60.5967 102.057 60.7889 102.7 60.8253 103.361V117.537C60.7889 118.197 60.5967 118.84 60.2642 119.414C59.9317 119.987 59.4683 120.475 58.9112 120.838L41.3061 130.969C40.7107 131.27 40.0521 131.427 39.3841 131.427C38.7161 131.427 38.0575 131.27 37.4621 130.969L35.8867 130.077C35.3206 129.714 34.8497 129.223 34.5127 128.643C34.1758 128.064 33.9825 127.413 33.949 126.745V112.6C33.9838 111.938 34.1761 111.294 34.5102 110.72C34.8443 110.146 35.3106 109.659 35.871 109.299V109.299Z" fill="white"/>
<path d="M50.7033 132.088L48.1039 127.23L50.1992 121.237V117.568L43.7952 121.268V124.937L46.5521 129.631C46.5938 129.704 46.6571 129.761 46.7333 129.796V129.796L50.7033 132.088Z" fill="#FF7800"/>
<path opacity="0.1" d="M50.7033 132.088L48.1039 127.23L50.1992 121.237V117.568L43.7952 121.268V124.937L46.5521 129.631C46.5938 129.704 46.6571 129.761 46.7333 129.796V129.796L50.7033 132.088Z" fill="black"/>
<path d="M41.306 130.969C40.2426 131.579 39.384 131.086 39.384 129.866V115.69C39.4207 115.03 39.6139 114.387 39.9479 113.815C40.2818 113.243 40.7472 112.757 41.306 112.397L58.9426 102.227C59.9981 101.624 60.8567 102.117 60.8567 103.33V117.505C60.8203 118.166 60.6281 118.809 60.2956 119.382C59.9632 119.956 59.4997 120.444 58.9426 120.807" fill="#FF7800"/>
<path d="M33.949 126.745C33.9857 127.406 34.1788 128.05 34.5127 128.623C34.8466 129.197 35.312 129.684 35.871 130.046L37.4464 130.938C37.9882 131.207 38.581 131.36 39.1862 131.387C39.7914 131.414 40.3955 131.314 40.9595 131.094C40.0536 131.431 39.3841 130.922 39.3841 129.835V115.69C39.4072 115.028 39.5997 114.381 39.9434 113.813L34.5476 110.723C34.2012 111.29 34.006 111.937 33.9805 112.6L33.949 126.745Z" fill="#FF7800"/>
<path opacity="0.1" d="M33.949 126.745C33.9857 127.406 34.1788 128.05 34.5127 128.623C34.8466 129.197 35.312 129.684 35.871 130.046L37.4464 130.938C37.9882 131.207 38.581 131.36 39.1862 131.387C39.7914 131.414 40.3955 131.314 40.9595 131.094C40.0536 131.431 39.3841 130.922 39.3841 129.835V115.69C39.4072 115.028 39.5997 114.381 39.9434 113.813L34.5476 110.723C34.2012 111.29 34.006 111.937 33.9805 112.6L33.949 126.745Z" fill="black"/>
<path d="M47.8125 127.206L50.5616 131.9C50.601 131.967 50.6589 132.022 50.7286 132.057C50.7982 132.093 50.8766 132.108 50.9545 132.1C51.0324 132.093 51.1065 132.063 51.1681 132.015C51.2297 131.967 51.2761 131.903 51.302 131.83L54.2086 123.498V119.829L47.8125 123.498V127.206Z" fill="#FF7800"/>
<path d="M43.433 118.741C42.9016 119.081 42.4603 119.543 42.1464 120.087C41.8324 120.632 41.655 121.244 41.6292 121.871C41.6292 123.013 42.4168 123.435 43.433 122.903C43.9608 122.56 44.3993 122.097 44.7128 121.554C45.0263 121.01 45.2058 120.4 45.2368 119.774C45.2447 118.632 44.457 118.139 43.433 118.741Z" fill="white"/>
<path d="M50.0891 114.916C49.5589 115.257 49.1182 115.719 48.8032 116.263C48.4881 116.808 48.3079 117.418 48.2773 118.045C48.2773 119.187 49.065 119.649 50.0891 119.078C50.6168 118.734 51.0554 118.272 51.3689 117.728C51.6824 117.184 51.8619 116.574 51.8929 115.949C51.8929 114.806 51.0816 114.345 50.0891 114.916Z" fill="white"/>
<path d="M56.7372 111.098C56.2094 111.442 55.7708 111.904 55.4574 112.448C55.1439 112.992 54.9643 113.602 54.9333 114.227C54.9333 115.37 55.721 115.792 56.7372 115.26C57.2686 114.92 57.7098 114.459 58.0238 113.914C58.3378 113.37 58.5152 112.758 58.541 112.131C58.541 110.981 57.7376 110.519 56.7372 111.098Z" fill="white"/>
<path d="M222.8 6.60359L146.22 50.4918C145.227 51.1351 144.401 52.0015 143.809 53.0209C143.216 54.0403 142.874 55.1839 142.809 56.3592V224.707C142.809 226.866 144.337 227.742 146.22 226.663L222.8 182.774C223.792 182.131 224.618 181.265 225.211 180.245C225.804 179.226 226.146 178.082 226.211 176.907V8.55939C226.211 6.40019 224.683 5.52399 222.8 6.60359Z" fill="#37474F"/>
<path d="M146.22 50.4918L222.8 6.60359C224.486 5.64133 225.88 6.24372 226.156 7.92571C226 6.86747 225.621 5.85394 225.042 4.95186C224.464 4.04977 223.7 3.27957 222.8 2.69198L220.02 1.12734C218.963 0.594736 217.794 0.317169 216.609 0.317169C215.424 0.317169 214.255 0.594736 213.198 1.12734L136.618 44.9921C135.61 45.6162 134.781 46.4861 134.208 47.519L143.81 52.9952C144.386 51.971 145.215 51.1094 146.22 50.4918V50.4918Z" fill="#455A64"/>
<path d="M133.207 219.199C133.27 220.375 133.612 221.519 134.205 222.539C134.798 223.558 135.624 224.424 136.618 225.067L139.398 226.631C140.36 227.113 141.413 227.386 142.488 227.433C143.563 227.48 144.637 227.3 145.637 226.905C144.062 227.508 142.809 226.608 142.809 224.676V56.3357C142.849 55.1554 143.193 54.0051 143.809 52.9952L134.207 47.519C133.593 48.5295 133.248 49.6795 133.207 50.8595V219.199Z" fill="#263238"/>
<path d="M148.055 71.458L220.965 29.6742C222.091 29.0249 223.013 29.549 223.013 30.8477V158.296C222.972 159.001 222.766 159.686 222.41 160.298C222.055 160.909 221.559 161.429 220.965 161.816L148.055 203.592C146.929 204.241 146.007 203.717 146.007 202.419V74.9784C146.045 74.2728 146.25 73.5861 146.606 72.9743C146.962 72.3625 147.459 71.8429 148.055 71.458Z" fill="#FAFAFA"/>
<path d="M183.738 35.0801C183.39 35.3072 183.1 35.6125 182.892 35.9712C182.684 36.3299 182.564 36.7321 182.541 37.1454C182.541 37.9277 183.076 38.2172 183.738 37.8338C184.087 37.6076 184.378 37.3026 184.586 36.9437C184.794 36.5848 184.914 36.1821 184.935 35.7685C184.935 35.0097 184.4 34.7046 183.738 35.0801Z" fill="#263238"/>
<path d="M172.403 47.1905C171.711 47.6473 171.137 48.2591 170.726 48.9765C170.316 49.6939 170.081 50.497 170.04 51.3211C170.04 52.8388 171.111 53.4569 172.403 52.698C173.102 52.2459 173.685 51.6362 174.102 50.9184C174.52 50.2006 174.761 49.3951 174.805 48.5674C174.805 47.0497 173.726 46.4316 172.403 47.1905Z" fill="#263238"/>
<path d="M178.271 46.6741C178.271 47.6911 179.059 48.0744 179.981 47.5346L195.735 38.4832C196.221 38.1791 196.628 37.7658 196.924 37.2765C197.219 36.7873 197.395 36.2359 197.436 35.6668C197.436 34.6576 196.648 34.2743 195.735 34.8141L179.981 43.8655C179.494 44.1674 179.085 44.5791 178.788 45.067C178.491 45.5549 178.314 46.1055 178.271 46.6741Z" fill="#263238"/>
<path d="M138.516 76.4962C139.076 76.8564 139.543 77.3435 139.877 77.9173C140.211 78.4912 140.403 79.1356 140.438 79.7976C140.438 81.0102 139.58 81.5031 138.516 80.9007C137.958 80.5365 137.495 80.0473 137.162 79.4725C136.83 78.8977 136.638 78.2534 136.602 77.5914C136.618 76.3788 137.461 75.8938 138.516 76.4962Z" fill="#37474F"/>
<path d="M138.516 91.1802C139.075 91.5418 139.54 92.0292 139.874 92.6028C140.208 93.1764 140.401 93.82 140.438 94.4816C140.438 95.702 139.579 96.1949 138.516 95.5847C137.967 95.2239 137.51 94.7415 137.18 94.1754C136.851 93.6093 136.658 92.975 136.618 92.3224C136.618 91.0707 137.461 90.5778 138.516 91.1802Z" fill="#37474F"/>
<path d="M137.925 76.7856C138.484 77.1472 138.95 77.6346 139.284 78.2081C139.618 78.7817 139.811 79.4254 139.847 80.087C139.847 81.3074 138.989 81.8003 137.925 81.19C137.367 80.8275 136.903 80.3399 136.569 79.7665C136.235 79.1931 136.041 78.5499 136.003 77.8886C136.003 76.676 136.87 76.1832 137.925 76.7856Z" fill="#455A64"/>
<path d="M137.925 91.4776C138.484 91.8392 138.95 92.3266 139.284 92.9002C139.618 93.4738 139.811 94.1174 139.847 94.779C139.847 95.9994 138.989 96.4923 137.925 95.8821C137.367 95.5195 136.903 95.032 136.569 94.4586C136.235 93.8852 136.041 93.242 136.003 92.5807C136.003 91.3603 136.87 90.8674 137.925 91.4776Z" fill="#455A64"/>
<path d="M184.51 188.329C183.133 189.222 181.988 190.425 181.166 191.84C180.345 193.255 179.872 194.842 179.784 196.473C179.784 199.477 181.903 200.69 184.51 199.195C185.887 198.301 187.032 197.096 187.853 195.68C188.675 194.264 189.148 192.676 189.236 191.044C189.244 188.04 187.125 186.827 184.51 188.329Z" fill="#263238"/>
<path d="M163.171 201.777C162.502 201.777 162.431 200.995 162.431 200.713V73.2731C162.472 72.6367 162.66 72.0184 162.981 71.4661C163.302 70.9139 163.747 70.4426 164.282 70.089L237.191 28.3052C237.409 28.176 237.655 28.1008 237.908 28.0862C238.578 28.0862 238.648 28.8216 238.648 29.1423V156.59C238.608 157.226 238.42 157.843 238.098 158.394C237.777 158.945 237.332 159.415 236.797 159.766L163.888 201.55C163.673 201.686 163.426 201.764 163.171 201.777V201.777Z" fill="white" stroke="#141414" stroke-miterlimit="10"/>
<path d="M237.908 28.4773C238.207 28.4773 238.255 28.892 238.255 29.1423V156.59C238.215 157.157 238.045 157.708 237.759 158.2C237.472 158.693 237.076 159.113 236.6 159.43L163.691 201.214C163.534 201.312 163.356 201.371 163.171 201.386C162.872 201.386 162.825 200.963 162.825 200.713V73.273C162.864 72.7058 163.034 72.1551 163.321 71.6629C163.607 71.1707 164.003 70.7501 164.479 70.4332L237.388 28.6494C237.543 28.5479 237.723 28.4886 237.908 28.4773V28.4773ZM237.908 27.695C237.585 27.7057 237.27 27.8001 236.994 27.9688L164.085 69.7526C163.488 70.1376 162.992 70.6571 162.636 71.2689C162.28 71.8807 162.075 72.5674 162.037 73.273V200.713C162.037 201.636 162.502 202.168 163.171 202.168C163.495 202.154 163.81 202.057 164.085 201.887L236.994 160.111C237.59 159.725 238.087 159.206 238.443 158.594C238.798 157.982 239.004 157.296 239.042 156.59V29.1423C239.042 28.227 238.578 27.695 237.908 27.695V27.695Z" fill="#37474F" stroke="#141414" stroke-miterlimit="10"/>
<path d="M239.019 29.1423C239.019 27.8436 238.105 27.3195 236.971 27.9688L164.061 69.7526C163.465 70.1375 162.968 70.6571 162.612 71.2689C162.256 71.8807 162.051 72.5674 162.013 73.273V83.717L239.019 39.5863V29.1423Z" fill="#37474F"/>
<path opacity="0.1" d="M239.019 29.1423C239.019 27.8436 238.105 27.3195 236.971 27.9688L164.061 69.7526C163.465 70.1375 162.968 70.6571 162.612 71.2689C162.256 71.8807 162.051 72.5674 162.013 73.273V83.717L239.019 39.5863V29.1423Z" fill="black"/>
<path d="M170.071 72.162C169.942 72.1134 169.802 72.0972 169.665 72.1149C169.527 72.1327 169.396 72.1838 169.284 72.2637C168.879 72.5307 168.541 72.8872 168.298 73.3052C168.055 73.7232 167.912 74.1914 167.882 74.6733C167.862 74.8119 167.88 74.9533 167.934 75.0827C167.988 75.212 168.076 75.3246 168.189 75.4086C168.318 75.4614 168.459 75.4791 168.598 75.4599C168.736 75.4406 168.867 75.3851 168.976 75.2991C169.379 75.0321 169.714 74.6765 169.956 74.26C170.198 73.8434 170.34 73.3772 170.371 72.8974C170.391 72.7594 170.374 72.6185 170.322 72.4892C170.269 72.3599 170.183 72.247 170.071 72.162Z" fill="white"/>
<path d="M171.734 69.4944L171.56 69.5961V69.244C171.56 68.7512 171.214 68.5478 170.773 68.7981L167.464 70.6913C167.237 70.8376 167.047 71.0348 166.91 71.2672C166.773 71.4995 166.693 71.7605 166.677 72.0291V72.389L166.495 72.4907C166.193 72.6858 165.941 72.949 165.761 73.259C165.58 73.5689 165.475 73.9168 165.456 74.2743V77.4584C165.456 78.1155 165.92 78.3894 166.495 78.0608L171.718 75.0645C172.021 74.8681 172.273 74.6036 172.453 74.2923C172.634 73.981 172.738 73.6318 172.758 73.273V70.0733C172.773 69.4318 172.309 69.1658 171.734 69.4944ZM169.276 75.8155C169.021 75.9699 168.731 76.0562 168.433 76.0659C168.24 76.0677 168.05 76.0191 167.882 75.925C167.678 75.7885 167.514 75.6007 167.408 75.3807C167.301 75.1608 167.255 74.9166 167.275 74.6733C167.303 74.0871 167.471 73.516 167.767 73.0082C168.064 72.5003 168.478 72.0706 168.977 71.7553C169.177 71.612 169.412 71.526 169.658 71.5067C169.904 71.4874 170.151 71.5355 170.371 71.6458C170.575 71.7815 170.738 71.9694 170.844 72.1897C170.949 72.4101 170.993 72.6546 170.969 72.8975C170.942 73.4827 170.773 74.0528 170.479 74.5604C170.184 75.068 169.772 75.4983 169.276 75.8155V75.8155ZM171.639 71.5675C171.371 71.7162 171.159 71.5675 171.159 71.2859C171.167 71.1197 171.214 70.9578 171.298 70.8136C171.381 70.6694 171.498 70.5471 171.639 70.4566C171.907 70.3002 172.127 70.4566 172.127 70.7304C172.121 70.8955 172.077 71.0569 171.998 71.2021C171.918 71.3473 171.806 71.4724 171.671 71.5675H171.639Z" fill="white"/>
<path d="M234.828 32.3576L229.732 35.2757C229.436 35.4668 229.19 35.7243 229.014 36.0274C228.837 36.3305 228.735 36.6706 228.716 37.0202V40.1495C228.716 40.7832 229.172 41.0492 229.732 40.7285L232.764 38.9917L233.954 40.173C233.982 40.1987 234.017 40.2159 234.054 40.2223C234.092 40.2288 234.13 40.2243 234.165 40.2094C234.2 40.1945 234.23 40.1698 234.251 40.1384C234.273 40.1069 234.284 40.07 234.285 40.0322V38.1155L234.828 37.8026C235.128 37.6141 235.378 37.3577 235.559 37.0544C235.74 36.7512 235.846 36.4097 235.868 36.058V32.9287C235.868 32.295 235.387 32.0369 234.828 32.3576Z" fill="white"/>
<path d="M171.852 81.8551C174.514 80.3531 176.672 81.5735 176.672 84.5933C176.577 86.2449 176.09 87.8508 175.253 89.2808C174.415 90.7108 173.25 91.9244 171.852 92.8233C169.181 94.3879 167.023 93.1284 167.023 90.0852C167.112 88.4312 167.597 86.8222 168.437 85.3911C169.276 83.96 170.447 82.748 171.852 81.8551V81.8551Z" fill="#37474F"/>
<path d="M181.446 78.1702L197.444 69.0014C198.389 68.4616 199.153 68.8449 199.153 69.8541C199.112 70.424 198.935 70.9761 198.638 71.4655C198.341 71.9549 197.932 72.3678 197.444 72.6705L181.446 81.8393C180.508 82.3791 179.744 81.9957 179.744 80.9865C179.786 80.4174 179.961 79.866 180.257 79.3768C180.552 78.8875 180.96 78.4742 181.446 78.1702Z" fill="#37474F"/>
<g opacity="0.7">
<path opacity="0.7" d="M181.446 78.1702L197.444 69.0014C198.389 68.4616 199.153 68.8449 199.153 69.8541C199.112 70.424 198.935 70.9761 198.638 71.4655C198.341 71.9549 197.932 72.3678 197.444 72.6705L181.446 81.8393C180.508 82.3791 179.744 81.9957 179.744 80.9865C179.786 80.4174 179.961 79.866 180.257 79.3768C180.552 78.8875 180.96 78.4742 181.446 78.1702Z" fill="white"/>
</g>
<path d="M180.91 84.6713L191.883 78.4128C192.529 78.0451 193.049 78.3032 193.049 78.9995C193.02 79.3898 192.9 79.7681 192.698 80.1037C192.495 80.4394 192.216 80.7231 191.883 80.9318L180.91 87.1904C180.264 87.5581 179.744 87.2921 179.744 86.5958C179.773 86.2067 179.894 85.8298 180.096 85.4955C180.299 85.1612 180.578 84.8789 180.91 84.6713Z" fill="#37474F"/>
<g opacity="0.7">
<path opacity="0.7" d="M180.91 84.6713L191.883 78.4128C192.529 78.0451 193.049 78.3032 193.049 78.9995C193.02 79.3898 192.9 79.7681 192.698 80.1037C192.495 80.4394 192.216 80.7231 191.883 80.9318L180.91 87.1904C180.264 87.5581 179.744 87.2921 179.744 86.5958C179.773 86.2067 179.894 85.8298 180.096 85.4955C180.299 85.1612 180.578 84.8789 180.91 84.6713Z" fill="white"/>
</g>
<path d="M171.852 164.108C174.514 162.606 176.672 163.834 176.672 166.846C176.577 168.498 176.09 170.104 175.253 171.534C174.415 172.964 173.25 174.178 171.852 175.076C169.181 176.641 167.023 175.382 167.023 172.338C167.114 170.685 167.6 169.076 168.439 167.646C169.279 166.215 170.448 165.002 171.852 164.108Z" fill="#37474F"/>
<path d="M181.446 160.431L197.444 151.255C198.389 150.715 199.153 151.098 199.153 152.108C199.112 152.677 198.935 153.23 198.638 153.719C198.341 154.208 197.932 154.621 197.444 154.924L181.446 164.101C180.508 164.64 179.744 164.257 179.744 163.24C179.787 162.672 179.963 162.122 180.259 161.635C180.554 161.147 180.961 160.735 181.446 160.431Z" fill="#37474F"/>
<g opacity="0.7">
<path opacity="0.7" d="M181.446 160.431L197.444 151.255C198.389 150.715 199.153 151.098 199.153 152.108C199.112 152.677 198.935 153.23 198.638 153.719C198.341 154.208 197.932 154.621 197.444 154.924L181.446 164.101C180.508 164.64 179.744 164.257 179.744 163.24C179.787 162.672 179.963 162.122 180.259 161.635C180.554 161.147 180.961 160.735 181.446 160.431Z" fill="white"/>
</g>
<path d="M180.91 166.925L191.883 160.666C192.529 160.299 193.049 160.557 193.049 161.253C193.02 161.643 192.9 162.022 192.698 162.357C192.495 162.693 192.216 162.977 191.883 163.185L180.91 169.444C180.264 169.811 179.744 169.545 179.744 168.857C179.772 168.467 179.892 168.088 180.094 167.752C180.297 167.417 180.577 167.133 180.91 166.925V166.925Z" fill="#37474F"/>
<g opacity="0.7">
<path opacity="0.7" d="M180.91 166.925L191.883 160.666C192.529 160.299 193.049 160.557 193.049 161.253C193.02 161.643 192.9 162.022 192.698 162.357C192.495 162.693 192.216 162.977 191.883 163.185L180.91 169.444C180.264 169.811 179.744 169.545 179.744 168.857C179.772 168.467 179.892 168.088 180.094 167.752C180.297 167.417 180.577 167.133 180.91 166.925V166.925Z" fill="white"/>
</g>
<path d="M170.355 97.3762L230.937 62.6412C231.882 62.1014 232.646 62.5395 232.646 63.6191V123.709C232.614 124.298 232.443 124.872 232.146 125.383C231.849 125.894 231.435 126.328 230.937 126.651L170.355 161.589C169.41 162.129 168.654 161.691 168.654 160.611V100.31C168.684 99.7224 168.854 99.1503 169.15 98.6404C169.446 98.1306 169.859 97.6974 170.355 97.3762V97.3762Z" fill="#F5F5F5"/>
<path d="M192.592 111.137C192.437 110.912 192.223 110.733 191.974 110.62C191.724 110.507 191.448 110.464 191.176 110.495C190.903 110.527 190.644 110.632 190.427 110.799C190.211 110.965 190.044 111.188 189.945 111.442L168.677 151.56V160.611C168.677 161.691 169.465 162.129 170.379 161.589L230.961 126.831C231.458 126.508 231.872 126.074 232.169 125.563C232.466 125.052 232.638 124.478 232.67 123.889V103.862L221.162 83.5605C220.524 82.4261 219.634 82.4966 219.169 83.7092L203.848 124.038L192.592 111.137Z" fill="#37474F"/>
<g opacity="0.3">
<path opacity="0.3" d="M192.592 111.137C192.437 110.912 192.223 110.733 191.974 110.62C191.724 110.507 191.448 110.464 191.176 110.495C190.903 110.527 190.644 110.632 190.427 110.799C190.211 110.965 190.044 111.188 189.945 111.442L168.677 151.56V160.611C168.677 161.691 169.465 162.129 170.379 161.589L230.961 126.831C231.458 126.508 231.872 126.074 232.169 125.563C232.466 125.052 232.638 124.478 232.67 123.889V103.862L221.162 83.5605C220.524 82.4261 219.634 82.4966 219.169 83.7092L203.848 124.038L192.592 111.137Z" fill="#00564C"/>
</g>
<path d="M175.042 113.633C180.382 110.59 184.723 103.173 184.723 97.0712C184.723 93.9419 183.588 91.7984 181.785 90.8127L170.355 97.3607C169.859 97.6818 169.446 98.115 169.15 98.6249C168.854 99.1347 168.684 99.7068 168.654 100.294V114.486C170.355 115.245 172.584 115.01 175.042 113.633Z" fill="#37474F"/>
<g opacity="0.6">
<path opacity="0.6" d="M175.042 113.633C180.382 110.59 184.723 103.173 184.723 97.0712C184.723 93.9419 183.588 91.7984 181.785 90.8127L170.355 97.3607C169.859 97.6818 169.446 98.115 169.15 98.6249C168.854 99.1347 168.684 99.7068 168.654 100.294V114.486C170.355 115.245 172.584 115.01 175.042 113.633Z" fill="white"/>
</g>
<path d="M170.355 179.943L230.937 145.2C231.882 144.66 232.646 145.043 232.646 146.06C232.603 146.629 232.426 147.179 232.129 147.667C231.832 148.155 231.424 148.567 230.937 148.869L170.355 183.612C169.41 184.151 168.654 183.768 168.654 182.751C168.694 182.183 168.869 181.632 169.164 181.144C169.46 180.656 169.868 180.244 170.355 179.943V179.943Z" fill="#37474F"/>
<g opacity="0.6">
<path opacity="0.6" d="M170.355 179.943L230.937 145.2C231.882 144.66 232.646 145.043 232.646 146.06C232.603 146.629 232.426 147.179 232.129 147.667C231.832 148.155 231.424 148.567 230.937 148.869L170.355 183.612C169.41 184.151 168.654 183.768 168.654 182.751C168.694 182.183 168.869 181.632 169.164 181.144C169.46 180.656 169.868 180.244 170.355 179.943V179.943Z" fill="white"/>
</g>
<path d="M170.355 187.281L230.937 152.561C231.882 152.021 232.646 152.405 232.646 153.422C232.603 153.99 232.426 154.541 232.129 155.029C231.832 155.517 231.424 155.928 230.937 156.23L170.355 190.973C169.41 191.513 168.654 191.13 168.654 190.113C168.691 189.54 168.864 188.985 169.16 188.493C169.456 188 169.866 187.585 170.355 187.281V187.281Z" fill="#37474F"/>
<g opacity="0.6">
<path opacity="0.6" d="M170.355 187.281L230.937 152.561C231.882 152.021 232.646 152.405 232.646 153.422C232.603 153.99 232.426 154.541 232.129 155.029C231.832 155.517 231.424 155.928 230.937 156.23L170.355 190.973C169.41 191.513 168.654 191.13 168.654 190.113C168.691 189.54 168.864 188.985 169.16 188.493C169.456 188 169.866 187.585 170.355 187.281V187.281Z" fill="white"/>
</g>
<path d="M179.697 64.6675L222.918 39.907C224.241 39.1247 225.281 39.7662 225.281 41.2761C225.24 42.0959 225.005 42.8946 224.594 43.607C224.184 44.3194 223.609 44.9253 222.918 45.3754L179.705 70.0655C178.382 70.8478 177.342 70.222 177.342 68.7355C177.387 67.9218 177.623 67.1298 178.032 66.4233C178.441 65.7167 179.011 65.1154 179.697 64.6675V64.6675Z" fill="#FAFAFA"/>
<path d="M306.682 111.63L309.746 117.208L304.981 121.268L300.609 114.392L306.682 111.63Z" fill="#F28F8F"/>
<path d="M295.182 99.1991C298.222 99.1991 301.57 100.326 302.72 102.696L307.446 112.428C307.446 112.428 304.76 116.34 300.499 116.058L295.182 99.1991Z" fill="#E0E0E0"/>
<path d="M306.446 118.077C307.336 116.434 307.556 116.355 308.084 115.996C308.612 115.636 311.857 115.158 313.204 115.041C314.78 114.908 315.355 115.198 314.914 116.551C313.7 119.964 312.215 123.276 310.471 126.455C310.045 127.011 309.967 127.527 308.179 127.707C306.517 127.863 304.429 127.957 303.815 127.989C303.2 128.02 302.35 128.184 302.893 126.385C303.596 124.352 304.412 122.359 305.335 120.416C306.02 118.921 306.446 118.077 306.446 118.077Z" fill="#37474F"/>
<path d="M270.952 173.426C270.164 173.034 269.715 173.989 269.03 174.756C268.442 175.319 267.982 176.002 267.683 176.758C267.518 177.658 268.345 179.105 269.258 179.888C270.172 180.67 271.228 181.241 271.559 182.962C271.644 183.752 271.952 184.502 272.449 185.125C272.945 185.748 273.609 186.218 274.363 186.483C276.332 187.327 278.971 187.054 279.877 186.483C280.932 185.802 279.963 185.051 278.482 182.939C276.545 180.185 275.032 178.245 275.032 175.64L270.952 173.426Z" fill="#263238"/>
<path d="M272.504 171.165L270.929 173.512C270.589 173.991 270.454 174.585 270.554 175.163C270.655 175.741 270.982 176.255 271.464 176.594L271.511 176.633C271.996 176.919 272.566 177.027 273.122 176.94C273.679 176.853 274.187 176.576 274.56 176.156L277.049 173.465L272.504 171.165Z" fill="#FFA8A7"/>
<path d="M301.759 125.915C301.861 128.872 301.019 140.819 298.963 146.099C296.907 151.38 295.717 154.666 295.071 155.769C294.426 156.872 275.789 174.881 275.789 174.881C275.789 174.881 272.638 174.654 272.126 171.611C272.126 171.611 279.759 158.718 281.413 156.074C283.067 153.43 288.927 149.377 288.927 149.377L288.392 126.252L301.759 125.915Z" fill="#37474F"/>
<path d="M274.15 123.036C274.15 122.528 275.726 116.684 276.513 113.985L282.287 115.956L280.932 120.212L275.852 125.43C275.313 125.324 274.836 125.016 274.52 124.571C274.203 124.125 274.071 123.576 274.15 123.036V123.036Z" fill="#FFA8A7"/>
<path d="M297.653 188.851L301.594 187.961L300.289 182.262L296.349 183.152L297.653 188.851Z" fill="#FFA8A7"/>
<path d="M301.759 125.915H282.854C282.441 128.657 282.204 131.421 282.145 134.192C281.996 142.328 289.621 157.107 289.621 157.107C289.255 160.395 289.42 163.72 290.109 166.956C291.779 173.434 296.332 184.41 296.332 184.41C296.332 184.41 299.191 184.809 300.601 183.173C300.601 183.173 298.08 160.901 297.403 155.198C296.67 149.017 294.78 137.744 294.78 137.744C296.028 136.509 297.159 135.163 298.159 133.723C299.913 131.404 301.138 128.735 301.751 125.9" fill="#37474F"/>
<path d="M288.943 99.3633C285.32 100.232 280.381 101.358 278.955 105.254C277.529 109.15 275.473 116.058 275.473 116.058C276.261 117.427 280.633 118.561 282.153 117.771L282.862 115.424V125.892C285.698 128.958 295.575 130.382 301.767 125.892V106.334C301.767 103.204 300.018 99.4493 295.19 99.1755L288.943 99.3633Z" fill="#11B5E4"/>
<path d="M282.862 115.448L284.682 109.76L282.862 117.99V115.448Z" fill="#E0E0E0"/>
<path d="M287.58 83.3805C287.255 83.3445 286.926 83.3822 286.618 83.4906C286.31 83.599 286.03 83.7753 285.8 84.0063C285.012 84.7886 285.194 86.2203 285.8 89.5295L288.163 89.7955L287.58 83.3805Z" fill="#263238"/>
<path d="M301.373 82.4261C301.87 82.4313 302.362 82.3382 302.822 82.1523C303.547 81.7377 303.736 82.5591 303.334 83.271C303.072 83.7812 302.682 84.2159 302.202 84.5337C301.722 84.8515 301.168 85.0416 300.593 85.086C300.593 84.9843 299.916 83.2475 299.916 83.2475L301.373 82.4261Z" fill="#263238"/>
<path d="M288.691 89.7956C288.344 90.0069 287.84 89.3341 287.407 88.8881C287.238 88.6938 287.021 88.5456 286.778 88.4577C286.534 88.3698 286.273 88.345 286.017 88.3858C285.761 88.4265 285.52 88.5314 285.317 88.6905C285.114 88.8496 284.955 89.0577 284.855 89.2949C284.138 90.797 285.769 92.7997 286.73 93.4569C286.996 93.6883 287.329 93.8297 287.682 93.8606C288.035 93.8915 288.388 93.8104 288.691 93.629L288.943 99.3791C289.368 100.3 290.015 101.103 290.827 101.715C291.639 102.328 292.591 102.732 293.598 102.892C297.001 103.345 296.3 100.545 295.174 99.1991V97.1103C296.025 97.2889 296.9 97.3312 297.765 97.2355C298.206 97.1182 299.262 95.8508 299.947 94.427C301.4 91.5761 301.724 88.2874 300.853 85.2112C299.632 80.0635 294.063 79.9071 290.747 81.9802C287.431 84.0534 288.691 89.7956 288.691 89.7956Z" fill="#FFA8A7"/>
<path d="M288.691 90.3824C288.518 90.3824 287.848 89.2793 287.407 88.8881C286.8 88.3405 287.58 83.4119 287.58 83.4119C287.413 82.8821 287.379 82.3197 287.482 81.774C287.585 81.2283 287.822 80.7162 288.171 80.2826C289.368 79.0309 291.684 79.2421 293.378 79.1873C295.461 79.1955 297.525 78.7829 299.443 77.9747C301.853 76.9342 302.035 76.8169 302.326 77.8652C302.559 78.7315 302.588 79.6395 302.41 80.5187C302.233 81.3979 301.853 82.2246 301.302 82.9347L300.514 84.202C300.514 84.202 299.782 84.8122 297.537 85.086C295.292 85.3598 291.464 84.1551 290.983 84.0925C290.329 84.0064 290.195 84.6323 289.841 86.3456C289.542 87.8242 289.29 90.3745 288.691 90.3824Z" fill="#263238"/>
<path d="M287.588 83.7724L285.461 82.6376C285.529 82.4996 285.624 82.3763 285.74 82.2748C285.856 82.1733 285.991 82.0956 286.138 82.0462C286.284 81.9967 286.439 81.9765 286.593 81.9867C286.748 81.9969 286.898 82.0372 287.037 82.1054C287.329 82.2576 287.55 82.5167 287.653 82.8279C287.756 83.139 287.732 83.4778 287.588 83.7724V83.7724Z" fill="#263238"/>
<path d="M295.174 97.1103C293.724 96.8343 292.303 96.4285 290.928 95.8977C290.284 95.5598 289.755 95.0398 289.408 94.4035C289.574 95.0423 289.869 95.641 290.274 96.1637C291.062 97.1886 295.174 97.9396 295.174 97.9396V97.1103Z" fill="#F28F8F"/>
<path d="M295.276 89.6863C295.278 89.8552 295.213 90.0181 295.095 90.1397C294.977 90.2613 294.816 90.3318 294.646 90.3359C294.561 90.3339 294.478 90.3152 294.4 90.2811C294.322 90.247 294.252 90.198 294.194 90.1369C294.135 90.0759 294.089 90.004 294.059 89.9253C294.028 89.8467 294.014 89.7628 294.016 89.6785C294.014 89.5096 294.079 89.3467 294.197 89.2251C294.315 89.1035 294.476 89.0331 294.646 89.0289C294.731 89.031 294.814 89.0496 294.892 89.0837C294.97 89.1179 295.04 89.1669 295.098 89.2279C295.157 89.289 295.202 89.3609 295.233 89.4395C295.264 89.5182 295.278 89.6021 295.276 89.6863V89.6863Z" fill="#263238"/>
<path d="M294.607 87.3158L293.26 88.0984C293.208 88.0076 293.176 87.9077 293.164 87.8044C293.152 87.701 293.161 87.5964 293.191 87.4966C293.22 87.3968 293.269 87.3038 293.335 87.223C293.401 87.1422 293.482 87.0753 293.575 87.0262C293.752 86.9361 293.956 86.9159 294.148 86.9696C294.339 87.0233 294.503 87.147 294.607 87.3158Z" fill="#263238"/>
<path d="M294.89 93.8872L296.332 94.4271C296.26 94.6149 296.119 94.7683 295.938 94.8557C295.756 94.943 295.547 94.9577 295.355 94.8967C295.258 94.861 295.168 94.8065 295.092 94.7364C295.016 94.6662 294.954 94.5818 294.911 94.488C294.868 94.3941 294.844 94.2928 294.84 94.1896C294.837 94.0865 294.854 93.9837 294.89 93.8872V93.8872Z" fill="#F28F8F"/>
<path d="M300.9 87.8402L299.672 86.9011C299.795 86.7427 299.975 86.6373 300.174 86.6067C300.374 86.5762 300.577 86.6227 300.743 86.7368C300.827 86.7985 300.897 86.8761 300.951 86.9652C301.004 87.0543 301.039 87.1531 301.054 87.2558C301.069 87.3584 301.063 87.463 301.036 87.5633C301.01 87.6636 300.964 87.7578 300.9 87.8402V87.8402Z" fill="#263238"/>
<path d="M300.522 89.5064C300.524 89.6753 300.459 89.8382 300.341 89.9598C300.223 90.0814 300.062 90.1519 299.892 90.156C299.807 90.1539 299.724 90.1353 299.646 90.1012C299.568 90.067 299.498 90.0181 299.44 89.957C299.381 89.896 299.336 89.824 299.305 89.7454C299.274 89.6667 299.26 89.5829 299.262 89.4986C299.26 89.3297 299.325 89.1668 299.443 89.0452C299.561 88.9236 299.722 88.8532 299.892 88.849C300.063 88.8552 300.224 88.9274 300.342 89.0502C300.46 89.1731 300.524 89.3368 300.522 89.5064V89.5064Z" fill="#263238"/>
<path d="M297.553 89.4279L296.962 93.1518L299.034 92.9093L297.553 89.4279Z" fill="#F28F8F"/>
<path d="M301.144 186.06L301.018 185.497C301.428 185.575 303.2 188.493 304.957 189.76C306.879 191.145 308.541 191.967 309.4 192.592C310.55 193.43 308.888 195.143 306.06 195.299C304.658 195.37 302.121 194.947 301.333 194.204C300.546 193.461 299.979 192.233 299.348 191.701C298.718 191.169 297.466 190.699 297.033 190.019C296.801 189.343 296.718 188.625 296.788 187.914C296.788 187.179 296.844 186.35 297.096 186.389L297.19 186.811C297.921 187.181 298.734 187.362 299.553 187.335C300.239 187.304 301.475 187.155 301.144 186.06Z" fill="#263238"/>
<path d="M296.915 151.411C296.915 151.411 295.237 139.575 294.788 137.744C296.136 137.013 297.389 136.122 298.522 135.092C297.74 136.202 296.888 137.26 295.969 138.26L296.915 151.411Z" fill="#263238"/>
<path d="M286.793 150.996C286.793 150.996 288.809 155.98 289.628 157.083C289.628 157.083 289.424 160.885 289.447 161.652L288.392 162.567C288.364 160.847 288.523 159.129 288.864 157.443C287.938 155.376 287.244 153.214 286.793 150.996Z" fill="#263238"/>
<path d="M280.956 120.212C280.956 120.212 296.844 121.902 298.71 121.331C300.577 120.76 303.082 118.922 304.398 118.139C305.713 117.357 306.714 117.31 306.714 117.631C306.714 117.951 305.563 119.696 305.304 120.424C305.044 121.151 306.54 121.151 308.517 120.697C310.494 120.244 311.282 119.133 311.794 119.774C312.306 120.416 310.699 123.686 307.422 124.914C304.146 126.142 301.712 125.321 299.002 125.438C296.292 125.556 279.601 126.612 275.844 125.438C275.744 124.84 275.813 124.226 276.042 123.665C276.272 123.103 276.653 122.615 277.143 122.254C278.279 121.349 279.571 120.657 280.956 120.212V120.212Z" fill="#FFA8A7"/>
<path d="M192.875 195.589C192.914 195.08 193.883 189.604 194.545 186.537L201.028 188.509L199.988 192.804L194.6 197.983C194.057 197.881 193.575 197.576 193.254 197.13C192.932 196.684 192.797 196.132 192.875 195.589V195.589Z" fill="#FFA8A7"/>
<path d="M207.085 149.228H210.236C212.561 149.228 214.791 150.146 216.435 151.779C218.079 153.412 219.003 155.626 219.003 157.936V180.122H198.318V157.936C198.318 155.626 199.242 153.412 200.886 151.779C202.53 150.146 204.76 149.228 207.085 149.228Z" fill="#263238"/>
<path d="M224.233 184.081L227.297 189.659L222.524 193.711L218.16 186.835L224.233 184.081Z" fill="#F28F8F"/>
<path d="M212.733 171.642C215.773 171.642 219.121 172.768 220.271 175.139L224.997 184.871C224.997 184.871 222.311 188.782 218.05 188.509L212.733 171.642Z" fill="#455A64"/>
<path d="M215.19 268.157C216.237 269.547 217.413 270.836 218.704 272.006C218.911 272.171 219.075 272.383 219.184 272.624C219.318 273.031 219.491 274.009 217.672 274.408C216.749 274.608 215.794 274.61 214.871 274.411C213.948 274.213 213.079 273.819 212.323 273.258C210.992 272.194 211.15 270.324 209.921 269.096C209.007 268.196 207.77 267.844 207.085 266.749C206.605 265.966 206.864 265.035 207.298 263.885C207.731 262.735 208.038 261.687 208.456 261.836L208.314 262.415C208.747 263.33 211.465 263.909 212.796 263.471C213.512 265.073 214.311 266.637 215.19 268.157Z" fill="#263238"/>
<path d="M216.262 269.503C215.892 269.072 215.529 268.634 215.191 268.157C214.494 267.005 213.87 265.811 213.324 264.582C212.969 263.849 212.907 263.011 213.15 262.235L214.048 259.223L209.322 258.143L208.298 262.36C208.078 263.322 208.779 264.277 210.063 265.669C211.347 267.062 212.828 270.128 214.001 270.997C215.175 271.865 216.136 271.951 216.734 271.654C217.333 271.357 217.483 271.083 216.262 269.503Z" fill="#FFA8A7"/>
<path d="M202.477 270.809V270.144C202.745 270.926 203.958 274.259 205.801 275.933C207.274 277.255 209.275 278.796 209.779 280.275C210.283 281.754 206.998 282.333 205.628 282.09C203.799 281.786 202.122 280.892 200.854 279.547C200.067 278.585 199.563 277.443 198.995 276.684C198.428 275.925 197.136 275.12 196.837 274.212C196.742 273.395 196.831 272.566 197.097 271.787C197.318 271.005 197.546 270.074 197.83 270.144V270.692C198.504 271.213 199.338 271.489 200.193 271.474C200.839 271.474 202.485 271.325 202.477 270.809Z" fill="#263238"/>
<path d="M207.132 277.099L205.801 275.925C204.567 274.626 203.603 273.097 202.965 271.427C202.643 270.656 202.477 269.829 202.477 268.994V266.357H197.83V270.645V270.762C198.05 271.724 200.193 274.275 201.398 275.941C202.386 277.373 203.893 278.371 205.604 278.726C207.377 278.961 208.298 278.413 207.132 277.099Z" fill="#FFA8A7"/>
<path d="M198.751 199.023C195.152 206.846 198.885 234.392 198.885 234.392C198.775 235.667 197.31 238.163 196.774 243.78C196.128 250.383 197.782 266.952 197.782 266.952C198.494 267.367 199.297 267.601 200.122 267.634C200.946 267.667 201.766 267.497 202.509 267.14C202.509 267.14 206.943 242.176 207.778 235.612L210.441 214.552L214.379 235.104C213.325 236.714 212.454 238.435 211.78 240.236C210.842 243.138 208.944 259.677 208.944 259.677C209.585 260.258 210.351 260.687 211.183 260.929C212.016 261.172 212.894 261.223 213.749 261.077C213.749 261.077 222.847 238.39 223.257 233.758C223.501 230.981 219.421 197.912 219.421 197.912L198.751 199.023Z" fill="#37474F"/>
<path d="M210.409 214.521L211.039 209.999C211.039 209.999 215.994 208.982 218.239 206.87C216.689 208.675 214.662 210.013 212.386 210.734L211.725 215.1L212.512 225.215L210.409 214.521Z" fill="#263238"/>
<path d="M205.147 171.853C203.821 172.173 202.584 172.785 201.527 173.644C200.471 174.502 199.622 175.585 199.043 176.813C198.192 178.68 198.113 180.803 198.822 182.727L201.997 191.982C201.997 191.982 200.492 195.604 198.736 199.023C206.825 203.506 216.916 201.151 219.35 197.881C219.452 197.185 219.31 194.055 219.507 190.504C219.712 186.709 220.24 182.422 219.641 180.083C218.523 175.726 216.435 171.642 212.284 171.642L205.147 171.853Z" fill="#F03E3D"/>
<path d="M203.911 171.853C201.154 172.236 197.105 172.792 195.703 179.301C194.301 185.81 193.883 188.196 193.883 188.196C194.782 189.072 195.853 189.755 197.03 190.202C198.206 190.648 199.462 190.85 200.721 190.793L202.146 185.786L203.911 171.853Z" fill="#455A64"/>
<path d="M205.478 177.345C205.002 177.345 204.531 177.252 204.092 177.071C203.652 176.89 203.252 176.625 202.916 176.291C202.58 175.957 202.313 175.56 202.131 175.124C201.948 174.687 201.855 174.219 201.855 173.746V163.271H205.478V177.345Z" fill="#263238"/>
<path d="M215.608 153.382C216.703 154.024 218.05 156.754 217.916 162.473C217.806 167.323 216.223 168.528 215.427 168.872C214.631 169.217 213.103 169.005 211.614 168.755V171.665C211.614 171.665 213.67 174.012 213.544 175.381C213.418 176.75 210.567 177.032 208.637 175.726C207.394 174.83 206.326 173.717 205.486 172.44V165.399C205.329 165.59 205.136 165.748 204.917 165.864C204.698 165.98 204.458 166.051 204.212 166.075C203.965 166.098 203.716 166.072 203.479 165.999C203.242 165.926 203.022 165.807 202.832 165.649C201.185 164.562 201.122 161.878 202.083 160.955C203.044 160.032 205.1 160.298 205.486 161.628C207.433 161.543 209.328 160.979 211 159.985C212.24 159.326 213.304 158.383 214.105 157.235C214.906 156.087 215.422 154.767 215.608 153.382V153.382Z" fill="#FFA8A7"/>
<path d="M212.465 161.261C212.466 161.38 212.432 161.498 212.367 161.598C212.302 161.699 212.208 161.778 212.098 161.827C211.988 161.875 211.866 161.89 211.747 161.869C211.628 161.849 211.518 161.795 211.43 161.713C211.342 161.631 211.281 161.525 211.253 161.409C211.225 161.292 211.232 161.17 211.274 161.058C211.315 160.945 211.389 160.847 211.486 160.776C211.583 160.705 211.699 160.664 211.819 160.658C211.902 160.655 211.984 160.668 212.061 160.697C212.138 160.725 212.209 160.769 212.269 160.825C212.329 160.881 212.377 160.949 212.411 161.023C212.445 161.098 212.463 161.179 212.465 161.261V161.261Z" fill="#263238"/>
<path d="M212.63 165.368L214.056 165.822C214.031 165.917 213.986 166.006 213.925 166.084C213.864 166.162 213.788 166.226 213.701 166.274C213.614 166.321 213.519 166.351 213.42 166.361C213.321 166.37 213.221 166.36 213.127 166.33C212.935 166.264 212.777 166.127 212.684 165.948C212.592 165.769 212.573 165.561 212.63 165.368V165.368Z" fill="#F28F8F"/>
<path d="M217.498 159.383L216.262 158.53C216.314 158.447 216.382 158.375 216.463 158.319C216.544 158.263 216.635 158.224 216.732 158.204C216.828 158.184 216.928 158.184 217.025 158.204C217.121 158.224 217.213 158.263 217.294 158.319C217.459 158.436 217.573 158.612 217.611 158.81C217.65 159.009 217.609 159.214 217.498 159.383V159.383Z" fill="#263238"/>
<path d="M217.215 160.815C217.226 160.98 217.171 161.142 217.061 161.267C216.952 161.391 216.798 161.468 216.632 161.48C216.467 161.482 216.307 161.421 216.187 161.308C216.066 161.196 215.994 161.041 215.986 160.877C215.982 160.797 215.994 160.717 216.021 160.641C216.048 160.566 216.09 160.496 216.144 160.437C216.198 160.377 216.263 160.329 216.336 160.294C216.409 160.26 216.488 160.24 216.569 160.236C216.65 160.232 216.73 160.243 216.807 160.27C216.883 160.297 216.953 160.339 217.013 160.392C217.073 160.446 217.121 160.511 217.156 160.584C217.191 160.656 217.211 160.735 217.215 160.815V160.815Z" fill="#263238"/>
<path d="M214.316 160.47L214.419 164.139L216.364 163.537L214.316 160.47Z" fill="#F28F8F"/>
<path d="M211.615 168.755C210.039 168.552 206.81 167.629 206.305 166.361C206.506 167.004 206.902 167.57 207.44 167.981C208.401 168.802 211.615 169.733 211.615 169.733V168.755Z" fill="#F28F8F"/>
<path d="M223.989 190.519C224.879 188.876 225.1 188.806 225.635 188.446C226.171 188.086 229.409 187.601 230.756 187.484C232.331 187.351 232.906 187.64 232.465 189.002C231.237 192.412 229.741 195.721 227.991 198.898C227.565 199.461 227.479 199.978 225.698 200.15C223.918 200.322 221.941 200.4 221.327 200.439C220.712 200.478 219.862 200.627 220.413 198.828C221.115 196.796 221.928 194.803 222.847 192.858C223.564 191.38 223.989 190.519 223.989 190.519Z" fill="#37474F"/>
<path d="M199.988 192.835C199.988 192.835 214.395 194.345 216.262 193.774C218.129 193.203 220.634 191.349 221.981 190.582C223.328 189.815 224.296 189.753 224.296 190.066C224.296 190.378 223.146 192.139 222.879 192.858C222.611 193.578 224.123 193.586 226.092 193.132C228.062 192.678 228.857 191.568 229.377 192.209C229.897 192.851 228.282 196.121 225.005 197.349C221.729 198.577 219.295 197.764 216.585 197.873C213.875 197.983 198.357 199.187 194.6 198.014C194.501 197.416 194.57 196.802 194.799 196.24C195.028 195.678 195.409 195.19 195.9 194.83C197.115 193.901 198.505 193.222 199.988 192.835Z" fill="#FFA8A7"/>
<path d="M201.028 189.158C201.646 187.496 202.172 185.801 202.603 184.081C202.603 184.081 202.343 187.859 201.272 189.886L201.028 189.158Z" fill="#37474F"/>
<path d="M84.4563 142.634L81.8962 148.126L86.6618 152.178L90.7815 145.27L84.4563 142.634Z" fill="#F28F8F"/>
<path d="M96.2086 130.07C93.1681 130.07 89.8203 131.204 88.6703 133.567C87.5202 135.929 83.9441 143.307 83.9441 143.307C83.9441 143.307 86.6301 147.218 90.8916 146.937L96.2086 130.07Z" fill="#37474F"/>
<path d="M109.395 217.212H105.188V223.291H109.395V217.212Z" fill="#FFA8A7"/>
<path d="M94.6059 209.691L90.4021 209.835L90.6125 215.91L94.8163 215.766L94.6059 209.691Z" fill="#FFA8A7"/>
<path d="M109.111 157.865C109.111 161.855 109.631 187.641 109.631 187.641C109.733 188.783 110.813 190.903 110.576 195.307C110.261 201.292 109.741 217.916 109.741 217.916C109.741 217.916 107.772 219.857 105.015 217.916C105.015 217.916 101.203 195.323 100.454 189.393C99.7926 184.222 98.682 170.164 98.682 170.164L94.7829 186.71C94.7829 186.71 95.4682 190.621 95.6257 193.344C95.7833 196.066 94.9089 211.955 94.9089 211.955C94.2274 212.378 93.4465 212.616 92.6437 212.646C91.8409 212.676 91.0441 212.497 90.3324 212.127C90.3324 212.127 86.961 188.955 86.5278 186.475C86.0945 183.995 89.4817 157.865 89.4817 157.865H109.111Z" fill="#37474F"/>
<path d="M102.786 130.257H102.849C104.653 130.708 106.254 131.745 107.396 133.204C108.538 134.663 109.156 136.46 109.15 138.307V157.865C106.204 161.05 95.9329 162.559 89.458 157.865V137.525C89.458 134.279 91.2776 130.367 96.2952 130.077L102.786 130.257Z" fill="#02897A"/>
<path d="M104.204 113.617C104.542 113.58 104.884 113.619 105.204 113.731C105.525 113.844 105.816 114.027 106.055 114.267C106.842 115.049 106.685 116.575 106.055 120.009L103.597 120.291L104.204 113.617Z" fill="#263238"/>
<path d="M89.8597 112.663C89.3323 112.664 88.81 112.561 88.3237 112.358C87.536 111.928 87.3706 112.78 87.7802 113.516C88.0547 114.047 88.4617 114.499 88.9623 114.829C89.4629 115.159 90.0404 115.356 90.6396 115.401C90.6396 115.299 91.3406 113.5 91.3406 113.5L89.8597 112.663Z" fill="#263238"/>
<path d="M103.046 120.291C103.416 120.51 103.936 119.813 104.385 119.344C104.561 119.141 104.787 118.985 105.04 118.894C105.294 118.802 105.567 118.776 105.834 118.819C106.1 118.862 106.351 118.973 106.562 119.14C106.774 119.307 106.938 119.526 107.04 119.774C107.827 121.339 106.086 123.42 105.094 124.101C104.815 124.341 104.467 124.489 104.099 124.521C103.731 124.553 103.363 124.469 103.046 124.28L102.786 130.257C102.345 131.216 101.672 132.052 100.826 132.689C99.9811 133.327 98.99 133.746 97.9416 133.911C94.4048 134.388 95.1374 131.493 96.2953 130.07V127.895C95.4134 128.085 94.5064 128.132 93.6092 128.036C93.1445 127.91 92.0338 126.588 91.3328 125.11C90.5451 123.451 89.2139 120.51 90.3954 115.526C91.6636 110.167 97.4847 110.003 100.903 112.162C104.322 114.322 103.046 120.291 103.046 120.291Z" fill="#FFA8A7"/>
<path d="M103.046 120.901C103.235 120.901 103.928 119.759 104.385 119.336C105.015 118.765 104.204 113.61 104.204 113.61C104.204 113.61 104.842 111.662 103.597 110.363C102.353 109.064 99.9344 109.283 98.1699 109.221C96.0047 109.234 93.8598 108.805 91.8683 107.961C89.3634 106.882 89.1744 106.757 88.8672 107.844C88.6241 108.745 88.5936 109.689 88.7781 110.604C88.9625 111.518 89.3569 112.378 89.9306 113.117L91.1751 113.571C91.1751 113.571 91.8447 114.165 94.1842 114.447C96.3415 114.605 98.509 114.566 100.659 114.329C101.336 114.235 101.447 114.885 101.848 116.676C102.164 118.241 102.431 120.893 103.046 120.901Z" fill="#263238"/>
<path d="M104.196 114.025L106.409 112.843C106.339 112.695 106.239 112.563 106.116 112.455C105.993 112.347 105.849 112.264 105.693 112.213C105.537 112.162 105.371 112.143 105.208 112.157C105.044 112.171 104.884 112.218 104.739 112.295C104.443 112.459 104.221 112.73 104.12 113.052C104.019 113.374 104.046 113.722 104.196 114.025V114.025Z" fill="#263238"/>
<path d="M96.3033 127.895C97.8127 127.613 99.2922 127.192 100.722 126.635C101.395 126.285 101.945 125.739 102.298 125.071C102.126 125.735 101.82 126.357 101.4 126.901C100.565 127.965 96.2954 128.748 96.2954 128.748L96.3033 127.895Z" fill="#F28F8F"/>
<path d="M97.0909 119.477C97.094 119.607 97.1356 119.733 97.2105 119.839C97.2855 119.945 97.3903 120.027 97.5119 120.074C97.6335 120.121 97.7664 120.131 97.8939 120.104C98.0214 120.076 98.1378 120.011 98.2284 119.918C98.3191 119.825 98.3799 119.707 98.4033 119.579C98.4267 119.452 98.4116 119.32 98.3598 119.201C98.3081 119.082 98.2221 118.981 98.1127 118.91C98.0032 118.84 97.8752 118.803 97.7446 118.804C97.5684 118.808 97.401 118.881 97.2786 119.007C97.1562 119.133 97.0887 119.302 97.0909 119.477Z" fill="#263238"/>
<path d="M97.7842 117.021L99.1942 117.803C99.2919 117.611 99.3121 117.389 99.2506 117.182C99.1891 116.976 99.0506 116.8 98.8633 116.692C98.7711 116.642 98.6696 116.61 98.5649 116.6C98.4603 116.589 98.3545 116.599 98.2539 116.63C98.1534 116.661 98.06 116.711 97.9793 116.778C97.8986 116.845 97.8323 116.928 97.7842 117.021Z" fill="#263238"/>
<path d="M97.1382 123.897L95.6416 124.461C95.6744 124.56 95.7269 124.652 95.7962 124.731C95.8654 124.81 95.9499 124.875 96.0447 124.921C96.1394 124.967 96.2425 124.993 96.3478 124.999C96.4532 125.005 96.5585 124.989 96.6577 124.954C96.8608 124.875 97.0248 124.72 97.1146 124.523C97.2044 124.325 97.2129 124.101 97.1382 123.897V123.897Z" fill="#F28F8F"/>
<path d="M91.2383 117.561L92.5065 116.575C92.4455 116.489 92.3679 116.416 92.2781 116.361C92.1883 116.306 92.0883 116.269 91.9839 116.253C91.8796 116.237 91.7731 116.242 91.6707 116.268C91.5683 116.293 91.4722 116.339 91.388 116.403C91.2178 116.539 91.1073 116.736 91.0794 116.952C91.0516 117.168 91.1085 117.386 91.2383 117.561V117.561Z" fill="#263238"/>
<path d="M91.6321 119.297C91.63 119.472 91.6974 119.641 91.8198 119.767C91.9422 119.893 92.1097 119.966 92.2859 119.97C92.4642 119.966 92.6337 119.892 92.7575 119.765C92.8814 119.637 92.9497 119.467 92.9476 119.289C92.9577 119.198 92.9482 119.105 92.9198 119.017C92.8914 118.929 92.8446 118.848 92.7825 118.779C92.7205 118.71 92.6445 118.655 92.5596 118.618C92.4747 118.58 92.3828 118.56 92.2898 118.56C92.1969 118.56 92.1049 118.58 92.02 118.618C91.9352 118.655 91.8592 118.71 91.7972 118.779C91.7351 118.848 91.6883 118.929 91.6599 119.017C91.6314 119.105 91.622 119.198 91.6321 119.289V119.297Z" fill="#263238"/>
<path d="M94.9798 118.679L94.7593 122.598L92.7034 121.902L94.9798 118.679Z" fill="#F28F8F"/>
<path d="M105.188 221.226V220.623C104.787 220.795 103.849 224.339 102.187 225.849C100.856 227.046 99.0365 228.439 98.5876 229.761C98.1386 231.083 101.108 231.92 102.345 231.701C103.786 231.45 106.283 230.441 106.906 229.51C107.528 228.579 107.827 227.202 108.331 226.514C108.836 225.826 110.017 225.067 110.293 224.277C110.374 223.537 110.29 222.79 110.049 222.086C109.852 221.351 109.647 220.521 109.395 220.608C109.395 220.694 109.395 221.061 109.395 221.061C108.797 221.53 108.054 221.779 107.292 221.765C106.685 221.812 105.181 221.695 105.188 221.226Z" fill="#263238"/>
<path d="M90.5767 214.615C90.3562 214.615 90.175 214.928 89.6945 215.444C88.9773 216.169 88.1408 216.767 87.2211 217.212C85.6457 217.995 82.5894 219.199 81.2031 219.817C80.3445 220.209 80.4154 221.241 81.274 221.836C82.1326 222.43 84.3303 222.853 86.9218 222.274C88.3318 221.961 90.175 220.67 91.3329 220.709C92.4908 220.748 94.6728 220.764 95.5313 220.177C96.3899 219.591 96.0512 218.331 95.807 217.251C95.5629 216.172 95.1611 214.279 94.7673 214.357V214.725C94.2632 215.507 91.6874 215.796 90.5767 215.241V214.615Z" fill="#263238"/>
<path d="M84.9524 148.955C84.0623 147.304 83.8418 147.234 83.3062 146.874C82.7705 146.514 79.5331 146.029 78.1861 145.919C76.6107 145.786 76.0357 146.076 76.4768 147.429C77.6966 150.84 79.1819 154.152 80.9194 157.334C81.3448 157.889 81.4314 158.405 83.2116 158.577C84.9918 158.75 86.9689 158.828 87.5834 158.867C88.1978 158.906 89.0485 159.055 88.4971 157.255C87.7934 155.224 86.9809 153.231 86.0631 151.286C85.4172 149.808 84.9524 148.955 84.9524 148.955Z" fill="#37474F"/>
<path d="M117.24 153.915C117.201 153.398 115.665 147.562 114.877 144.863L109.111 146.835L110.466 151.083L115.539 156.301C116.077 156.196 116.553 155.89 116.87 155.446C117.187 155.001 117.319 154.453 117.24 153.915V153.915Z" fill="#FFA8A7"/>
<path d="M110.442 151.083C110.442 151.083 94.5466 152.773 92.6798 152.201C90.8129 151.63 88.308 149.776 86.9611 149.01C85.6141 148.243 84.6452 148.18 84.6452 148.501C84.6452 148.822 85.7953 150.566 86.0631 151.286C86.3309 152.006 84.8185 152.014 82.8493 151.56C80.88 151.106 80.0845 149.995 79.5646 150.637C79.0447 151.278 80.6595 154.548 83.9363 155.777C87.2131 157.005 89.6471 156.191 92.3568 156.301C95.0665 156.41 111.758 157.474 115.515 156.301C115.615 155.704 115.546 155.091 115.317 154.531C115.087 153.97 114.706 153.483 114.215 153.125C113.09 152.226 111.813 151.535 110.442 151.083V151.083Z" fill="#FFA8A7"/>
<path d="M104.117 130.703C106.614 131.525 111.569 131.939 113.168 137.306C114.767 142.673 115.57 146.154 115.57 146.154C114.625 147.406 110.844 148.853 109.111 148.313L104.117 130.703Z" fill="#455A64"/>
<path d="M109.111 148.313L107.402 142.289L109.111 150.77V148.313Z" fill="#37474F"/>
<path d="M73.2552 160.971C73.1764 161.073 72.5069 162.176 72.5069 162.176L69.4269 166.557L66.4258 171.024C66.3312 171.16 66.1957 171.263 66.0386 171.318C65.8815 171.373 65.711 171.377 65.5515 171.329L65.3467 171.259C64.3069 170.875 62.7473 170.226 60.6756 169.279C59.0136 168.497 59.1002 168.27 59.1002 167.989C59.0786 167.765 59.0786 167.54 59.1002 167.316V167.316C59.4389 166.674 60.4866 165.071 61.8965 163.044C64.4014 159.43 65.6066 157.826 66.3549 156.786C66.4617 156.634 66.6193 156.525 66.7996 156.477C66.9799 156.43 67.1712 156.448 67.3395 156.528C68.6865 156.974 71.4198 158.139 72.8534 158.718H72.9165C73.6884 159.133 73.263 160.94 73.2552 160.971Z" fill="#37474F"/>
<path d="M73.3338 160.83L72.5461 162.176L69.5371 166.643L66.3863 171.001C66.2917 171.137 66.1561 171.239 65.999 171.294C65.842 171.349 65.6714 171.353 65.5119 171.306L65.3071 171.235C64.2673 170.852 62.7077 170.203 60.6361 169.256C58.974 168.474 59.0607 168.247 59.0607 167.965C59.039 167.741 59.039 167.516 59.0607 167.292V167.292C60.6361 167.981 65.6222 170.328 65.7876 170.242C66.1815 170.054 69.5607 164.672 71.3566 161.926C72.2546 160.557 72.6563 159.978 72.932 159.508C72.9827 159.452 73.0204 159.386 73.0425 159.314C73.0646 159.242 73.0707 159.166 73.0602 159.092C73.0496 159.017 73.0229 158.946 72.9817 158.883C72.9405 158.819 72.8859 158.766 72.8218 158.726H72.7587C72.9356 158.819 73.0883 158.951 73.2045 159.113C73.3208 159.274 73.3974 159.461 73.4283 159.657C73.5142 159.844 73.5506 160.05 73.534 160.256C73.5175 160.461 73.4486 160.659 73.3338 160.83V160.83Z" fill="#37474F"/>
<path opacity="0.1" d="M73.3338 160.83L72.5461 162.176L69.5371 166.643L66.3863 171.001C66.2917 171.137 66.1561 171.239 65.999 171.294C65.842 171.349 65.6714 171.353 65.5119 171.306L65.3071 171.235C64.2673 170.852 62.7077 170.203 60.6361 169.256C58.974 168.474 59.0607 168.247 59.0607 167.965C59.039 167.741 59.039 167.516 59.0607 167.292V167.292C60.6361 167.981 65.6222 170.328 65.7876 170.242C66.1815 170.054 69.5607 164.672 71.3566 161.926C72.2546 160.557 72.6563 159.978 72.932 159.508C72.9827 159.452 73.0204 159.386 73.0425 159.314C73.0646 159.242 73.0707 159.166 73.0602 159.092C73.0496 159.017 73.0229 158.946 72.9817 158.883C72.9405 158.819 72.8859 158.766 72.8218 158.726H72.7587C72.9356 158.819 73.0883 158.951 73.2045 159.113C73.3208 159.274 73.3974 159.461 73.4283 159.657C73.5142 159.844 73.5506 160.05 73.534 160.256C73.5175 160.461 73.4486 160.659 73.3338 160.83V160.83Z" fill="black"/>
<path d="M66.3942 157.81L71.9238 160.11L66.0318 168.81L60.5337 166.299L66.3942 157.81Z" fill="#FAFAFA"/>
<path d="M64.8424 188.125C66.3548 187.695 68.6392 182.109 70.3563 175.773C72.0735 169.436 72.9794 168.035 73.0345 166.041C73.0897 164.046 72.9479 161.425 72.9479 161.425L69.9546 165.767C69.8248 164.929 69.5587 164.118 69.1669 163.365C68.7809 162.583 68.0563 161.965 67.4655 162.434C67.1504 162.684 67.9854 163.756 67.8042 166.15C67.7894 167.104 67.8845 168.057 68.0878 168.99L62.5266 182.368L64.8424 188.125Z" fill="#FFA8A7"/>
<path d="M42.4639 160.384C40.7073 159.892 39.2186 160.823 38.3915 163.6C36.9416 168.829 35.8884 174.158 35.2407 179.543C35.0044 181.476 34.7366 183.823 36.5955 184.003C38.0134 184.144 42.1094 183.361 42.8262 182.657C43.7872 181.734 43.6139 178.01 43.6139 178.01H41.4872C41.4872 178.01 41.944 175.076 42.0779 174.185C42.5505 171.188 43.2516 167.41 43.2516 167.41L42.4639 160.384Z" fill="#F28F8F"/>
<path d="M52.7748 157.638L52.058 163.905L45.8352 164.625L46.7332 156.308L52.7748 157.638Z" fill="#FFA8A7"/>
<path d="M39.4548 148.493C39.9668 142.704 43.1255 140.326 45.5674 139.747C50.4984 138.597 55.3664 140.24 57.3829 143.658C57.8444 144.729 58.0824 145.881 58.0824 147.046C58.0824 148.21 57.8444 149.363 57.3829 150.433C56.3116 152.858 39.4785 148.477 39.4785 148.477" fill="#263238"/>
<path d="M57.6902 151.607C57.6902 151.607 58.5803 153.994 58.3439 154.174C57.9725 154.307 57.5809 154.376 57.186 154.377L57.6902 151.607Z" fill="#FFA8A7"/>
<path d="M55.0356 144.065C56.2093 145.067 58.1864 146.882 57.6587 151.888C57.0758 157.067 55.8154 158.468 54.9647 158.968C54.3976 159.305 51.8848 158.718 50.719 158.038C49.2696 157.185 46.0558 154.986 45.0791 152.021C43.9212 148.532 44.5041 144.37 47.0405 143.283C48.3311 142.731 49.7414 142.514 51.1395 142.651C52.5377 142.788 53.8782 143.274 55.0356 144.065Z" fill="#FFA8A7"/>
<path d="M56.4849 144.199C56.5101 145.583 56.2208 146.956 55.6385 148.214C55.0562 149.472 54.1958 150.584 53.1214 151.467C53.1214 151.467 52.3889 149.581 50.7583 150.011C49.1278 150.442 49.1829 152.577 50.3487 153.735C50.651 154.066 51.0421 154.305 51.476 154.422C51.91 154.54 52.3688 154.533 52.7985 154.4C52.566 155.88 51.8685 157.249 50.8056 158.312C49.1094 158.699 47.3375 158.604 45.6934 158.037C44.0493 157.469 42.5996 156.453 41.5107 155.104C37.911 150.809 38.9744 143.988 44.5985 141.977C46.5871 141.185 48.7622 140.973 50.868 141.366C52.9737 141.76 54.9225 142.743 56.4849 144.199V144.199Z" fill="#263238"/>
<path d="M45.0868 251.916L47.7729 255.624C46.5493 256.174 45.2163 256.441 43.8738 256.406C41.4713 256.5 40.8096 255.718 40.723 255.53C40.3134 254.662 40.9514 253.105 41.1247 251.767L45.0868 251.916Z" fill="#263238"/>
<path d="M47.6076 253.833C47.6076 253.833 50.8608 253.621 53.1215 253.34C55.3822 253.058 57.1545 254.122 56.6267 255.069C56.099 256.015 54.8544 256.759 52.9246 257.416C51.2783 257.971 49.2933 258.37 47.5682 258.879C45.8431 259.387 44.6695 260.013 43.6691 259.661C42.5505 259.278 42.0937 258.832 42.1646 258.026C42.4086 256.877 42.7109 255.741 43.0704 254.623L47.6076 253.833Z" fill="#263238"/>
<path d="M40.7231 248.176C40.7231 248.176 41.1249 251.54 41.1564 252.268C41.1879 252.996 44.4647 253.222 45.0949 251.9L45.1973 247.785L40.7231 248.176Z" fill="#F28F8F"/>
<path d="M44.0235 250.25L42.8814 255.358C42.8814 255.358 42.7632 255.976 45.4493 256.375C48.1353 256.774 52.3259 254.983 53.0427 254.623C53.7595 254.263 53.8304 253.535 51.2074 253.676C48.5843 253.817 47.647 253.833 47.647 253.833L48.5056 251.564L44.0235 250.25Z" fill="#FFA8A7"/>
<path d="M40.723 181.859C38.4781 185.325 36.3513 188.376 35.8944 192.272C34.9334 200.502 38.0842 209.905 38.7538 215.992C37.4801 217.724 36.7436 219.788 36.6349 221.93C36.6349 224.449 40.723 248.177 40.723 248.177C40.723 248.177 43.6927 249.076 45.1893 247.785L48.0014 204.132L46.5205 198.82L40.723 181.859Z" fill="#455A64"/>
<path d="M48.0013 204.132L46.5204 198.82C43.7333 198.1 41.0436 197.049 38.5095 195.691C38.5095 195.691 40.0298 198.429 44.37 199.931L46.6307 206.76L46.8276 222.407L48.0013 204.132Z" fill="#37474F"/>
<path d="M40.723 181.859C39.5257 183.799 36.6506 187.132 37.265 190.324C38.0054 194.235 40.1007 196.919 46.5205 198.82L52.5385 220.467C52.5385 220.467 49.3877 223.385 48.4503 226.154C47.513 228.924 44.0235 250.25 44.0235 250.25C44.0235 250.25 45.0947 251.986 48.4818 251.564C48.4818 251.564 60.2973 224.816 61.085 223.095C62.0929 221.334 62.4469 219.277 62.0854 217.283C61.7073 214.482 57.69 183.799 57.69 183.799L40.723 181.859Z" fill="#455A64"/>
<path d="M39.6281 162.325C39.8695 161.686 40.3245 161.15 40.9168 160.805C41.5091 160.461 42.2026 160.329 42.8812 160.431C47.0797 161.566 53.6097 163.06 54.8464 163.42C54.8464 163.42 54.2871 171.454 59.1236 174.286C58.8952 176.078 57.6664 183.799 57.6664 183.799C57.6664 183.799 51.8531 186.6 47.0718 185.223C42.2905 183.846 40.6836 181.859 40.6836 181.859L43.0467 177.987C42.5347 176.727 40.5575 172.448 39.2815 168.474C38.8387 166.43 38.9584 164.306 39.6281 162.325Z" fill="#FFB900"/>
<path d="M42.4639 176.461C44.4525 177.649 46.5365 178.672 48.6946 179.52C46.7331 179.47 44.8157 178.932 43.1177 177.955L42.4639 176.461Z" fill="#E0E0E0"/>
<path d="M59.0212 173.684C57.3031 172.902 55.8895 171.583 54.9961 169.929C55.141 171.2 55.5797 172.42 56.2779 173.495C56.9761 174.57 57.915 175.47 59.0212 176.125V173.684Z" fill="#E0E0E0"/>
<path d="M54.886 163.42C57.5248 164.202 59.1632 164.452 60.589 165.72C62.4637 167.394 64.4014 176.86 64.7953 178.816C65.4806 182.203 66.2368 185.724 65.4963 187.304C64.9607 188.446 62.0462 189.299 60.7701 185.606C60.5023 184.824 60.4472 184.464 60.2109 183.76C59.0057 180.224 57.194 173.465 57.194 173.465C57.194 173.465 53.6257 171.509 54.886 163.42Z" fill="#FFA8A7"/>
<path d="M42.0937 141.977C41.1564 142.517 39.4628 143.041 38.4073 147.931C37.548 152.033 37.0368 156.199 36.8792 160.385C36.9185 161.903 40.0851 166.12 46.7648 165.721C53.4445 165.322 55.8706 161.434 55.8706 161.434C55.8706 161.434 52.5859 160.104 52.8458 154.393C52.8458 154.393 51.6879 156.654 48.5135 155.519C45.339 154.385 42.0937 141.977 42.0937 141.977Z" fill="#263238"/>
</svg>
